<?xml version="1.0" encoding="utf-8"?>
<!-- Generator: Adobe Illustrator 21.0.2, SVG Export Plug-In . SVG Version: 6.00 Build 0)  -->
<svg version="1.1" id="Слой_1" xmlns="http://www.w3.org/2000/svg" xmlns:xlink="http://www.w3.org/1999/xlink" x="0px" y="0px"
	 viewBox="0 0 916 425" style="enable-background:new 0 0 916 425;" xml:space="preserve">
<style type="text/css">
	.st0{fill:none;stroke:#000000;stroke-width:0.5;stroke-linecap:round;stroke-linejoin:round;}
	.st1{stroke:#000000;stroke-miterlimit:10;}
	.st2{fill:#FFFFFF;stroke:#000000;stroke-miterlimit:10;}
	.st3{fill:#FFFFFF;}
</style>
<g>
	<path d="M264,102.6c-8.4,0-18.3-3.5-23.5-13c0.8,1.4,1.9,2.7,3,3.9c5.2,5.5,13.1,8.7,21.2,8.7c4.8,0,9.3-1.1,13.1-3.2
		c9-5,17.8-18.6,18.2-19.2l15-21c0.2-0.3,18.1-27.1,23-34c0.1-0.1,0.7-0.3,1.4-0.3c0.2,0,0.4,0,0.5,0c-11.4,19.6-40,59.8-48.7,68.6
		C281.1,99.2,272.7,102.6,264,102.6C264,102.6,264,102.6,264,102.6z M237,77.7c-0.5-5.7,0.7-10.8,3.4-14.3c2.8-3.6,7-5.5,12.6-5.5
		c3.3,0,7,0.7,11.1,1.9l0.5,1.4c-0.7-0.4-1.6-0.8-2.9-1.2c-1.6-0.5-4.4-1.1-7.6-1.1c-6.1,0-16.3,2.2-17.1,16.6
		C237,76.2,237,77,237,77.7z"/>
	<path d="M335,25c-11.7,19.9-39.6,59.1-48.2,67.8c-1.6,1.6-3.4,3.1-5.4,4.3c7.8-6,14.6-16.5,14.9-17l15-21
		c0.2-0.3,17.9-26.8,22.9-33.9C334.4,25.1,334.7,25.1,335,25 M252.7,58.5c-3.4,0.2-7.7,1.1-11,4.2C244.3,59.9,248,58.5,252.7,58.5
		 M335.3,24c-0.8,0-1.6,0.2-1.8,0.5c-5,7-23,34-23,34l-15,21c0,0-9,14-18,19c-3.9,2.1-8.3,3.2-12.8,3.2c-13.8,0-28-9.6-27.2-26.2
		c0.7-13.2,9.6-16.1,16.6-16.1c3.1,0,5.9,0.6,7.4,1.1c3,1,4,2,4,2s-0.8-2.3-1-3c-4.4-1.4-8.3-2-11.5-2c-15.3,0-18.8,13.7-15.5,26
		c3.6,13.3,14.7,19.6,26.5,19.6c8.5,0,17.2-3.3,23.5-9.6c9-9,38-50,49-69C336.7,24.2,336.1,24,335.3,24L335.3,24z"/>
</g>
<g>
	<path d="M356.5,136.8c-6.5,0-13.5-0.9-20.8-2.8c-13-3.2-21.8-9.6-26.2-19c-6.5-14.1-1.2-31.8,2.5-39.2c4.6-9.3,14.1-26.1,19.9-31.9
		c0.1,0,0.4-0.1,0.9-0.1c-4,6.1-12.6,21.4-16.7,30.6c-3.7,8.2-10,38.5,2.1,48.6c8.7,7.2,24.7,12.1,39.9,12.1c7,0,13.6-1,19.5-3
		c6.4-2.1,18.4-8.3,26.3-25.3c7.3-15.6,0.6-28.6-8.1-35.6c-5-4-10.1-5.9-15.8-5.9c-4,0-7.6,0.9-10.6,1.8c-2.5,0.7-6.9,2.5-10.9,4.5
		c2.5-2.2,8.4-6.2,14.2-7.5c0.9-0.2,2.8-0.5,5.3-0.5c6.5,0,16,2.1,24.2,12.4c3.6,4.6,9.1,13.9,4.9,25.5
		C403.2,112,390.5,136.8,356.5,136.8z"/>
	<path d="M331.1,45.4c-4.3,7-11.8,20.4-15.5,28.7c-3.7,8.3-10,38.9,2.3,49.2c8.7,7.3,24.9,12.2,40.2,12.2c6.4,0,12.5-0.8,18-2.5
		c-5.6,2-12.1,3.3-19.7,3.3c-6.4,0-13.4-0.9-20.7-2.7c-12.9-3.2-21.6-9.5-25.8-18.8c-6.4-13.9-1.2-31.5,2.5-38.8
		C316.7,67.3,325.3,52,331.1,45.4 M377.9,64c6.4,0,15.7,2.1,23.8,12.2c3.6,4.5,9,13.7,4.8,25c0,0.1-0.1,0.2-0.1,0.4
		c3.8-13.5-2.5-24.5-10.3-30.8c-5.1-4-10.3-6-16.1-6c-4,0-7.7,0.9-10.8,1.8c-1.6,0.5-4,1.4-6.6,2.5c2.8-1.8,6.4-3.7,10.1-4.5
		C373.6,64.3,375.4,64,377.9,64 M332.8,43.2c-0.5,0-1.1,0.1-1.3,0.3c-6,6-15.8,23.6-20,32c-5,10-17.2,48.8,24,59
		c7.8,1.9,14.7,2.8,21,2.8c35.2,0,47.7-26.7,51-35.8c4-11-0.6-20.5-5-26C394,64.9,384.1,63,377.9,63c-2.6,0-4.5,0.3-5.4,0.5
		c-8.2,1.8-16.9,9.3-15.7,9.3c0.1,0,0.4-0.1,0.7-0.3c4-2,9.1-4.2,12-5c3.1-0.9,6.7-1.8,10.5-1.8c4.7,0,10,1.4,15.5,5.8
		c7,5.6,15.9,18.1,8,35c-7,15-17.4,22.1-26,25c-6.2,2.1-12.8,2.9-19.4,2.9c-15.9,0-31.5-5.2-39.6-11.9c-12-10-5.5-40.1-2-48
		c4-9,13-25,17-31C333.6,43.3,333.3,43.2,332.8,43.2L332.8,43.2z"/>
</g>
<g id="XMLID_1_">
	<g>
		<path d="M322.5,14.5c15,1.8,29.9,5.8,43,5c29.7-1.8,52-12.2,52.2-12.2c-0.1,0.1-0.8,0.4-2.2,1.2c-24.6,13.2-50,13.5-69,11
			c-8.7-1.2-24-4.5-35-4c-21,1-23.5,7.2-25,10c-5.6,10.3,4.5,15.7,10,17c5.9,1.4,20.6-4.8,20-6l1,2c0,0-8,8-20,7
			c-16.4-1.4-15-14.9-14-18c0,0,1.3-7.6,12-11C308,12.5,320.3,14.2,322.5,14.5z"/>
	</g>
	<g>
		<path class="st0" d="M417.7,7.3C417.7,7.3,417.7,7.3,417.7,7.3"/>
		<path class="st0" d="M417.7,7.3c-0.3,0-22.6,10.4-52.2,12.2c-13.1,0.8-28-3.2-43-5c-2.2-0.3-14.5-2-27,2c-10.7,3.4-12,11-12,11
			c-1,3.1-2.4,16.6,14,18c12,1,20-7,20-7l-1-2c0.6,1.2-14.1,7.4-20,6c-5.5-1.3-15.6-6.7-10-17c1.5-2.8,4-9,25-10
			c11-0.5,26.3,2.8,35,4c19,2.5,44.4,2.2,69-11C416.9,7.7,417.6,7.4,417.7,7.3z"/>
	</g>
</g>
<path class="st1" d="M284.5-5.5"/>
<g>
	<path d="M415.1,326.1c1.2-1.2,2.5-2.8,3.1-3.9c1.3-2.4,8.8-14.5,8.9-14.6c0.2-0.3,18.9-29.3,25.5-41.5c1.4-2.5,10.5-16.2,13.5-19.2
		c0.3-0.3,0.6-0.5,1-0.5c0.5,0,1,0.3,1.1,0.7c0.1,0.3-0.6,1.9-1.4,3.3l-7.6,12.2c0,0-5.9,10.1-7.8,13.5c-4.1,7.3-9.7,15.4-16.9,25.8
		c-1.8,2.6-3.6,5.3-5.6,8.2C420.7,322,418.7,323.9,415.1,326.1z"/>
	<path d="M467.1,246.9c0.3,0,0.6,0.2,0.6,0.3c0,0.4-0.7,1.8-1.4,2.9l-7.6,12.2c-0.1,0.1-5.9,10.1-7.8,13.5
		c-4.1,7.2-9.7,15.4-16.8,25.7c-1.8,2.6-3.6,5.3-5.6,8.2c-5.4,7.9-8.1,11.4-10.3,13.5c0.2-0.3,0.3-0.5,0.5-0.8
		c1.3-2.4,8.8-14.5,8.9-14.6c0.2-0.3,18.9-29.3,25.5-41.5c1.4-2.5,10.5-16.1,13.4-19.1C466.7,247,466.9,246.9,467.1,246.9
		 M467.1,245.9c-0.5,0-0.9,0.2-1.4,0.6c-3.1,3.1-12.2,16.9-13.6,19.3c-6.6,12.3-25.5,41.5-25.5,41.5s-7.6,12.2-8.9,14.6
		c-1.2,2.2-5.4,6.1-5,6.1c0,0,0.1,0,0.3-0.1c5.5-3.2,6.4-3.1,16.4-17.6c9.9-14.5,17.3-24.9,22.5-34c1.9-3.4,7.8-13.5,7.8-13.5
		l7.6-12.2c0,0,1.8-2.9,1.5-3.8C468.5,246.4,467.9,245.9,467.1,245.9L467.1,245.9z"/>
</g>
<g>
	<path d="M472,271.4c-0.1,0-0.2,0-0.3,0c-1.5-0.1-2.6-0.9-3.2-2.3c-0.9-2-0.4-4.7,1.4-7c1.2-1.6,2.6-2.9,3.8-4.1
		c1.7-1.6,3.4-3.2,4.1-5.3c0.4-1,0.4-1.7,0-2.2c-0.2-0.3-0.5-0.6-1.3-0.6c-1,0-2.3,0.6-2.4,0.7l-14.5,7.7l3.8-6.6l11.4-3.9
		c0,0,2.7-1,4.6-1c0.7,0,1,0.1,1.2,0.2c0.7,0.4,1.1,0.9,1.1,1.6c0.2,1.2-0.6,3.7-5.2,8.4c-6,6.1-6.2,9-6.1,9.7c-0.1,0.3,0,0.7,0.2,1
		c0.3,0.5,1,1.2,2.8,1.2c0.5,0,1-0.1,1.5-0.2c1-0.2,4.4-1.9,7.7-3.6c-0.1,0.1-0.2,0.2-0.3,0.3C480.8,268.3,475.1,271.4,472,271.4z"
		/>
	<path d="M479.5,247.4c0.6,0,0.8,0.1,0.9,0.1c0.7,0.4,0.9,0.9,0.9,1.3c0.1,0.9-0.4,3.2-5.1,8c-5.8,6-6.3,9-6.2,10
		c-0.1,0.4,0,0.9,0.3,1.3c0.3,0.6,1.2,1.5,3.3,1.5c0.5,0,1-0.1,1.6-0.2c0.8-0.2,3-1.2,5.5-2.4c-2.5,2.1-6.5,3.9-8.7,3.9
		c-0.1,0-0.2,0-0.3,0c-1.3-0.1-2.3-0.8-2.8-2c-0.8-1.8-0.3-4.3,1.3-6.5c1.2-1.6,2.5-2.8,3.8-4c1.8-1.7,3.5-3.3,4.3-5.4
		c0.4-1.2,0.4-2,0-2.7c-0.2-0.4-0.7-0.8-1.7-0.8c-1.1,0-2.5,0.6-2.7,0.7l-12.9,6.9l2.8-4.9l11.2-3.9
		C475.8,248.1,478,247.4,479.5,247.4 M479.5,246.4c-2,0-4.8,1-4.8,1l-11.6,4l-4.8,8.3l16-8.6c0,0,1.2-0.6,2.2-0.6
		c0.8,0,1.4,0.4,0.8,2.1c-1.3,3.4-5,5.3-7.9,9.2c-3.5,4.7-1.8,9.7,2.2,10.1c0.1,0,0.2,0,0.4,0c3.2,0,9-3,11-5.9c1.2-1.8,7-5,7-5
		s-13,7.1-15,7.5c-0.5,0.1-1,0.1-1.4,0.1c-2.3,0-2.7-1.4-2.5-1.7c0,0-0.8-2.5,5.9-9.4c6.7-6.9,6-9.6,4-10.8
		C480.6,246.5,480.1,246.4,479.5,246.4L479.5,246.4z"/>
</g>
<g>
	<path d="M522.5,366.1c-1.1,0-1.8-0.3-2.2-0.8c-0.7-0.9-0.6-2.8,0.2-5.5l8.9-10c-2.4,4.5-5.6,11.4-4.3,13.6c0.2,0.4,0.7,0.8,1.6,0.8
		c0,0,0,0,0,0c0.1,0,0.3,0,0.5,0c1.1-0.2,2.6-0.7,4.6-1.3c2.4-0.8,5.4-1.8,8.5-2.4c5.5-1.1,10.3-2,13.6-2c0,0,0,0,0,0
		c-1.5,0.2-2.6,0.3-3.7,0.4c-1.8,0.1-3.6,0.3-7.2,1.1c-3.5,0.8-7.1,2.1-10.3,3.3C528.4,364.9,524.9,366.1,522.5,366.1
		C522.5,366.1,522.5,366.1,522.5,366.1z"/>
	<path d="M527.1,353c-2,4.2-3.6,8.7-2.5,10.6c0.4,0.7,1.1,1.1,2,1.1c0.1,0,0.3,0,0.4,0c-1.8,0.5-3.3,0.9-4.5,0.9
		c-1.3,0-1.7-0.5-1.8-0.6c-0.4-0.5-0.7-1.8,0.2-5L527.1,353 M532,346l-12,13.6c-1.6,5.3-0.3,7.1,2.5,7.1c4.4,0,12.7-4.2,20.5-6
		c7-1.6,7-0.6,14-2.1c-0.8-0.3-1.9-0.4-3.2-0.4c-3.3,0-8,0.9-13.7,2c-5.5,1.1-10.7,3.3-13.1,3.7c-0.1,0-0.3,0-0.4,0
		C521.5,363.8,532,346,532,346L532,346z"/>
</g>
<g>
	<path d="M480.8,85.5c-1.6,0-2.7-0.5-3.3-1.4c-1-1.5-0.7-4.5,0.9-8.4l0.3-0.6l-0.7-0.1c-0.3,0-0.6-0.1-0.8-0.1
		c-2-0.5-7.3-2.8-8.6-3.3l0-1c1.5,1.1,5,3.2,9.9,3.2c0.2,0,0.8,0,0.8,0l0.2-0.5c0.9-1.8,2.1-3.7,3.9-5.7c1.9-2.3,5-5,6.8-5.7
		c0.5-0.2,0.9-0.3,1.3-0.3c1.8,0,3,1.8,3,4.5c0,3.7-6,7.2-11.8,8.5l-0.2,0.1l-0.1,0.2c-1.2,2.4-1.8,4.2-1.8,5.2c0,0.6,0.2,1,0.7,1.3
		c0.4,0.2,0.9,0.3,1.5,0.3c2.2,0,5.8-1.2,8.5-2.3c2.3-0.9,8.8-4.6,12.6-7.3c-0.3,0.6-0.4,0.9-0.3,1.2c0.3,1-1,3.4-1.9,4.2
		c-0.1,0.1-0.1,0.1-0.1,0.1c-0.1,0-0.2-0.1-0.3-0.1c-0.3-0.1-0.7-0.3-1.2-0.3c-0.9,0-2,0.5-3.3,1.5
		C491.2,82.6,484.6,85.5,480.8,85.5z M490.5,65.3c-1.7,0-4.3,3.1-4.9,4c-0.5,0.7-1.1,1.8-1.7,2.8l-0.6,1.1l1.2-0.4
		c4.2-1.3,6.6-3.7,7.1-5.5c0.2-0.6,0.1-1.2-0.2-1.5C491.2,65.4,490.8,65.3,490.5,65.3z"/>
	<path d="M491.5,62c1.7,0,2.5,2,2.5,4c0,2.9-4.5,5.9-9.2,7.4c0.1-0.1,0.1-0.2,0.2-0.3c4.2-1.4,6.6-3.9,7.1-5.7
		c0.3-1.1-0.1-1.7-0.3-2c-0.3-0.4-0.8-0.6-1.3-0.6c-2,0-4.9,3.5-5.3,4.2c-0.4,0.7-1,1.6-1.5,2.5c-0.9,0.3-1.8,0.5-2.8,0.6
		c-0.1,0-0.1,0-0.2,0c0.8-1.3,1.8-2.7,3.1-4.2c2.2-2.5,5.1-5,6.6-5.6C490.8,62.1,491.1,62,491.5,62L491.5,62 M503,73.2
		c0,0,0,0.1,0,0.1c0.2,0.6-0.8,2.7-1.6,3.6c0,0,0,0,0,0c-0.3-0.1-0.8-0.3-1.4-0.3c-1,0-2.2,0.5-3.6,1.6c-5.4,4.1-11.9,6.9-15.6,6.9
		c-1.4,0-2.4-0.4-2.9-1.2c-0.6-0.9-1-2.9,0.7-7.3c0.1,0,0.2,0,0.2,0c0.7,0,1.4-0.1,2.2-0.2c-0.7,1.6-1,2.8-1,3.7
		c0,0.5,0.2,2.1,2.7,2.1c1.8,0,4.7-0.8,8.7-2.3C493.5,78.9,499.1,75.8,503,73.2 M476.1,74c0.4,0.1,0.8,0.1,1.2,0.1
		c0,0.1-0.1,0.1-0.1,0.2c0,0,0,0,0,0C476.9,74.3,476.6,74.2,476.1,74 M491.5,61c-0.5,0-1,0.1-1.5,0.3c-1.9,0.7-5,3.5-7,5.9
		s-3.2,4.2-4,5.9c0,0.1-0.1,0.1-0.1,0.2c0.7,0,1.4-0.1,2.1-0.2c1.2-0.2,2.3-0.4,3.3-0.7c0.7-1.1,1.3-2.1,1.7-2.8
		c0.7-1,3.2-3.7,4.5-3.7c0.2,0,0.4,0.1,0.5,0.2c0.8,1-1.2,4.5-6.7,6.3c-0.5,0.9-1,1.8-1.5,2.8c5.6-1.3,12.2-4.9,12.2-9
		C495,63.1,493.6,61,491.5,61L491.5,61z M506,69.5C506,69.5,506,69.5,506,69.5c-2,2.4-12,8.2-15,9.4c-2.7,1-6.2,2.3-8.3,2.3
		c-1,0-1.7-0.3-1.7-1.1c0-1.1,0.8-3,1.8-5c-1.4,0.3-2.8,0.5-4,0.5c-0.3,0-0.6,0-0.9,0c-3.2,7.7-1.1,10.5,2.9,10.5
		c4.4,0,11.1-3.3,16.2-7.1c1.4-1.1,2.4-1.4,3-1.4c0.8,0,1.2,0.4,1.5,0.4c0.1,0,0.3-0.1,0.5-0.2c0.9-0.8,2.4-3.4,2-4.7
		C503.8,72.4,506.1,69.5,506,69.5L506,69.5z M468,69.5l0,2.3c0.3,0.1,6.7,3,9,3.5c0.3,0.1,0.6,0.1,0.9,0.1c0.3-0.7,0.6-1.5,1-2.3
		c-0.2,0-0.3,0-0.5,0C472,73.2,468,69.5,468,69.5L468,69.5z M468,71.8l0,0.5L468,71.8C468,71.8,468,71.8,468,71.8L468,71.8z"/>
</g>
<g>
	<path d="M442.5,181.5c-1.9,0-3.1-0.5-3.7-1.6c-0.8-1.4-0.7-4.5,3.7-11.3c1.8-2.8,7.3-10.3,10.8-11.8c0.5-0.2,0.9-0.3,1.3-0.3
		c1.8,0,3,1.9,3,4.6c0,3.3-8.1,7.3-12.6,8.7l-0.2,0.1l-0.1,0.1c-2.6,3.9-3.6,6.1-3.1,7.3c0.2,0.6,0.8,1.3,2.2,1.3
		c2,0,5.1-1.4,7.8-2.6c1-0.4,1.9-0.9,2.7-1.2c2.5-1,3.8-2.5,4.6-3.5c0.2-0.2,0.4-0.4,0.5-0.5c0.1-0.1,0.6-0.3,1.2-0.3
		c0.7,0,1.2,0.2,1.3,0.5c0.1,0.1,0.2,1-2.2,3C454.6,178.2,447.1,181.5,442.5,181.5z M453.5,160.4c-1.7,0-4.3,3.2-4.9,4.1
		c-0.3,0.4-0.7,1.1-1.3,1.8l-2,2.7l2.2-1.4c4.8-3.1,6.9-4.6,7.1-5.8c0.1-0.3,0-0.7-0.3-0.9C454.2,160.5,453.8,160.4,453.5,160.4z"/>
	<path d="M454.5,157c1.7,0,2.5,2.1,2.5,4.1c0,2.3-4.8,5.3-9.3,7.2c0.1-0.1,0.2-0.3,0.3-0.4c4.9-3.2,7-4.6,7.2-6.1
		c0.1-0.5-0.1-1-0.4-1.3c-0.3-0.4-0.8-0.6-1.3-0.6c-2.3,0-5.3,4.2-5.3,4.3c-0.3,0.4-0.7,1.1-1.3,1.8l-0.3,0.4l-1.6,1l-1.5,1
		c-0.2,0.1-0.4,0.3-0.6,0.4c1.7-2.6,7.2-10.1,10.5-11.5C453.8,157.1,454.2,157,454.5,157 M441.6,170.8
		C441.6,170.9,441.6,170.9,441.6,170.8c0.1,0.3,0.4,0.9,1.3,0.9c-1.7,2.9-2.3,4.6-1.9,5.8c0.2,0.6,0.8,1.6,2.6,1.6
		c2.1,0,5.2-1.4,8-2.7c1-0.4,1.9-0.9,2.7-1.2c2.6-1,4-2.7,4.8-3.6c0.2-0.2,0.4-0.4,0.4-0.5c0.1-0.1,0.4-0.2,0.9-0.2
		c0.5,0,0.7,0.1,0.8,0.2c0,0.2-0.2,0.9-2,2.4c-5,4.2-12.4,7.4-16.9,7.4c-1.7,0-2.8-0.4-3.3-1.3C438.7,178.7,438.4,176.4,441.6,170.8
		 M454.5,156c-0.5,0-1,0.1-1.5,0.3c-4,1.7-10,10.5-11,12c-6.5,10.1-4.5,13.7,0.5,13.7c4.9,0,12.6-3.5,17.5-7.7
		c3.9-3.3,2.2-4.3,0.5-4.3c-0.6,0-1.3,0.2-1.5,0.4c-0.7,0.6-2,2.7-5,3.9c-3,1.2-7.8,3.8-10.3,3.8c-0.8,0-1.4-0.3-1.7-0.9
		c-0.4-1.2,1.2-4.1,3.1-6.8c-0.9,0.3-1.6,0.4-2.1,0.4c-0.7,0-0.6-0.4,1-1.5c1.2-0.8,2.3-1.5,3.3-2.1c0.7-1,1.4-1.9,1.7-2.4
		c0.7-1,3.2-3.8,4.5-3.8c0.2,0,0.4,0.1,0.5,0.2c0.8,1-1.5,2.7-6.7,6c-0.7,0.9-1.5,2-2.2,3.1c4.4-1.3,12.9-5.4,12.9-9.2
		C458,158.2,456.6,156,454.5,156L454.5,156z"/>
</g>
<g>
	<path d="M532.2,270.8c-2.1,0-3.5-0.5-4-1.6c-0.7-1.4-0.5-4.4,4.4-11.2c1.4-1.9,7.7-9.8,11.5-11.1c0.4-0.1,0.8-0.2,1.2-0.2
		c0.7,0,1.3,0.3,1.8,0.8c0.8,0.9,1.2,2.3,1.1,4.1c-0.2,3.6-8.4,7.1-11.5,7.7c0.2-0.1,0.4-0.3,0.8-0.5c6.3-3.5,7.7-5,8-6.2
		c0.1-0.5,0-1-0.4-1.5c-0.2-0.3-0.6-0.5-1-0.5c-1.7,0-4.4,3-5,3.8c-0.3,0.4-0.8,1-1.4,1.8c-3.7,4.5-7,8.7-6.4,10.7
		c0.2,0.6,0.8,1.4,2.4,1.4c2,0,5-1.1,7.6-2.1c1-0.4,1.9-0.7,2.8-1c0.5-0.2,1.2-0.4,2.1-0.7c2.8-1,7.8-2.8,9.7-3
		c-0.2,0.2-0.4,0.4-0.9,0.7C549.1,266.2,538.2,270.8,532.2,270.8z"/>
	<path d="M545.2,247.1L545.2,247.1c0.6,0,1,0.2,1.4,0.6c0.7,0.8,1.1,2.1,1,3.7c-0.1,2-3.1,4-6.1,5.4c3.2-2.1,4.1-3.2,4.3-4.3
		c0.1-0.7,0-1.3-0.5-1.9c-0.3-0.4-0.8-0.7-1.4-0.7c-2,0-5,3.3-5.4,4c-0.3,0.4-0.8,1-1.4,1.7c-4.7,5.7-7.1,9.1-6.5,11.1
		c0.2,0.7,0.8,1.8,2.9,1.8c2.1,0,5.1-1.1,7.8-2.2c1-0.4,1.9-0.7,2.8-1c0.5-0.2,1.2-0.4,2.1-0.7c2-0.7,5.1-1.8,7.4-2.5
		c-5.8,4-15.7,8.1-21.4,8.1c-1.3,0-3-0.2-3.6-1.4c-0.5-1-0.7-3.8,4.4-10.7c1.4-1.9,7.6-9.7,11.3-10.9
		C544.6,247.2,544.9,247.1,545.2,247.1 M545.2,246.1c-0.4,0-0.9,0.1-1.3,0.2c-4.1,1.4-10.7,9.8-11.7,11.3c-7.4,10.2-5.3,13.7,0,13.7
		c6.3,0,17.3-4.8,22.9-9c1.6-1.2,1.7-1.6,0.9-1.6c-2.1,0-10,3-12.3,3.7c-3,1-7.6,3.1-10.3,3.1c-1,0-1.7-0.3-1.9-1.1
		c-0.7-2.3,6.2-9.9,7.8-12c0.7-1,3.3-3.6,4.6-3.6c0.2,0,0.4,0.1,0.6,0.3c0.9,1.3,0.3,2.7-7.5,7c-1.9,1-2,1.5-1.3,1.5
		c2.2,0,12.5-3.9,12.7-8.3C548.8,248.5,547.5,246.1,545.2,246.1L545.2,246.1z"/>
</g>
<g>
	<path d="M162.4,366.2c-1.8,0-3-0.5-3.5-1.5c-0.7-1.4-0.6-4.7,4.6-12c2-2.8,7.9-10.4,11.5-11.7c0.4-0.1,0.8-0.2,1.2-0.2
		c0.7,0,1.2,0.3,1.7,0.8c0.8,0.9,1.2,2.5,1.1,4.3c-0.2,3.5-8.5,7.2-13.1,8.3l-0.2,0l-0.1,0.1c-2.8,3.9-3.9,6.1-3.6,7.4
		c0.2,0.7,0.7,1.5,2.4,1.5c0,0,0,0,0,0c2,0,5-1.2,7.7-2.3c1-0.4,1.9-0.8,2.8-1.1c0.5-0.2,1.2-0.4,1.9-0.7c1.1-0.4,2.6-1,3.5-1.2
		c-0.3,0.3-0.8,0.7-1.6,1.3C173.6,363.3,166.6,366.2,162.4,366.2z M175,344.9c-1.7,0-4.5,3.1-5.1,3.9c-0.3,0.4-0.8,1.1-1.4,1.9
		l-2.1,2.6l2.3-1.3c5-2.9,7.2-4.3,7.5-5.6c0.1-0.3,0-0.7-0.2-1C175.7,345.1,175.4,344.9,175,344.9z"/>
	<path d="M176.2,341.3L176.2,341.3c0.5,0,1,0.2,1.3,0.6c0.7,0.8,1.1,2.2,1,3.9c-0.2,2.4-5.2,5.3-9.9,7c0.1-0.2,0.3-0.4,0.4-0.5
		c5.1-3,7.2-4.4,7.5-5.8c0.1-0.5,0-1-0.3-1.4c-0.3-0.5-0.8-0.7-1.4-0.7c-2,0-5,3.5-5.5,4.1c-0.3,0.4-0.8,1.1-1.4,1.8l-0.3,0.4
		l-1.7,1l-1.6,0.9c-0.2,0.1-0.4,0.3-0.7,0.4c0,0,0,0,0-0.1c1.8-2.6,7.8-10.2,11.3-11.5C175.6,341.4,175.9,341.3,176.2,341.3
		 M162.5,355C162.5,355.1,162.5,355.1,162.5,355c0.1,0.4,0.4,0.9,1.3,1c-2,2.9-2.7,4.7-2.3,5.9c0.2,0.7,0.8,1.8,2.8,1.8
		c2.1,0,5.2-1.2,7.9-2.3c1-0.4,1.9-0.8,2.8-1c0.6-0.2,1.2-0.5,1.9-0.7c0.3-0.1,0.6-0.2,0.9-0.3c-4.9,3.7-11.5,6.4-15.5,6.4
		c-1.6,0-2.6-0.4-3.1-1.2C158.8,363.5,158.6,361,162.5,355 M176.2,340.3c-0.4,0-0.9,0.1-1.3,0.3c-4.1,1.5-10.7,10.3-11.8,11.9
		c-7.5,10.6-5.7,14.3-0.7,14.3c4.5,0,11.6-3.1,16.7-7c2.2-1.7,2.6-2.3,1.9-2.3c-1,0-4.4,1.4-6.3,2.1c-3,1-7.7,3.3-10.3,3.3
		c-1,0-1.7-0.3-1.9-1.1c-0.4-1.3,1.5-4.2,3.5-7c-0.8,0.2-1.5,0.3-2,0.3c-0.9,0-0.8-0.4,1-1.5c1.2-0.7,2.4-1.4,3.4-2
		c0.8-1,1.5-1.9,1.9-2.4c0.7-1,3.3-3.7,4.7-3.7c0.2,0,0.4,0.1,0.6,0.3c0.8,1.1-1.7,2.7-7.1,5.9c-0.7,0.9-1.6,2-2.4,3.2
		c4.4-1.1,13.3-4.8,13.5-8.8C179.7,342.8,178.5,340.3,176.2,340.3L176.2,340.3z"/>
</g>
<g>
	<path d="M488.4,366.2c-1.8,0-3-0.5-3.5-1.5c-0.7-1.4-0.6-4.7,4.6-12c2-2.8,7.9-10.4,11.5-11.7c0.4-0.1,0.8-0.2,1.2-0.2
		c0.7,0,1.2,0.3,1.7,0.8c0.8,0.9,1.2,2.5,1.1,4.3c-0.2,3.5-8.5,7.2-13.1,8.3l-0.2,0l-0.1,0.1c-2.8,3.9-3.9,6.1-3.6,7.4
		c0.2,0.7,0.7,1.5,2.4,1.5c0,0,0,0,0,0c2,0,5-1.2,7.7-2.3c1-0.4,1.9-0.8,2.8-1.1c0.5-0.2,1.2-0.4,1.9-0.7c1.1-0.4,2.6-1,3.5-1.2
		c-0.3,0.3-0.8,0.7-1.6,1.3C499.6,363.3,492.6,366.2,488.4,366.2z M501,344.9c-1.7,0-4.5,3.1-5.1,3.9c-0.3,0.4-0.8,1.1-1.4,1.9
		l-2.1,2.6l2.3-1.3c5-2.9,7.2-4.3,7.5-5.6c0.1-0.3,0-0.7-0.2-1C501.7,345.1,501.4,344.9,501,344.9z"/>
	<path d="M502.2,341.3L502.2,341.3c0.5,0,1,0.2,1.3,0.6c0.7,0.8,1.1,2.2,1,3.9c-0.2,2.4-5.2,5.3-9.9,7c0.1-0.2,0.3-0.4,0.4-0.5
		c5.1-3,7.2-4.4,7.5-5.8c0.1-0.5,0-1-0.3-1.4c-0.3-0.5-0.8-0.7-1.4-0.7c-2,0-5,3.5-5.5,4.1c-0.3,0.4-0.8,1.1-1.4,1.8l-0.3,0.4
		l-1.7,1l-1.6,0.9c-0.2,0.1-0.5,0.3-0.7,0.4c0,0,0,0,0-0.1c1.8-2.6,7.8-10.2,11.3-11.5C501.6,341.4,501.9,341.3,502.2,341.3
		 M488.5,355C488.5,355.1,488.5,355.1,488.5,355c0.1,0.4,0.4,0.9,1.3,1c-2,2.9-2.7,4.7-2.3,5.9c0.2,0.7,0.8,1.8,2.8,1.8
		c2.1,0,5.2-1.2,7.9-2.3c1-0.4,1.9-0.8,2.8-1c0.6-0.2,1.2-0.5,1.9-0.7c0.3-0.1,0.6-0.2,0.9-0.3c-4.9,3.7-11.5,6.4-15.5,6.4
		c-1.6,0-2.6-0.4-3.1-1.2C484.8,363.5,484.6,361,488.5,355 M502.2,340.3c-0.4,0-0.9,0.1-1.3,0.3c-4.1,1.5-10.7,10.3-11.8,11.9
		c-7.5,10.6-5.7,14.3-0.7,14.3c4.5,0,11.6-3.1,16.7-7c2.2-1.7,2.6-2.3,1.9-2.3c-1,0-4.4,1.4-6.3,2.1c-3,1-7.7,3.3-10.3,3.3
		c-1,0-1.7-0.3-1.9-1.1c-0.4-1.3,1.5-4.2,3.5-7c-0.8,0.2-1.5,0.3-2,0.3c-0.9,0-0.8-0.4,1-1.5c1.2-0.7,2.4-1.4,3.4-2
		c0.8-1,1.5-1.9,1.9-2.4c0.7-1,3.3-3.7,4.7-3.7c0.2,0,0.4,0.1,0.6,0.3c0.8,1.1-1.7,2.7-7.1,5.9c-0.7,0.9-1.6,2-2.4,3.2
		c4.4-1.1,13.3-4.8,13.5-8.8C505.7,342.8,504.5,340.3,502.2,340.3L502.2,340.3z"/>
</g>
<g>
	<path d="M541,103.5c-4.8,0-9.2-2.2-12.2-6c-2.8-3.6-3.9-8.1-2.8-12.3c0.9-3.7,4-8.2,6.5-11.9c1.5-2.2,2.8-4.1,3.5-5.6
		c0.6-1.4,0.7-2.5,0.3-3.2c-0.2-0.3-0.7-0.8-1.7-0.8c-1.7,0-4.3,1.2-7.3,3.3c-4.4,3.1-7.9,9.5-10.4,14.3c-1.1,2.1-2.1,3.9-2.7,4.5
		c-0.1,0-0.9,0.1-2.3,0.1c-0.7,0-1.3,0-1.7-0.1c0.6-1.1,1.8-3,3-5.2c4.9-8.2,7.1-12,6.8-13.2c-0.1-0.3-0.2-0.4-0.3-0.5
		c-0.3-0.2-0.7-0.3-1.1-0.3c-2.8,0-8.2,3.6-8.4,3.8l-0.1,0.1l-9.9,15.1c-0.4,0-1.4,0.1-2.2,0.1c-0.8,0-1.2-0.1-1.3-0.1
		c-0.1,0-0.1-0.1-0.1-0.1c0,0,0.3-0.5,0.5-0.9c0.3-0.5,0.6-1.1,0.9-1.8c0.6-0.5,1.9-2.5,6.2-9.3c2.9-4.6,6.3-9.9,7.7-11.7
		c0.3-0.3,1.2-0.6,2.1-0.6c0.6,0,0.9,0.1,1,0.2c-1,2.2-2.9,4.4-2.9,4.5l-0.2,0.2l0.3,0.6l0.3,0c0.2,0,0.3,0,2.3-1.2
		c1.6-1,4.4-2.1,6.8-2.3c0,0,0,0,0,0c1.1,0,1.9,1.5,2.4,2.9l0.3,0.8l0.6-0.6c0.2-0.2,0.8-0.7,3-2c3.1-1.8,6.3-2.9,8.5-2.9
		c1.3,0,2.3,0.4,2.8,1.1c0.8,1.1,0.8,3.1-0.1,5.9c-0.6,2.1-2,4.1-3.4,6.3c-3,4.6-6.5,9.9-5.6,18.4c0.5,5.5,4.3,8.4,10.8,8.4
		c4.1,0,8.2-1.1,10.4-1.8l-0.1,0.2l1.6-0.6c15.8-5.9,26.9-11.1,35.8-15.3c9.5-4.4,16.5-7.8,24.3-9.6c-7.3,2.3-14.4,5.8-22.2,9.7
		c-3.3,1.6-6.7,3.3-10.3,5c-4.4,2-28.3,12.6-36.9,14C542.6,103.4,541.8,103.5,541,103.5z"/>
	<path d="M514,62c0.1,0,0.2,0,0.3,0c-1,1.9-2.5,3.8-2.6,3.8l-0.4,0.5l0.3,0.6l0.3,0.6h0.6c0.3,0,0.4,0,2.5-1.3
		c1.6-1,4.2-2.1,6.5-2.2c0.5,0,1.2,0.9,1.7,2.1c-0.1,0.3,0,0.6,0,0.7c0.1,0.3,0.5,0.7,1.1,0.7c0.1,0,0.3,0,0.3,0l1.1-0.2l-0.2-0.7
		c0.4-0.3,1.1-0.8,2.4-1.5c3.1-1.8,6.2-2.8,8.3-2.8c1.1,0,2,0.3,2.4,0.9c0.7,1,0.7,2.9-0.1,5.4c-0.6,2-1.9,4-3.3,6.2
		c-2.9,4.5-6.6,10-5.7,18.7c0.6,5.8,4.5,8.9,11.3,8.9c3.4,0,6.8-0.7,9.1-1.4l-0.2,0.2c-2.5,0.8-4.7,1.4-6.4,1.7
		c-0.8,0.1-1.6,0.2-2.4,0.2c-4.6,0-8.9-2.1-11.8-5.8c-2.7-3.5-3.7-7.8-2.7-11.9c0.9-3.6,4-8.1,6.4-11.7c1.5-2.2,2.9-4.2,3.5-5.6
		c0.7-1.6,0.8-2.8,0.2-3.6c-0.3-0.4-0.9-1-2.1-1c-1.8,0-4.6,1.2-7.6,3.4c-4.5,3.2-8,9.7-10.5,14.4c-1,1.8-1.9,3.6-2.5,4.2
		c-0.3,0.1-1,0.1-2.1,0.1c-0.3,0-0.6,0-0.8,0c0.6-1.1,1.6-2.7,2.7-4.5c5.4-8.9,7.2-12.3,6.9-13.6c-0.1-0.3-0.3-0.6-0.6-0.8
		c-0.4-0.2-0.8-0.3-1.3-0.3c-2.9,0-8.1,3.5-8.7,3.9l-0.2,0.1l-0.1,0.2l-9.7,14.8c-0.5,0-1.3,0.1-2,0.1c-0.3,0-0.5,0-0.7,0
		c0.1-0.1,0.1-0.2,0.2-0.3c0.2-0.4,0.5-1,0.9-1.7c0.7-0.7,2.1-2.8,6.3-9.4c2.9-4.6,6.3-9.9,7.7-11.6C512.4,62.3,513.1,62,514,62
		 M587.9,85.1c-2.5,1.2-5.1,2.5-7.8,3.7c-3.3,1.5-17.7,7.9-28.2,11.5l1-0.4C568.2,94.3,579.1,89.3,587.9,85.1 M514,61
		c-0.9,0-2.1,0.3-2.5,0.8c-3,3.7-13.3,21-14,21c0,0,0,0,0,0c-1,2.3-2.1,3.2-1,3.5c0.3,0.1,0.9,0.1,1.5,0.1c1.2,0,2.5-0.1,2.5-0.1
		l10-15.2c0,0,5.5-3.7,8.2-3.7c0.3,0,0.6,0.1,0.8,0.2c1.3,0.7-8.5,15.5-10,18.7c-0.1,0.2,1.1,0.3,2.4,0.3c1.2,0,2.4-0.1,2.6-0.3
		c2-1.9,6.6-14.2,13-18.7c2.9-2,5.5-3.2,7.1-3.2c1.4,0,1.9,1,0.9,3.2c-1.7,3.7-8.5,11.5-10,17.5c-2.3,9.3,5.3,18.9,15.5,18.9
		c0.8,0,1.7-0.1,2.5-0.2c9-1.4,33.7-12.4,37-14c15-7,26.2-13.6,39-16.3c1.7-0.4,4.1-0.5,6.8-0.5c9.8,0,23.7,1.8,24.2,1.8
		c0.1,0-0.2-0.1-1-0.2c-8.8-1.4-15.8-2-21.9-2c-24.4,0-32.7,10.7-75.1,26.6c0,0,0,0,0,0c-0.3,0-6.1,2.2-11.7,2.2
		c-4.9,0-9.7-1.7-10.3-8c-1.2-12.5,7-18,9-24.5c1.8-5.7-0.1-7.6-3.2-7.6c-2.5,0-5.9,1.3-8.8,3c-2,1.2-2.8,1.7-3.1,2
		c0.1,0.2,0.1,0.3,0.1,0.3s0,0-0.1,0c-0.1,0-0.3,0,0-0.3c-0.3-0.8-1.2-3.2-2.8-3.2c0,0-0.1,0-0.1,0c-2.5,0.1-5.3,1.2-7,2.3
		c-1.7,1.1-2,1.2-2,1.2c0,0,0,0,0,0s2-2.3,3-4.7C515.7,61.3,514.9,61,514,61L514,61z"/>
</g>
<g>
	<path d="M389.6,270.9c-1.1,0-1.9-0.1-2.4-0.1c0.7-1.2,2.1-3.3,3.6-5.7c5.8-8.9,8.3-13.1,8-14.4c-0.1-0.3-0.2-0.4-0.3-0.5
		c-0.3-0.2-0.8-0.3-1.3-0.3c-3.1,0-9.4,3.9-9.6,4l-0.1,0.1l-11.6,16.5c-0.4,0-1.3,0.1-2.2,0.1c-1.2,0-1.7-0.1-2-0.1
		c-0.5-1.4,7.3-11.8,11.1-16.8c2.2-2.9,3.9-5.2,4.6-6.3c0,0,0,0,0,0c0.5,0,1.6,1.2,2.3,2.3l0.1,0.2l0.3,0c0.2,0,0.3,0,2.6-1.3
		c1.9-1.1,5.1-2.3,7.8-2.4h0c1.5,0,2.4,2.3,2.7,3l0.3,0.8l0.6-0.6c0.2-0.2,0.9-0.8,3.5-1.8c2.2-0.9,5-1.4,7.6-1.4
		c3.4,0,5.9,0.9,6.6,2.2c0.5,1,0.1,2.2-1.1,3.8c-5.4,7-9.9,14.9-7.6,16.7c0.5,0.4,1.2,0.6,2,0.6c0,0,0,0,0,0c0.5,0,1-0.1,1.6-0.2
		c-2.4,1.2-4.5,1.9-6.3,1.9c-1.5,0-2.5-0.5-3-1.5c-1.4-3,2.2-9.8,9.5-18.2c1-1.2,1.4-2.2,1-3c-0.2-0.5-0.8-1.1-2.4-1.1
		c-2.3,0-5.5,1.2-8.5,3.1c-5.1,3.3-9.1,10.4-12.1,15.6c-1.3,2.3-2.5,4.3-3.1,4.9C391.8,270.8,391,270.9,389.6,270.9z"/>
	<path d="M415.3,246.4c3.1,0,5.5,0.8,6.1,2c0.5,1-0.3,2.3-1,3.2c-1.9,2.4-11.1,14.6-7.5,17.4c0.4,0.3,0.8,0.5,1.3,0.6
		c-1.4,0.5-2.6,0.8-3.7,0.8c-1.3,0-2.2-0.4-2.5-1.2c-1-2.2,1-8,9.4-17.6c1.2-1.4,1.6-2.5,1.1-3.5c-0.3-0.6-1-1.4-2.8-1.4
		c-2.4,0-5.7,1.2-8.8,3.2c-5.2,3.4-9.3,10.5-12.3,15.7c-1.2,2-2.3,4-2.9,4.7c-0.2,0-0.9,0.1-2,0.1c-0.6,0-1.1,0-1.6,0
		c0.8-1.2,1.9-3,3.2-5c6.3-9.7,8.4-13.4,8.1-14.8c-0.1-0.3-0.3-0.6-0.6-0.8c-0.4-0.2-0.9-0.4-1.5-0.4c-3.2,0-9.2,3.7-9.9,4.1
		l-0.2,0.1l-0.1,0.2L375.6,270c-0.5,0-1.2,0-2,0c-0.6,0-1.1,0-1.4,0c0.7-2.5,7.5-11.6,10.9-16.1c2-2.7,3.7-4.9,4.4-6.1
		c0.4,0.3,1.1,1.1,1.7,1.9l0.2,0.5h0.7c0.3,0,0.5,0,2.8-1.4c1.9-1.1,4.9-2.2,7.6-2.3c0.8,0,1.5,1.1,2,2.3c-0.1,0.3,0,0.6,0,0.8
		c0.2,0.5,0.7,0.8,1.1,0.9l1.5,0.2l-0.4-1.4c0.4-0.3,1.3-0.7,2.9-1.4C409.9,247,412.7,246.4,415.3,246.4 M415.3,245.4
		c-2.6,0-5.5,0.5-7.8,1.5c-2.4,1-3.3,1.6-3.7,2c0.1,0.3,0.2,0.6,0.2,0.6s-0.6-0.1-0.2-0.6c-0.4-1.1-1.4-3.3-3.1-3.3c0,0,0,0-0.1,0
		c-2.8,0.1-6,1.3-8.1,2.5c-2,1.2-2.3,1.3-2.3,1.3c0,0,0,0,0,0s-1.7-2.5-2.7-2.5c-0.2,0-0.4,0.1-0.5,0.3
		c-2.3,3.8-18.3,23.2-15.4,23.9c0.4,0.1,1.3,0.1,2.1,0.1c1.2,0,2.5-0.1,2.5-0.1l11.7-16.6c0,0,6.3-3.9,9.4-3.9c0.4,0,0.7,0.1,1,0.2
		c1.4,0.8-10,17-11.8,20.5c-0.1,0.2,1.6,0.3,3.1,0.3c1.2,0,2.4-0.1,2.6-0.3c2.3-2,7.7-15.5,15.2-20.4c3.2-2.1,6.3-3.1,8.2-3.1
		c2,0,2.8,1.1,0.9,3.2c-12.2,13.9-11.8,20.5-6.2,20.5c3.7,0,9.6-2.9,15.6-8.4c0,0,0.1-0.1,0.1-0.1c-0.1,0-7,5.8-11,5.8
		c-0.6,0-1.2-0.2-1.7-0.5c-1.8-1.4,1.7-8.4,7.7-16C424.8,247.5,420.6,245.4,415.3,245.4L415.3,245.4z"/>
</g>
<g>
	<path d="M607.2,271.5c-1.5,0-2.4-0.5-2.9-1.6c-1.1-2.5,0.4-8.7,8.4-17.9c1-1.1,1.3-2.1,1-2.8c-0.2-0.5-0.8-1-2.2-1
		c-2.2,0-5.2,1.1-8,3c-4.8,3.1-8.3,9.8-11,14.7c-1.2,2.2-2.2,4.1-2.8,4.7c-0.1,0-1.1,0.1-2.8,0.1c-1,0-1.7,0-2.1-0.1
		c0.5-1,1.5-2.5,2.5-4.2c5.3-8.8,7.7-13.2,7.4-14.4c-0.1-0.3-0.2-0.4-0.4-0.5c-0.3-0.2-0.7-0.3-1.2-0.3c-2.8,0-7.7,3.3-7.9,3.5
		l-0.1,0.1l-10.3,15.7c-0.5,0-1.8,0.1-3,0.1c-0.9,0-1.3,0-1.6-0.1c-0.2-1.8,7.9-12.8,11.8-18.1c2.1-2.8,3.7-5,4.3-6.1
		c0.2,0.3,0.7,1.5,1.1,2.7c0,0.2,0,0.6,0.2,0.9c0.2,0.2,0.4,0.3,0.8,0.3c0.4,0,0.9-0.2,1.6-0.6c0.3-0.2,0.6-0.4,1-0.6
		c1.8-1.1,4-2.5,6.1-2.5l0,0c1.2,0,2.3,2.1,2.9,3.8l0.3,0.7l0.6-0.5c0.2-0.2,0.9-0.7,3.2-2c2.7-1.5,6.2-2.4,9-2.4
		c2.2,0,3.7,0.6,4.3,1.6c0.6,1.1,0.3,2.8-1,5c-0.9,1.5-1.8,2.9-2.6,4.3c-3.8,6.2-6.1,10-4.4,11.3c0.2,0.2,0.5,0.3,0.9,0.3
		c2.6,0,9.2-4.8,16.4-10.4C617.8,268,610.9,271.5,607.2,271.5z"/>
	<path d="M613,246.6c2,0,3.3,0.5,3.9,1.4c0.5,0.9,0.2,2.5-1,4.5c-0.9,1.5-1.7,2.9-2.6,4.2c-4.1,6.7-6.3,10.4-4.3,12
		c0.3,0.3,0.7,0.4,1.2,0.4c2.1,0,6.2-2.7,11.4-6.4c-6.5,6.1-11.5,8.4-14.4,8.4c-1.3,0-2.1-0.4-2.5-1.3c-1.2-2.6,1-8.9,8.4-17.3
		c1.1-1.3,1.5-2.4,1.1-3.3c-0.3-0.6-1-1.3-2.7-1.3c-2.2,0-5.4,1.2-8.3,3.1c-4.9,3.2-8.5,9.9-11.1,14.9c-1,1.9-2,3.8-2.6,4.4
		c-0.3,0.1-1.3,0.1-2.6,0.1c-0.5,0-0.9,0-1.3,0c0.5-0.9,1.3-2.2,2.1-3.5c6.2-10.3,7.8-13.5,7.4-14.8c-0.1-0.3-0.3-0.6-0.6-0.8
		c-0.4-0.2-0.9-0.3-1.4-0.3c-2.9,0-7.7,3.2-8.2,3.6l-0.2,0.1l-0.1,0.2L574.4,270c-0.6,0-1.7,0.1-2.7,0.1c-0.4,0-0.7,0-1,0
		c0.9-2.7,8.1-12.5,11.6-17.4c1.7-2.3,3.1-4.2,3.9-5.4c0.2,0.5,0.5,1.1,0.7,1.7c0,0.3,0,0.7,0.3,1.1c0.3,0.3,0.7,0.5,1.1,0.5
		c0.5,0,1.1-0.2,1.8-0.7c0.3-0.2,0.6-0.4,1-0.6c1.7-1.1,3.8-2.4,5.8-2.5c0.7,0,1.6,1.3,2.3,3.1c-0.1,0.3,0,0.6,0,0.7
		c0.1,0.3,0.5,0.7,1.1,0.7c0.1,0,0.3,0,0.3,0l1.1-0.2l-0.2-0.7c0.4-0.3,1.2-0.8,2.7-1.6C606.9,247.5,610.3,246.6,613,246.6
		 M613,245.6c-2.9,0-6.4,1-9.2,2.5c-2.2,1.2-3,1.8-3.3,2.1c0.1,0.2,0.1,0.3,0.1,0.3s0,0-0.1,0c-0.1,0-0.3,0,0-0.3
		c-0.3-1-1.6-4.2-3.4-4.2c0,0,0,0-0.1,0c-2.7,0.1-5.4,2.1-7.3,3.2c-0.6,0.4-1,0.5-1.3,0.5c-0.6,0-0.4-0.7-0.4-0.7s-0.9-3.2-1.7-3.2
		c-0.1,0-0.2,0.1-0.3,0.2c-2.2,3.6-18.7,24.4-16,25c0.4,0.1,1,0.1,1.8,0.1c1.5,0,3.2-0.1,3.2-0.1l10.4-15.8c0,0,5-3.4,7.7-3.4
		c0.4,0,0.7,0.1,1,0.2c1.4,0.8-8.3,15.8-10,19c-0.1,0.2,1.4,0.3,2.9,0.3c1.4,0,2.9-0.1,3.1-0.3c2.1-1.9,6.8-14.7,13.7-19.3
		c3-2,5.9-2.9,7.8-2.9c1.9,0,2.6,1,0.9,3c-10.6,12.1-10.9,20.3-5.1,20.3c4.5,0,12.8-5,22.8-17c0.1-0.1,0.2-0.2,0.2-0.3
		c0,0-0.1,0-0.1,0.1c-5,3.8-16.7,13.2-20,13.2c-0.3,0-0.5-0.1-0.6-0.2c-1.7-1.3,2.5-7.2,7.1-14.9C619.8,247.7,617.1,245.6,613,245.6
		L613,245.6z M631.8,253.3c-0.1,0-0.7,0.5-1.6,1.4C631.5,253.8,631.9,253.3,631.8,253.3L631.8,253.3z"/>
</g>
<g>
	<path d="M235.2,366.5c-1.5,0-2.4-0.5-2.9-1.6c-1.1-2.5,0.4-8.7,8.4-17.9c1-1.1,1.3-2.1,1-2.8c-0.2-0.5-0.8-1-2.2-1
		c-2.2,0-5.2,1.1-8,3c-4.8,3.1-8.3,9.8-11,14.7c-1.2,2.2-2.2,4.1-2.8,4.7c-0.1,0-1.1,0.1-2.8,0.1c-1,0-1.7,0-2.1-0.1
		c0.5-1,1.5-2.5,2.5-4.2c5.3-8.8,7.7-13.2,7.4-14.4c-0.1-0.3-0.2-0.4-0.4-0.5c-0.3-0.2-0.7-0.3-1.2-0.3c-2.8,0-7.7,3.3-8,3.5
		l-0.1,0.1l-10.3,15.7c-0.5,0-1.8,0.1-3,0.1c-0.9,0-1.3,0-1.6-0.1c-0.2-1.8,7.9-12.8,11.8-18.1c2.1-2.8,3.7-5,4.3-6.1
		c0.2,0.3,0.7,1.5,1.1,2.7c0,0.2,0,0.6,0.2,0.9c0.2,0.2,0.4,0.3,0.8,0.3c0.4,0,0.9-0.2,1.6-0.6c0.3-0.2,0.6-0.4,1-0.6
		c1.8-1.1,4-2.5,6.1-2.5c0,0,0,0,0,0c1.2,0,2.3,2.1,2.9,3.8l0.3,0.7l0.6-0.5c0.2-0.2,0.9-0.7,3.2-2c2.7-1.5,6.2-2.4,9-2.4
		c2.2,0,3.7,0.6,4.3,1.6c0.6,1.1,0.3,2.8-1,5c-0.9,1.5-1.8,2.9-2.6,4.3c-3.8,6.2-6.1,10-4.4,11.3c0.2,0.2,0.5,0.3,0.9,0.3h0
		c2.6,0,9.2-4.8,16.4-10.4C245.8,363,238.9,366.5,235.2,366.5z"/>
	<path d="M241,341.6c2,0,3.3,0.5,3.9,1.4c0.5,0.9,0.2,2.5-1,4.5c-0.9,1.5-1.7,2.9-2.6,4.2c-4.1,6.7-6.3,10.4-4.3,12
		c0.3,0.3,0.7,0.4,1.2,0.4c2.1,0,6.2-2.7,11.4-6.4c-6.5,6.1-11.5,8.4-14.4,8.4c-1.3,0-2.1-0.4-2.5-1.3c-1.2-2.6,1-8.9,8.4-17.3
		c1.1-1.3,1.5-2.4,1.1-3.3c-0.3-0.6-1-1.3-2.7-1.3c-2.2,0-5.4,1.2-8.3,3.1c-4.9,3.2-8.5,9.9-11.1,14.9c-1,1.9-2,3.8-2.6,4.4
		c-0.3,0.1-1.3,0.1-2.6,0.1c-0.5,0-0.9,0-1.3,0c0.5-0.9,1.3-2.2,2.1-3.5c6.2-10.3,7.8-13.5,7.4-14.8c-0.1-0.3-0.3-0.6-0.6-0.8
		c-0.4-0.2-0.9-0.3-1.4-0.3c-2.9,0-7.7,3.2-8.2,3.6l-0.2,0.1l-0.1,0.2L202.4,365c-0.6,0-1.7,0.1-2.7,0.1c-0.4,0-0.7,0-1,0
		c0.9-2.7,8.1-12.5,11.6-17.4c1.7-2.3,3.1-4.2,3.9-5.4c0.2,0.5,0.5,1.1,0.7,1.7c0,0.3,0,0.7,0.3,1.1c0.3,0.3,0.7,0.5,1.1,0.5
		c0.5,0,1.1-0.2,1.8-0.7c0.3-0.2,0.6-0.4,1-0.6c1.7-1.1,3.8-2.4,5.8-2.5c0.7,0,1.6,1.3,2.3,3.1c-0.1,0.3,0,0.6,0,0.7
		c0.1,0.3,0.5,0.7,1.1,0.7c0.1,0,0.3,0,0.3,0l1.1-0.2l-0.2-0.7c0.4-0.3,1.2-0.8,2.7-1.6C234.9,342.5,238.3,341.6,241,341.6
		 M241,340.6c-2.9,0-6.4,1-9.2,2.5c-2.2,1.2-3,1.8-3.3,2.1c0.1,0.2,0.1,0.3,0.1,0.3s0,0-0.1,0c-0.1,0-0.3,0,0-0.3
		c-0.3-1-1.6-4.2-3.4-4.2c0,0,0,0-0.1,0c-2.7,0.1-5.4,2.1-7.3,3.2c-0.6,0.4-1,0.5-1.3,0.5c-0.6,0-0.4-0.7-0.4-0.7s-0.9-3.2-1.7-3.2
		c-0.1,0-0.2,0.1-0.3,0.2c-2.2,3.6-18.7,24.4-16,25c0.4,0.1,1,0.1,1.8,0.1c1.5,0,3.2-0.1,3.2-0.1l10.4-15.8c0,0,5-3.4,7.7-3.4
		c0.4,0,0.7,0.1,1,0.2c1.4,0.8-8.3,15.8-10,19c-0.1,0.2,1.4,0.3,2.9,0.3c1.4,0,2.9-0.1,3.1-0.3c2.1-1.9,6.8-14.7,13.7-19.3
		c3-2,5.9-2.9,7.8-2.9c1.9,0,2.6,1,0.9,3c-10.6,12.1-10.9,20.3-5.1,20.3c4.5,0,12.8-5,22.8-17c0.1-0.1,0.2-0.2,0.2-0.3
		c0,0-0.1,0-0.1,0.1c-5,3.8-16.7,13.2-20,13.2c-0.3,0-0.5-0.1-0.6-0.2c-1.7-1.3,2.5-7.2,7.1-14.9C247.8,342.7,245.1,340.6,241,340.6
		L241,340.6z M259.8,348.3c-0.1,0-0.7,0.5-1.6,1.4C259.5,348.8,259.9,348.3,259.8,348.3L259.8,348.3z"/>
</g>
<path class="st1" d="M569.5,66.5c2.8-1.9,9.1-19.2,17-34s20-31,17-29C594.6,9.4,557.7,74.8,569.5,66.5z"/>
<path class="st1" d="M567.5,80.5c0.1-1-1.7-0.4-2,0c-0.9,1.2-2.5,5.6-1,6C566.1,86.9,567.3,82.2,567.5,80.5z"/>
<path class="st1" d="M874.5,346.5c3.2-1.8,10.6-26.4,19.6-39.9s25-30.4,21.4-29.1C900.5,282.8,861.1,354,874.5,346.5z"/>
<path class="st1" d="M870.5,363.5c0.1-1-3.7-1.4-4-1c-0.9,1.2-0.5,3.6,1,3.9C869.1,366.8,870.3,365.1,870.5,363.5z"/>
<path class="st1" d="M71.5,140.5c-16.2-5.9-27.5,2.1-30,10c-7,22,20.7,44,54,34c10-3,20.3-11.9,29-27c10.5-18.3,24.2-37.4,36-46
	c8.2-6,13-8,12-6c-0.7,1.5-55,58-50,75c2.3,7.7,9-1,21-17c15.1-20.1,17-29,39-50c2.3-2.2-3,5-3,5s-20,24-26,34s-11,18-13,28
	s0,21,5,29s10,11,17,14s53.4,8.2,70-28c11.3-24.7-9.1-42-27-39c-12,2-20,9-20,9c-10.1,8.1,4.5-4.7,16-7c10-2,25,1,29,12
	c1.8,4.9,4,10,2,18c-1.7,6.7-6,17-17,25s-55,20-66-5c-7-16-5-28,5-47s33-45,33-50c0-13-35.4,34.6-52,59c-17,25-10.8-4.4,10-28
	c15.9-18,28-33,28-33s2-2,2-5s-5.3-3.5-12,1c-12,8-24.3,24-37,43c-8.1,12.1-14.3,25.5-29,32c-9,4-26.4,9.5-40-1c-35-27,1-52,20-33
	C82.1,151.1,82.5,144.5,71.5,140.5z"/>
<path class="st1" d="M217.5,156.5c-3,2-18,15-13,21c3.4,4.1,7,3,7,3s7.6-1.1,6-9c-1-5-3.3-2.4-4-4c0,0,11.8-9.2,11-11
	C224.3,156,217.5,156.5,217.5,156.5z"/>
<path class="st1" d="M185.5,180.5c9-3,20-10,22-13s-1,4-1,4s-17,11-19,10S185,180.7,185.5,180.5z"/>
<path class="st2" d="M211.5,169.5c0,0-3,1-3,6s6,1,6,1s3-3,1-5S211.5,169.5,211.5,169.5z"/>
<path class="st1" d="M214.5,168.5c0,0,7,0,11-3s6-7,9-9c0.8-0.6,6,0,6,0c-19.6,16.2-11.8,28.9,1,24c13-5,35-19,57-14
	c4.8,1.1-13.1-5.8-41,10c-30,17-39-1-33-8C226.7,165.9,214.6,173.2,214.5,168.5z"/>
<path class="st1" d="M267,348.5c9.9-4,29.1-10.6,47.3-7.8c4,0.6-10.9-3.2-34.1,5.6c-15.1,5.7-17.4,5.6-19.9,5
	C257.9,350.7,262.9,350.2,267,348.5z"/>
<path class="st1" d="M800,352.2c0,0,7,0,10.9-2.9c4-2.9,6-6.8,8.9-8.8c0.8-0.5,6,0,6,0c-19.5,15.8-11.8,28.3,1,23.5
	c12.9-4.9,34.8-18.6,56.7-13.7c4.8,1.1-13-5.7-40.8,9.8c-29.8,16.6-38.8-1-32.8-7.8C812.2,349.7,800.1,356.8,800,352.2z"/>
<path class="st1" d="M332.5,181.5l15-8c0,0,17-11,28-16c4.1-1.8,10-3,11,0c2,6-5.4,13.7-9,18c-5,6-14.7,6.7-14,3c0,0,0-3,1-3
	s2,2,2,2s-1.2,3.7,4,0c7-5,14-15,14-18c0-2,1-5-9-1s-20,11-25,14s-14,7-14,7L332.5,181.5z"/>
<path class="st1" d="M507.5,246.5c2,6.3-4.4,14.4-8,18.9c-5,6.3-14.7,7.1-14,3.2c0,0,0-3.2,1-3.2s2,2.1,2,2.1s-1.2,3.9,4,0
	c7-5.3,14-15.8,14-18.9c0-2.1-21,15.7-26,18.9S506.5,243.4,507.5,246.5z"/>
<path class="st1" d="M379.5,173.5c3,0,3.1,0.4,4,0c1.9-0.9,4.2-5.2,6-6c0.7-0.3,1.4,0.5,0.9,1.1c-2,3-5.1,7.1-7,11.1
	c-4.4,0.8-0.2-3-0.9-4.2c-0.5-0.9-4,0-4,0L379.5,173.5z"/>
<path class="st1" d="M499.5,262.5c3,0,3.1,0.4,4,0c1.9-0.9,4.2-5.2,6-6c0.7-0.3,1.4,0.5,0.9,1.1c-2,3-5.1,7.1-7,11.1
	c-4.4,0.8-0.2-3-0.9-4.2c-0.5-0.9-4,0-4,0L499.5,262.5z"/>
<path class="st1" d="M397.5,161.5c5.1-3.8,10-5,10-5s4-1,5,1s0,2-1,3c-0.4,0.4-1-2-1-2c-1.1-2.6-14.2,5.2-16,14c-1.5,7.5,3,5,3,5
	l15-5l-1,1c0,0-11.6,7.8-16,8C386.4,182,389.5,167.5,397.5,161.5z"/>
<path class="st1" d="M517.5,251.5c5.1-3.8,10-5,10-5s4-1,5,1s0,2-1,3c-0.4,0.4-1-2-1-2c-3.9-2.4-15.7,8.1-17,15
	c-2.3,12.4,17.4,0.1,19-1l-1,1c0,0-11.6,7.8-16,8C506.4,272,509.5,257.5,517.5,251.5z"/>
<path class="st1" d="M676.5,162.2c3.8-4.9,12-8.6,15-3.8c1.2,1.8,0,1.9-1,2.9c-0.4,0.4-1-1.9-1-1.9c-1.1-2.5-13.2,5.3-16,13.4
	c-4,11.5,11.2,4.5,23,0c2.5-0.9,11.3-4.5,19.6-7.8c8.6-3.5,25.7-5.7,25.4-5.6c-6,1-20.3,4.2-26,6.8
	C683.5,180.5,652.9,192.3,676.5,162.2z"/>
<path class="st1" d="M559.5,252.3c3.8-5.1,12-8.9,15-4c1.2,1.9,0,2-1,3c-0.4,0.4-1-2-1-2c-1.1-2.6-13.2,5.4-16,13.9
	c-4,11.9,5,3.4,19,0.4C576.9,263.3,533.6,286.5,559.5,252.3z"/>
<path class="st1" d="M628.5,347.5c3.8-5.1,12-9,15-4c1.2,1.9,0,2-1,3c-0.4,0.4-1-2-1-2c-1.1-2.6-13.2,5.5-16,14c-4,12,8,3,22,0
	C648.9,358.2,602.6,382.1,628.5,347.5z"/>
<path class="st1" d="M184.5,347.7c3.9-5.2,12-9.2,15-4.1c1.2,2,0,2-1,3.1c-0.4,0.4-1-2-1-2c-1.1-2.7-13.2,5.6-16,14.3
	c-4,12.3,12-4.1,26-4.1C208.3,354.8,157.6,384.2,184.5,347.7z"/>
<path class="st1" d="M434.5,158.7c-2.5-2.8-7.2-5.1-15,2.2c-7,6.5-12.6,16-8,19.5C419.9,186.8,443.3,168.7,434.5,158.7z"/>
<path class="st2" d="M427.5,160.5c-2.4,1.2-7,4-9,7s-3,4-5,10c-1.7,5.1,10.1,0.6,12-1c2.8-2.3,7-7,8-12s-1.6-5.2-3-5
	C429.7,159.6,428.2,160.1,427.5,160.5z"/>
<path class="st1" d="M442.5,157.5c-1.6,0.7-5,5.1-5,5.1c-4,4.1-53.2,85.3-60,73.8c-8.3-14,65.9-67.8,66-64.5l-1-1
	c-0.6-1.4-61,37.9-67,58.4c-4.4,14.9,11.8,14.4,22-2c5.4-8.6,20.1-30.7,27-41c4.8-7.1,20.1-28.4,20-28.7
	C444.4,157.3,442.7,157.4,442.5,157.5z"/>
<path class="st1" d="M454.5,175.5l-1,3c0,0,1.2,2.1,4,3c3,1,15-5,19-9c0.6-0.6,0-1,0-1s0.2-1.2,0-1c-4,4-15,10-17,9s-1-3-1-3l2-4
	l-1-1L454.5,175.5z"/>
<path class="st1" d="M488.5,156.5c0.7-0.7,6.7-0.8,6,0c-7,8-16,17-16,20s11.6-1.3,14-4c7.7-8.9,2.7,1.2-1,3c-5,4-20.9,11.1-18,1
	C475.9,168.3,484.5,160.5,488.5,156.5z"/>
<path class="st1" d="M447.5,341.5c0.7-0.7,6.7-0.8,6,0c-7,8-16,17-16,20s11.6-1.3,14-4c7.7-8.9,2.7,1.2-1,3c-5,4-20.9,11.1-18,1
	C434.9,353.3,443.5,345.5,447.5,341.5z"/>
<path class="st1" d="M465.5,341.5c0.7-0.7,6.7-0.8,6,0c-7,8-16,17-16,20s11.6-1.3,14-4c7.7-8.9,2.7,1.2-1,3c-5,4-20.9,11.1-18,1
	C452.9,353.3,461.5,345.5,465.5,341.5z"/>
<path class="st1" d="M482.5,341.5c0.7-0.7,6.7-0.8,6,0c-7,8-16,17-16,20s11.6-1.3,14-4c7.7-8.9,2.7,1.2-1,3c-5,4-20.9,11.1-18,1
	C469.9,353.3,478.5,345.5,482.5,341.5z"/>
<path class="st1" d="M505.5,156.5c0.7-0.7,6.7-0.7,6,0c-9,8-16,19-7,21c3.5,0.8,45.2-12.6,42-11c-6,3-27,9-32,11c-6.8,2.7-27,7-24-1
	S501.5,160.5,505.5,156.5z"/>
<path class="st1" d="M588.5,176.9c12-4.9,39-27.7,41-30.5c5-6.9,0,3.9,0,3.9c-9.6,7.9-35,28.5-52,31.5
	C571.6,182.9,586.5,177.8,588.5,176.9z"/>
<path class="st1" d="M12.5,361.5c12-5,39-28.1,41-31c5-7,0,4,0,4c-9.6,8-35,29-52,32C-4.4,367.5,10.5,362.3,12.5,361.5z"/>
<path class="st1" d="M657.5,158.7c-7-7.7-16.2,3.3-20,9c-11.5,17.6,3.3,16.8,11,7.7C648.5,175.5,660.2,161.7,657.5,158.7z"/>
<path class="st2" d="M650.5,159.5c-6.2,0.8-16.2,15.4-11,18C643.5,179.5,665.5,157.5,650.5,159.5z"/>
<path class="st1" d="M660.5,156.5l-6,10.3l-6,8.6c0,0-4,8.6,7,6.1s18-13.2,18-13.2c-0.2,2.5-20.5,12.7-20,7.1c0.5-5.8,7-13,11-18.9
	C664.9,155.9,660.5,156.5,660.5,156.5z"/>
<path class="st1" d="M697.5,343.5c-7-7.5-16.2,3.2-20,8.7c-11.5,17,3.3,16.2,11,7.5C688.5,359.7,700.2,346.4,697.5,343.5z"/>
<path class="st1" d="M784.3,343.1c-7.7-6.3-15.6,4.8-18.6,10.6c-9.4,17.5,5,15,11.6,5.9C777.2,359.5,787.3,345.6,784.3,343.1z"/>
<path class="st2" d="M690.5,343.5c-6.2,0.8-16.2,15.4-11,18C683.5,363.5,705.5,341.5,690.5,343.5z"/>
<path class="st2" d="M777.5,344.5c-6.2,0.8-16.2,15.4-11,18C770.5,364.5,792.5,342.5,777.5,344.5z"/>
<path class="st1" d="M700.5,340.5l-6,10.5l-6,8.7c0,0-4,8.7,7,6.2c11-2.5,18-13.4,18-13.4c-0.2,2.5-20.5,12.9-20,7.2
	c0.5-5.9,7-13.2,11-19.2C704.9,339.9,700.5,340.5,700.5,340.5z"/>
<path class="st1" d="M424.5,343.6c-7-7.5-16.2,3.2-20,8.8c-11.5,17.1,3.3,16.3,11,7.5C415.5,359.9,427.2,346.5,424.5,343.6z"/>
<path class="st2" d="M417.5,344.5c-6.2,0.8-16.2,15.4-11,18C410.5,364.5,432.5,342.5,417.5,344.5z"/>
<path class="st1" d="M429,341.3l-6.8,9.9l-6.7,8.2c0,0-4.7,8.3,6.3,6.8c11-1.5,18.9-11.7,18.9-11.7c-0.4,2.5-21.3,11-20.3,5.4
	c1-5.8,8.1-12.5,12.6-18.1C433.4,341.1,429,341.3,429,341.3z"/>
<path class="st1" d="M242.5,248.6c-7-7.5-16.2,3.2-20,8.8c-11.5,17.1,3.3,16.3,11,7.5C233.5,264.9,245.2,251.5,242.5,248.6z"/>
<path class="st2" d="M235.5,247.5c-6.2,0.8-16.2,15.4-11,18C228.5,267.5,250.5,245.5,235.5,247.5z"/>
<path class="st1" d="M245.5,246.3l-6,9.8l-6,8.1c-3.3,6.1,10.7,11.4,35-0.2c28.7-13.7,31-5.6,32-6.5c2.1-2-8.9-4.7-21,0
	c-36,14-41.3,9.8-41,6.7c0.5-5.5,7-12.3,11-17.9C249.9,245.7,245.5,246.3,245.5,246.3z"/>
<path class="st1" d="M752.5,158.5"/>
<path class="st1" d="M195.5,255.5c0,0-21,11-28,13s-8,3-8,3s9-1,17-5s17-8,17-8L195.5,255.5z"/>
<path class="st1" d="M201.5,246.5c-5,5.4-12,15.1-18,23.7c-0.8,1.1,4.2,1,5,0c4.8-6.4,11.8-17.2,18-23.7
	C207.4,245.6,202.4,245.6,201.5,246.5z"/>
<path class="st1" d="M214.5,246.5c-2.9,3.2-6.6,7.7-10.3,12.8c-11,15.3,5.3,15,17.3,2.2c2.2-2.4-15.1,7.6-16,5.4
	c-1.3-3.3,10.3-16.6,14-20.4C220.4,245.6,215.4,245.6,214.5,246.5z"/>
<path class="st1" d="M196.5,256.5c0,0,3,4,11,0s-1,2-1,2s-11,4-11-1S196.5,256.5,196.5,256.5z"/>
<path class="st1" d="M381.5,349.5c0,0-21,11-28,13s-8,3-8,3s9-1,17-5s17-8,17-8L381.5,349.5z"/>
<path class="st1" d="M385.5,341.5c-5,5.4-12,15.1-18,23.7c-0.8,1.1,4.2,1,5,0c4.8-6.4,11.8-17.2,18-23.7
	C391.4,340.6,386.4,340.6,385.5,341.5z"/>
<path class="st1" d="M398.5,341.5c-2.9,3.2-6.6,7.7-10.3,12.8c-11,15.3,5.3,15,17.3,2.2c2.2-2.4-15.1,7.6-16,5.4
	c-1.3-3.3,10.3-16.6,14-20.4C404.4,340.6,399.4,340.6,398.5,341.5z"/>
<path class="st1" d="M380.5,352.5c0,0,3,4,11,0s-1,2-1,2s-11,4-11-1S380.5,352.5,380.5,352.5z"/>
<path class="st1" d="M340.5,270.5c11-3.5,13.8-1.4,39-22c5.4-4.5,11.4-2.2,10,0.7c-1.4,2.8-2,4.6-2,4.6l-2,1.2c0,0,2-3.5,1-5.8
	s-7,2.3-7,2.3s-25.7,17.2-36,19C330.5,272.8,340.5,270.5,340.5,270.5z"/>
<path class="st1" d="M432.5,250.9c-16.3,12.2-9.2,32,12,9.8c1.4-1.5,8.9-9.9,6-13.1c-4-4.4-13.1,1-8,6.5c0.7,0.8,3,0.4,3,1.1
	c0,2.2-0.6,4-6,8.7c-12.4,11.1-16.2-2.9-4-12C436.2,251.5,433.2,250.4,432.5,250.9z"/>
<path class="st1" d="M659,250.9c-18,12.3-10.1,32.3,13.2,9.9c1.5-1.5,4.5-10.1,1.3-13.4c-4.4-4.4-9.6,2.5-4,8
	c0.8,0.8,3.8-0.9,3.8-0.1c0,2.2-0.7,4-6.6,8.8c-13.7,11.2-17.8-2.9-4.4-12.1C663,251.6,659.7,250.5,659,250.9z"/>
<path class="st1" d="M446.5,254.5c2,0.4,2.7-2.8,2-4C446.8,247.4,443.3,253.8,446.5,254.5z"/>
<path class="st1" d="M667.5,249.5"/>
<path class="st1" d="M448.5,257.5c3,0,7-1,9-2s3.8-3,5-3c0.4,0,0,1,0,1s-1.4,1.4-2,2c-2,2-11,5-14,4
	C445.8,259.3,447.8,257.5,448.5,257.5z"/>
<g>
	<path d="M343.1,140.1c1.2-1.2,2.5-2.8,3.1-3.9c1.3-2.4,8.8-14.5,8.9-14.6c0.2-0.3,18.9-29.3,25.5-41.5c1.4-2.5,10.5-16.2,13.5-19.2
		c0.3-0.3,0.6-0.5,1-0.5c0.5,0,1,0.3,1.1,0.7c0.1,0.3-0.6,1.9-1.4,3.3l-7.6,12.2c0,0-5.9,10.1-7.8,13.5c-4.1,7.3-9.7,15.4-16.8,25.7
		c-1.8,2.6-3.6,5.3-5.6,8.2C348.7,136,346.7,137.9,343.1,140.1z"/>
	<path d="M395.1,60.9c0.3,0,0.6,0.2,0.6,0.3c0,0.4-0.7,1.8-1.4,2.9l-7.6,12.2c-0.1,0.1-5.9,10.1-7.8,13.5
		c-4.1,7.2-9.7,15.4-16.8,25.7c-1.8,2.6-3.6,5.3-5.6,8.2c-5.4,7.9-8.1,11.4-10.3,13.5c0.2-0.3,0.3-0.5,0.5-0.8
		c1.3-2.4,8.8-14.5,8.9-14.6c0.2-0.3,18.9-29.3,25.5-41.5c1.4-2.5,10.5-16.1,13.4-19.1C394.7,61,394.9,60.9,395.1,60.9 M395.1,59.9
		c-0.5,0-0.9,0.2-1.4,0.6c-3.1,3.1-12.2,16.9-13.6,19.3c-6.6,12.3-25.5,41.5-25.5,41.5s-7.6,12.2-8.9,14.6c-1.2,2.2-5.4,6.1-5,6.1
		c0,0,0.1,0,0.3-0.1c5.5-3.2,6.4-3.1,16.4-17.6c9.9-14.5,17.3-24.9,22.5-34c1.9-3.4,7.8-13.5,7.8-13.5l7.6-12.2c0,0,1.8-2.9,1.5-3.8
		C396.5,60.4,395.9,59.9,395.1,59.9L395.1,59.9z"/>
</g>
<g>
	<path d="M400,85.4c-0.1,0-0.2,0-0.3,0c-1.5-0.1-2.6-0.9-3.2-2.3c-0.9-2-0.4-4.7,1.4-7c1.2-1.6,2.6-2.9,3.8-4.1
		c1.7-1.6,3.4-3.2,4.1-5.3c0.4-1,0.4-1.7,0-2.2c-0.2-0.3-0.5-0.6-1.3-0.6c-1,0-2.3,0.6-2.4,0.7l-14.5,7.7l3.8-6.6l11.4-3.9
		c0,0,2.7-1,4.6-1c0.7,0,1,0.1,1.2,0.2c0.7,0.4,1.1,0.9,1.1,1.6c0.2,1.2-0.6,3.7-5.2,8.4c-6,6.1-6.2,9-6.1,9.7c-0.1,0.3,0,0.7,0.2,1
		c0.3,0.5,1,1.2,2.8,1.2c0.5,0,1-0.1,1.5-0.2c1-0.2,4.4-1.9,7.7-3.6c-0.1,0.1-0.2,0.2-0.3,0.3C408.8,82.3,403.1,85.4,400,85.4z"/>
	<path d="M407.5,61.4c0.6,0,0.8,0.1,0.9,0.1c0.7,0.4,0.9,0.9,0.9,1.3c0.1,0.9-0.4,3.2-5.1,8c-5.8,6-6.3,9-6.2,10
		c-0.1,0.4,0,0.9,0.3,1.3c0.3,0.6,1.2,1.5,3.3,1.5c0.5,0,1-0.1,1.6-0.2c0.8-0.2,3-1.2,5.5-2.4c-2.5,2.1-6.5,3.9-8.7,3.9
		c-0.1,0-0.2,0-0.3,0c-1.3-0.1-2.3-0.8-2.8-2c-0.8-1.8-0.3-4.3,1.3-6.5c1.2-1.6,2.5-2.8,3.8-4c1.8-1.7,3.5-3.3,4.3-5.4
		c0.4-1.2,0.4-2,0-2.7c-0.2-0.4-0.7-0.8-1.7-0.8c-1.1,0-2.5,0.6-2.7,0.7L389,71.1l2.8-4.9l11.2-3.9
		C403.1,62.3,405.7,61.4,407.5,61.4 M407.5,60.4c-2,0-4.8,1-4.8,1l-11.6,4l-4.8,8.3l16-8.6c0,0,1.2-0.6,2.2-0.6
		c0.8,0,1.4,0.4,0.8,2.1c-1.3,3.4-5,5.3-7.9,9.2c-3.5,4.7-1.8,9.7,2.2,10.1c0.1,0,0.2,0,0.4,0c3.2,0,9-3,11-5.9c1.2-1.8,7-5,7-5
		s-13,7.1-15,7.5c-0.5,0.1-1,0.1-1.4,0.1c-2.3,0-2.7-1.4-2.5-1.7c0,0-0.8-2.5,5.9-9.4c6.7-6.9,6-9.6,4-10.8
		C408.6,60.5,408.1,60.4,407.5,60.4L407.5,60.4z"/>
</g>
<path class="st1" d="M376.5,71.5c3,0,7-1,9-2s3.8-3,5-3c0.4,0,0,1,0,1s-1.4,1.4-2,2c-2,2-11,5-14,4
	C373.8,73.3,375.8,71.5,376.5,71.5z"/>
<path class="st1" d="M642.5,255.5l4,1c0,0,7,1,9-1c0.2-0.2-2,2-2,2h-5l-7-1v-1H642.5z"/>
<path class="st1" d="M685.5,343.5c0.2-0.2-1.6,3.6-2.8,4.1c-8.4,3.3-16.2,3.9-16.2,3.9S678.1,350.7,685.5,343.5z"/>
<path class="st1" d="M669.5,255.5c2.3,1.6,8.4-0.9,11-2c3.5-1.5,37-17,37-17s-45,20-46.6,16c-0.4-1.1-2.7-2.7-2.4-2
	C669,251.7,668.5,254.8,669.5,255.5z"/>
<path class="st1" d="M52.5,350.5c8.3,4.3,40-12,40-12s-33.5,13.1-40,8C51.7,345.9,51.6,350,52.5,350.5z"/>
<path class="st1" d="M111.5,366.5c0,0,12.2-4.9,22-11.8c7.1-5,11.4-11.8,16-14.7c1.1-0.7,1,4.9,2,5.9c1.9,1.9,7.6-0.6,5,2
	c-19.2,18.8-5.7,15.9,9,4.9c-3.5,11-38.8,26.5-16-2.9c0.3-0.4-1.6-0.8-2-2c-0.5-1.5,0.4-3.7-1-2.9c-2.9,1.6-7.4,7.7-14,11.8
	C123.1,362.5,111.5,366.5,111.5,366.5z"/>
<path class="st1" d="M259.5,341.5c-1,0-3.9,3.1-8,9.1c-8.9,12.9,4,24.4,13,5.1c3.1-6.6-5.2-5.7-5-4.1c0.1,0.9,1.6,0.8,2.4,1.5
	c0.7,0.6,0.9,1.8-0.4,4.6c-3,6.1-12.3,6.5-6-3c4-6.1,7-10.2,9-13.2C265.1,340.7,259.5,341.5,259.5,341.5z"/>
<path class="st1" d="M750.7,341.4c-1.1,0-4.4,3.3-9.1,9.6c-10.1,13.5,4.6,25.5,14.8,5.3c3.5-6.9-6-5.9-5.7-4.2
	c0.1,0.9,1.8,0.8,2.8,1.6c0.8,0.6,1.1,1.9-0.5,4.8c-3.4,6.4-14,6.8-6.8-3.2c4.6-6.4,8-10.6,10.2-13.8
	C757,340.5,750.7,341.4,750.7,341.4z"/>
<path class="st1" d="M798.6,340.7c-1-0.1-3.9,3-8.3,9c-9.5,12.9,2,25.7,12.1,6.2c3.5-6.7-4.6-6.3-4.5-4.6c0.1,0.9,1.5,0.9,2.2,1.8
	c0.6,0.7,0.8,1.9-0.8,4.7c-3.3,6.1-12.2,5.9-5.5-3.6c4.3-6.1,7.5-10.1,9.6-13.1C804,340.2,798.6,340.7,798.6,340.7z"/>
<path class="st1" d="M599.5,366.5c20-9,16-8,26-15c1.2-0.8-0.1,4.5-1,5C620.5,358.5,599.5,366.5,599.5,366.5z"/>
<path class="st1" d="M753,352.8c0,0,4.3,0.7,8.1-1.3s12.9-6.6,12.9-6.6l-0.6,1.6l-9.5,5l-7.6,3L753,352.8z"/>
<path class="st1" d="M786.5,353.5c3-5,11-11,11-11s-0.2,7-2,7C793.5,349.5,785.2,355.6,786.5,353.5z"/>
<path class="st1" d="M782.5,345.5c5-5,25-70,55-59c6.4,2.3,14-1.8,20-2c0.6,0-12.2,7.7-21,5c-16-5-26,7-52.3,57.8
	C783.9,347.9,782.5,345.5,782.5,345.5z"/>
<path class="st1" d="M516.5,341.5c0.7-0.7,6.7-0.7,6,0c-7,7.9-16,16.9-16,19.9c0,3,11.6-1.3,14-4c7.7-8.8,2.7,1.2-1,3
	c-5,4-20.9,11-18,1C503.9,353.3,512.5,345.5,516.5,341.5z"/>
<path class="st1" d="M535,341.5c0.7-0.7,6.7-0.7,6,0c-9.2,8.2-21.9,23-11.5,22c5-0.5-11,7-9.5-1.9C521.4,353.2,531,345.5,535,341.5z
	"/>
<path class="st1" d="M530.8,331.4c2-2.9,1.3-7.7,14-10c5-0.9,14-3,15-4s-4,6-12,6C538.1,323.4,530.4,332,530.8,331.4z"/>
<path class="st1" d="M728.5,344.1c-2.5-2.7-7.2-4.9-15,2.1c-7,6.3-12.6,15.5-8,18.9C713.9,371.4,737.3,353.8,728.5,344.1z"/>
<path class="st2" d="M721.5,344.1c-2.4,1.3-7,4.2-9,7.4s-3,4.2-5,10.5c-1.7,5.4,10.1,0.6,12-1.1c2.8-2.4,7-7.4,8-12.6
	s-1.6-5.5-3-5.3C723.7,343.2,722.2,343.7,721.5,344.1z"/>
<path class="st1" d="M737.5,342c-1.6,0.7-5,5-5,5c-4,4-53.2,83.3-60,72c-8.3-13.7,69.9-69.1,70-66l1-2c-0.6-1.3-66,41.3-73,61
	c-6.3,17.7,10.3,16.5,22-2c5.4-8.4,20.1-30,27-40c4.8-7,20.1-27.7,20-28C739.4,341.8,737.7,341.9,737.5,342z"/>
<g>
	<path d="M454.7,86c-0.5,0-1,0-1.5-0.1c-2.6-0.4-4.4-1.6-5.2-3.6c-1.7-4.1,0.7-11.4,6.7-20.1c4.7-6.9,9.9-14.2,14.5-20.7
		c3.5-5,6.9-9.8,9.5-13.5c4.4-6.5,16.5-21.7,19.1-24.4c2.1-2.1,4.1-3.4,5.4-3.4c0.5,0,0.9,0.2,1.3,0.6c0.7,0.7,1.3,2.6,0.8,7.3
		c-1.2,10.8-15.7,25.6-22.7,32.7c-2.8,2.8-6.8,6.2-10.7,9.5c-2.8,2.4-5.5,4.6-7.3,6.4c-4.9,4.7-9.8,10.5-12.1,21.1
		c-0.6,3-0.5,5,0.4,6.1c0.6,0.7,1.4,1,2.4,1c2.3,0,5-1.7,5.1-1.8c0.2-0.1,3.6-2.6,5-5.1c0.9-1.5,1.5-2.7,2-3.5
		c1.1-1.9,1.3-2.1,1-2.5c-0.1-0.2-0.3-0.3-0.6-0.3c-0.1,0-0.2,0-0.3,0c-0.1,0-0.3,0-0.5,0c-0.6,0-1.2-0.2-1.8-0.5
		c-2.4-1.5-3-2.8-3-3.6c0-0.9,0.4-1.5,0.7-1.7c0.1-0.1,0.5-0.4,1.3-0.4c0.5,0,1.1,0.2,1.8,0.5c2,1,3.2,4.1,3.3,4.5
		c0,0.3,0,2.2-1.2,5.9C467.1,79.7,461,86,454.7,86z"/>
	<path d="M503.2,0.7L503.2,0.7c0.4,0,0.7,0.1,0.9,0.4c0.5,0.5,1.2,2.1,0.7,6.9c-1.1,10.6-15.6,25.4-22.5,32.4
		c-2.7,2.8-6.7,6.2-10.6,9.5c-2.8,2.4-5.5,4.6-7.3,6.4c-5,4.8-10,10.6-12.3,21.3c-0.7,3.1-0.5,5.3,0.5,6.6c0.5,0.6,1.3,1.2,2.8,1.2
		c2.4,0,5.2-1.8,5.4-1.9l0,0l0,0c0.1-0.1,3.6-2.7,5.1-5.2c0.9-1.5,1.5-2.6,2-3.5c0.1-0.2,0.2-0.4,0.3-0.6c-0.2,0.6-0.3,1.3-0.6,2
		c-1,3.2-6.9,9.2-13,9.2c-0.5,0-1,0-1.5-0.1c-2.5-0.4-4.1-1.5-4.8-3.3c-1.6-3.9,0.8-11.1,6.7-19.6c4.7-6.9,9.9-14.2,14.5-20.7
		c3.5-5,6.9-9.8,9.5-13.5c4.4-6.4,16.5-21.7,19.1-24.3C500.1,1.9,502,0.7,503.2,0.7 M464.2,66c0.5,0,1,0.1,1.5,0.4
		c1.6,0.8,2.7,3.2,3.1,4.2c0,0.1,0,0.4-0.1,0.9c-0.2-0.2-0.5-0.3-0.9-0.3c-0.1,0-0.2,0-0.4,0c-0.1,0-0.3,0-0.5,0
		c-0.3,0-0.9,0-1.5-0.4c-1.7-1-2.7-2.2-2.8-3.2c0-0.7,0.3-1.1,0.5-1.2l0,0l0,0C463.3,66.3,463.6,66,464.2,66 M503.2-0.3
		c-1.8,0-4.1,1.7-5.8,3.5c-2.7,2.7-14.8,18.1-19.2,24.5c-5.9,8.6-15.6,22-24,34.3s-10.7,22.9-1.2,24.5c0.5,0.1,1.1,0.1,1.6,0.1
		c6.6,0,12.9-6.5,14-9.9c1.4-4.2,1.2-6.1,1.2-6.1s-1.2-3.7-3.6-4.9c-0.8-0.4-1.5-0.5-2-0.5c-1.1,0-1.6,0.5-1.6,0.5
		c-0.9,0.7-2.2,3.4,2.4,6.1c0.8,0.5,1.5,0.6,2,0.6c0.4,0,0.7,0,0.9,0c0.6,0,0,0.6-2.9,5.6c-1.4,2.4-4.8,4.9-4.8,4.9
		s-2.7,1.7-4.8,1.7c-2,0-3.5-1.4-2.4-6.6c2.4-11,7.7-16.7,12-20.8c4.4-4.1,13.2-11,18-15.9c7-7.2,21.6-22.1,22.8-33
		C506.5,1.7,505.2-0.3,503.2-0.3L503.2-0.3z"/>
</g>
<g>
	<path d="M630.7,271c-0.5,0-1,0-1.5-0.1c-2.6-0.4-4.4-1.6-5.2-3.6c-1.7-4.1,0.7-11.4,6.7-20.1c4.7-6.9,9.9-14.3,14.5-20.7
		c3.5-5,6.9-9.8,9.5-13.5c4.4-6.5,16.5-21.7,19.1-24.4c2.1-2.1,4.1-3.4,5.4-3.4c0.5,0,0.9,0.2,1.3,0.6c0.7,0.7,1.3,2.6,0.8,7.3
		c-1.2,10.8-15.7,25.6-22.7,32.7c-2.7,2.8-6.8,6.2-10.7,9.5c-2.8,2.4-5.5,4.6-7.3,6.4c-4.9,4.7-9.8,10.5-12.1,21.1
		c-0.6,3-0.5,5,0.4,6.1c0.6,0.7,1.4,1,2.4,1c2.3,0,5-1.7,5.1-1.8c0.2-0.1,3.6-2.6,5-5.1c0.9-1.5,1.5-2.7,2-3.5
		c1.1-1.9,1.3-2.1,1-2.6c-0.1-0.2-0.3-0.3-0.6-0.3c-0.1,0-0.2,0-0.3,0c-0.1,0-0.3,0-0.5,0c-0.6,0-1.2-0.2-1.8-0.5
		c-2.4-1.5-3-2.8-3-3.6c0-0.9,0.4-1.5,0.7-1.7c0.1-0.1,0.5-0.4,1.3-0.4c0.5,0,1.1,0.2,1.8,0.5c2,1,3.2,4.1,3.3,4.5
		c0,0.3,0,2.2-1.2,5.9C643.1,264.7,637,271,630.7,271z"/>
	<path d="M679.2,185.7L679.2,185.7c0.4,0,0.7,0.1,0.9,0.4c0.5,0.5,1.2,2.1,0.7,6.9c-1.1,10.6-15.6,25.4-22.5,32.4
		c-2.7,2.8-6.7,6.2-10.6,9.5c-2.8,2.4-5.5,4.6-7.3,6.4c-5,4.8-10,10.6-12.3,21.3c-0.7,3.1-0.5,5.3,0.5,6.6c0.5,0.6,1.3,1.2,2.8,1.2
		c2.4,0,5.2-1.8,5.4-1.9l0,0l0,0c0.1-0.1,3.6-2.7,5.1-5.2c0.9-1.5,1.5-2.6,2-3.5c0.1-0.2,0.2-0.4,0.3-0.6c-0.2,0.6-0.3,1.3-0.6,2
		c-1,3.2-6.9,9.2-13,9.2c-0.5,0-1,0-1.5-0.1c-2.5-0.4-4.1-1.5-4.8-3.3c-1.6-3.9,0.8-11.1,6.7-19.6c4.7-6.9,9.9-14.2,14.5-20.7
		c3.5-5,6.9-9.8,9.5-13.5c4.4-6.4,16.5-21.7,19.1-24.3C676.1,186.9,678,185.7,679.2,185.7 M640.2,251c0.5,0,1,0.1,1.5,0.4
		c1.6,0.8,2.7,3.2,3.1,4.2c0,0.1,0,0.4-0.1,0.9c-0.2-0.2-0.5-0.3-0.9-0.3c-0.1,0-0.2,0-0.4,0c-0.1,0-0.3,0-0.5,0
		c-0.3,0-0.9,0-1.5-0.4c-1.7-1-2.7-2.2-2.8-3.2c0-0.7,0.3-1.1,0.5-1.2l0,0l0,0C639.3,251.3,639.6,251,640.2,251 M679.2,184.7
		c-1.8,0-4.1,1.7-5.8,3.5c-2.7,2.7-14.8,18.1-19.2,24.5c-5.9,8.6-15.6,22-24,34.3c-8.4,12.2-10.7,22.9-1.2,24.5
		c0.5,0.1,1.1,0.1,1.6,0.1c6.6,0,12.9-6.5,14-9.9c1.4-4.2,1.2-6.1,1.2-6.1s-1.2-3.7-3.6-4.9c-0.8-0.4-1.5-0.5-2-0.5
		c-1.1,0-1.6,0.5-1.6,0.5c-0.9,0.7-2.2,3.4,2.4,6.1c0.8,0.5,1.5,0.6,2,0.6c0.4,0,0.7,0,0.9,0c0.6,0,0,0.6-2.9,5.6
		c-1.4,2.4-4.8,4.9-4.8,4.9s-2.7,1.7-4.8,1.7c-2,0-3.5-1.4-2.4-6.6c2.4-11,7.7-16.7,12-20.8c4.4-4.1,13.2-11,18-15.9
		c7-7.2,21.6-22.1,22.8-33C682.5,186.7,681.2,184.7,679.2,184.7L679.2,184.7z"/>
</g>
<g>
	<path d="M653.7,366c-0.5,0-1,0-1.5-0.1c-2.6-0.4-4.4-1.6-5.2-3.6c-1.7-4.1,0.7-11.4,6.7-20.1c4.7-6.9,9.9-14.2,14.5-20.7
		c3.5-5,6.9-9.8,9.5-13.5c4.5-6.5,16.5-21.7,19.1-24.4c2.1-2.1,4.1-3.4,5.4-3.4c0.5,0,0.9,0.2,1.3,0.6c0.7,0.7,1.3,2.6,0.8,7.3
		c-1.2,10.8-15.7,25.6-22.7,32.7c-2.8,2.8-6.8,6.2-10.7,9.5c-2.8,2.4-5.5,4.6-7.3,6.4c-4.9,4.7-9.8,10.5-12.1,21.1
		c-0.6,3-0.5,5,0.4,6.1c0.6,0.7,1.4,1,2.4,1c2.3,0,5-1.7,5.1-1.8c0.2-0.1,3.6-2.6,5-5.1c0.9-1.5,1.5-2.7,2-3.5
		c1.1-1.9,1.3-2.1,1-2.5c-0.1-0.2-0.3-0.3-0.6-0.3c-0.1,0-0.2,0-0.3,0c-0.1,0-0.3,0-0.5,0c-0.6,0-1.2-0.2-1.8-0.5
		c-2.4-1.5-3-2.8-3-3.6c0-0.9,0.4-1.5,0.7-1.7c0.1-0.1,0.5-0.4,1.3-0.4c0.5,0,1.1,0.2,1.8,0.5c2,1,3.2,4.1,3.3,4.5
		c0,0.3,0,2.2-1.2,5.9C666.1,359.7,660,366,653.7,366z"/>
	<path d="M702.2,280.7L702.2,280.7c0.4,0,0.7,0.1,0.9,0.4c0.5,0.5,1.2,2.1,0.7,6.9c-1.1,10.6-15.6,25.4-22.5,32.4
		c-2.7,2.8-6.7,6.2-10.6,9.5c-2.8,2.4-5.5,4.6-7.3,6.4c-5,4.8-10,10.6-12.3,21.3c-0.7,3.1-0.5,5.3,0.5,6.6c0.5,0.6,1.3,1.2,2.8,1.2
		c2.4,0,5.2-1.8,5.4-1.9l0,0l0,0c0.1-0.1,3.6-2.7,5.1-5.2c0.9-1.5,1.5-2.6,2-3.5c0.1-0.2,0.2-0.4,0.3-0.6c-0.2,0.6-0.3,1.3-0.6,2
		c-1,3.2-6.9,9.2-13,9.2c-0.5,0-1,0-1.5-0.1c-2.5-0.4-4.1-1.5-4.8-3.3c-1.6-3.9,0.8-11.1,6.7-19.6c4.7-6.9,9.9-14.2,14.5-20.7
		c3.5-5,6.9-9.8,9.5-13.5c4.4-6.4,16.5-21.7,19.1-24.3C699.1,281.9,701,280.7,702.2,280.7 M663.2,346c0.5,0,1,0.1,1.5,0.4
		c1.6,0.8,2.7,3.2,3.1,4.2c0,0.1,0,0.4-0.1,0.9c-0.2-0.2-0.5-0.3-0.9-0.3c-0.1,0-0.2,0-0.4,0c-0.1,0-0.3,0-0.5,0
		c-0.3,0-0.9,0-1.5-0.4c-1.7-1-2.7-2.2-2.8-3.2c0-0.7,0.3-1.1,0.5-1.2l0,0l0,0C662.3,346.3,662.6,346,663.2,346 M702.2,279.7
		c-1.8,0-4.1,1.7-5.8,3.5c-2.7,2.7-14.8,18.1-19.2,24.5c-5.9,8.6-15.6,22-24,34.3c-8.4,12.2-10.7,22.9-1.2,24.5
		c0.5,0.1,1.1,0.1,1.6,0.1c6.6,0,12.9-6.5,14-9.9c1.4-4.2,1.2-6.1,1.2-6.1s-1.2-3.7-3.6-4.9c-0.8-0.4-1.5-0.5-2-0.5
		c-1.1,0-1.6,0.5-1.6,0.5c-0.9,0.7-2.2,3.4,2.4,6.1c0.8,0.5,1.5,0.6,2,0.6c0.4,0,0.7,0,0.9,0c0.6,0,0,0.6-2.9,5.6
		c-1.4,2.4-4.8,4.9-4.8,4.9s-2.7,1.7-4.8,1.7c-2,0-3.5-1.4-2.4-6.6c2.4-11,7.7-16.7,12-20.8c4.4-4.1,13.2-11,18-15.9
		c7-7.2,21.6-22.1,22.8-33C705.5,281.7,704.2,279.7,702.2,279.7L702.2,279.7z"/>
</g>
<g>
	<path d="M619.7,181c-0.5,0-1,0-1.5-0.1c-2.6-0.4-4.4-1.6-5.2-3.6c-1.7-4.1,0.7-11.4,6.7-20.1c4.7-6.9,9.9-14.3,14.5-20.7
		c3.5-5,6.9-9.8,9.5-13.5c4.4-6.5,16.5-21.7,19.1-24.4c2.1-2.1,4.1-3.4,5.4-3.4c0.5,0,0.9,0.2,1.3,0.6c0.7,0.7,1.3,2.6,0.8,7.3
		c-1.2,10.8-15.7,25.6-22.7,32.7c-2.7,2.8-6.8,6.2-10.7,9.5c-2.8,2.4-5.5,4.6-7.3,6.4c-4.9,4.7-9.8,10.5-12.1,21.1
		c-0.6,3-0.5,5,0.4,6.1c0.6,0.7,1.4,1,2.4,1c2.3,0,5-1.7,5.1-1.8c0.2-0.1,3.6-2.6,5-5.1c0.9-1.5,1.5-2.7,2-3.5
		c1.1-1.9,1.3-2.1,1-2.6c-0.1-0.2-0.3-0.3-0.6-0.3c-0.1,0-0.2,0-0.3,0c-0.1,0-0.3,0-0.5,0c-0.6,0-1.2-0.2-1.8-0.5
		c-2.4-1.5-3-2.8-3-3.6c0-0.9,0.4-1.5,0.7-1.7c0.1-0.1,0.5-0.4,1.3-0.4c0.5,0,1.1,0.2,1.8,0.5c2,1,3.2,4.1,3.3,4.5
		c0,0.3,0,2.2-1.2,5.9C632.1,174.7,626,181,619.7,181z"/>
	<path d="M668.2,95.7L668.2,95.7c0.4,0,0.7,0.1,0.9,0.4c0.5,0.5,1.2,2.1,0.7,6.9c-1.1,10.6-15.6,25.4-22.5,32.4
		c-2.7,2.8-6.7,6.2-10.6,9.5c-2.8,2.4-5.5,4.6-7.3,6.4c-5,4.8-10,10.6-12.3,21.3c-0.7,3.1-0.5,5.3,0.5,6.6c0.5,0.6,1.3,1.2,2.8,1.2
		c2.4,0,5.2-1.8,5.4-1.9l0,0l0,0c0.1-0.1,3.6-2.7,5.1-5.2c0.9-1.5,1.5-2.6,2-3.5c0.1-0.2,0.2-0.4,0.3-0.6c-0.2,0.6-0.3,1.3-0.6,2
		c-1,3.2-6.9,9.2-13,9.2c-0.5,0-1,0-1.5-0.1c-2.5-0.4-4.1-1.5-4.8-3.3c-1.6-3.9,0.8-11.1,6.7-19.6c4.7-6.9,9.9-14.2,14.5-20.7
		c3.5-5,6.9-9.8,9.5-13.5c4.4-6.4,16.5-21.7,19.1-24.3C665.1,96.9,667,95.7,668.2,95.7 M629.2,161c0.5,0,1,0.1,1.5,0.4
		c1.6,0.8,2.7,3.2,3.1,4.2c0,0.1,0,0.4-0.1,0.9c-0.2-0.2-0.5-0.3-0.9-0.3c-0.1,0-0.2,0-0.4,0c-0.1,0-0.3,0-0.5,0
		c-0.3,0-0.9,0-1.5-0.4c-1.7-1-2.7-2.2-2.8-3.2c0-0.7,0.3-1.1,0.5-1.2l0,0l0,0C628.3,161.3,628.6,161,629.2,161 M668.2,94.7
		c-1.8,0-4.1,1.7-5.8,3.5c-2.7,2.7-14.8,18.1-19.2,24.5c-5.9,8.6-15.6,22-24,34.3c-8.4,12.2-10.7,22.9-1.2,24.5
		c0.5,0.1,1.1,0.1,1.6,0.1c6.6,0,12.9-6.5,14-9.9c1.4-4.2,1.2-6.1,1.2-6.1s-1.2-3.7-3.6-4.9c-0.8-0.4-1.5-0.5-2-0.5
		c-1.1,0-1.6,0.5-1.6,0.5c-0.9,0.7-2.2,3.4,2.4,6.1c0.8,0.5,1.5,0.6,2,0.6c0.4,0,0.7,0,0.9,0c0.6,0,0,0.6-2.9,5.6
		c-1.4,2.4-4.8,4.9-4.8,4.9s-2.7,1.7-4.8,1.7c-2,0-3.5-1.4-2.4-6.6c2.4-11,7.7-16.7,12-20.8c4.4-4.1,13.2-11,18-15.9
		c7-7.2,21.6-22.1,22.8-33C671.5,96.7,670.2,94.7,668.2,94.7L668.2,94.7z"/>
</g>
<g>
	<path d="M41.7,366c-0.5,0-1,0-1.5-0.1c-2.6-0.4-4.4-1.6-5.2-3.6c-1.7-4.1,0.7-11.4,6.7-20.1c4.7-6.9,9.9-14.2,14.5-20.7
		c3.5-5,6.9-9.8,9.5-13.5c4.4-6.5,16.5-21.7,19.1-24.4c2.1-2.1,4.1-3.4,5.4-3.4c0.5,0,0.9,0.2,1.3,0.6c0.7,0.7,1.3,2.6,0.8,7.3
		c-1.2,10.8-15.7,25.6-22.7,32.7c-2.8,2.8-6.8,6.2-10.7,9.5c-2.8,2.4-5.5,4.6-7.3,6.4c-4.9,4.7-9.8,10.5-12.1,21.1
		c-0.6,3-0.5,5,0.4,6.1c0.6,0.7,1.4,1,2.4,1c2.3,0,5-1.7,5.1-1.8c0.2-0.1,3.6-2.6,5-5.1c0.9-1.5,1.5-2.7,2-3.5
		c1.1-1.9,1.3-2.1,1-2.5c-0.1-0.2-0.3-0.3-0.6-0.3c-0.1,0-0.2,0-0.3,0c-0.1,0-0.3,0-0.5,0c-0.6,0-1.2-0.2-1.8-0.5
		c-2.4-1.5-3-2.8-3-3.6c0-0.9,0.4-1.5,0.7-1.7c0.1-0.1,0.5-0.4,1.3-0.4c0.5,0,1.1,0.2,1.8,0.5c2,1,3.2,4.1,3.3,4.5
		c0,0.3,0,2.2-1.2,5.9C54.1,359.7,48,366,41.7,366z"/>
	<path d="M90.2,280.7L90.2,280.7c0.4,0,0.7,0.1,0.9,0.4c0.5,0.5,1.2,2.1,0.7,6.9c-1.1,10.6-15.6,25.4-22.5,32.4
		c-2.7,2.8-6.7,6.2-10.6,9.5c-2.8,2.4-5.5,4.6-7.3,6.4c-5,4.8-10,10.6-12.3,21.3c-0.7,3.1-0.5,5.3,0.5,6.6c0.5,0.6,1.3,1.2,2.8,1.2
		c2.4,0,5.2-1.8,5.4-1.9l0,0l0,0c0.1-0.1,3.6-2.7,5.1-5.2c0.9-1.5,1.5-2.6,2-3.5c0.1-0.2,0.2-0.4,0.3-0.6c-0.2,0.6-0.3,1.3-0.6,2
		c-1,3.2-6.9,9.2-13,9.2c-0.5,0-1,0-1.5-0.1c-2.5-0.4-4.1-1.5-4.8-3.3c-1.6-3.9,0.8-11.1,6.7-19.6c4.7-6.9,9.9-14.2,14.5-20.7
		c3.5-5,6.9-9.8,9.5-13.5c4.4-6.4,16.5-21.7,19.1-24.3C87.1,281.9,89,280.7,90.2,280.7 M51.2,346c0.5,0,1,0.1,1.5,0.4
		c1.6,0.8,2.7,3.2,3.1,4.2c0,0.1,0,0.4-0.1,0.9c-0.2-0.2-0.5-0.3-0.9-0.3c-0.1,0-0.2,0-0.4,0c-0.1,0-0.3,0-0.5,0
		c-0.3,0-0.9,0-1.5-0.4c-1.7-1-2.7-2.2-2.8-3.2c0-0.7,0.3-1.1,0.5-1.2l0,0l0,0C50.3,346.3,50.6,346,51.2,346 M90.2,279.7
		c-1.8,0-4.1,1.7-5.8,3.5c-2.7,2.7-14.8,18.1-19.2,24.5c-5.9,8.6-15.6,22-24,34.3c-8.4,12.2-10.7,22.9-1.2,24.5
		c0.5,0.1,1.1,0.1,1.6,0.1c6.6,0,12.9-6.5,14-9.9c1.4-4.2,1.2-6.1,1.2-6.1s-1.2-3.7-3.6-4.9c-0.8-0.4-1.5-0.5-2-0.5
		c-1.1,0-1.6,0.5-1.6,0.5c-0.9,0.7-2.2,3.4,2.4,6.1c0.8,0.5,1.5,0.6,2,0.6c0.4,0,0.7,0,0.9,0c0.6,0,0,0.6-2.9,5.6
		c-1.4,2.4-4.8,4.9-4.8,4.9s-2.7,1.7-4.8,1.7c-2,0-3.5-1.4-2.4-6.6c2.4-11,7.7-16.7,12-20.8c4.4-4.1,13.2-11,18-15.9
		c7-7.2,21.6-22.1,22.8-33C93.5,281.7,92.2,279.7,90.2,279.7L90.2,279.7z"/>
</g>
<path class="st1" d="M423.4,61c0.6-0.7,5.8-0.7,5.2,0c-6.1,7.9-13.9,16.9-13.9,19.9c0,3,10.1-1.3,12.2-4c6.7-8.8,2.3,1.2-0.9,3
	c-4.3,4-18.2,11-15.6,1C412.4,72.8,419.9,65,423.4,61z"/>
<path class="st1" d="M439.4,61c0.6-0.7,5.9-0.7,5.2,0c-7.8,8-16.4,17.7-8.6,19.7c3.1,0.8,15-8.1,12.5-5.8
	c-5.2,4.9-24.7,16.8-22.2,6.1C428.3,72.8,435.9,65,439.4,61z"/>
<g>
	<path class="st3" d="M466.1,53.2c0.1-0.4,0.5-1.2,0.9-1.9c0.5-0.4,1.8-2.1,7.1-9.7c8.4-11.8,25.8-36.2,28.9-36.2
		c5,11.1-34.2,46.4-36.5,47.6C466.4,53.1,466.2,53.1,466.1,53.2z"/>
	<path d="M502.8,6c1.4,4.5-4,13.8-15.5,26.4c-8.2,9-16.8,16.8-19.9,19.3c0,0,0.1-0.1,0.1-0.1c0.7-0.7,2.3-2.8,7.1-9.7
		c4.7-6.6,11.1-15.6,16.8-23C499.2,8.8,501.9,6.5,502.8,6 M503.1,4.9c-4.7,0-35.5,46-36.3,46c0,0,0,0,0,0c0,0-1.9,2.8-0.8,2.8
		c0.2,0,0.4-0.1,0.8-0.3c2.5-1.3,41.9-36.8,36.8-48.2C503.5,5,503.3,4.9,503.1,4.9L503.1,4.9z"/>
</g>
<g>
	<path class="st3" d="M637.5,141.6c-0.2-0.2,0-1.6,0.4-2.8c0.5-0.5,1.7-2.1,5.5-7.5c6.1-8.5,20.3-28.5,22.6-28.5
		c3.8,8.6-26.3,37.8-28.3,38.8C637.6,141.6,637.5,141.6,637.5,141.6L637.5,141.6z"/>
	<path d="M665.8,103.4c0.8,3.5-3.5,11.1-11.9,21c-6.6,7.8-13.9,14.7-15.9,16.3c0.1-0.5,0.2-1.1,0.4-1.7c0.7-0.7,2-2.6,5.5-7.5
		C649.5,123.6,662.3,105.6,665.8,103.4 M666.1,102.2c-3.7,0-28,36.3-28.6,36.3c0,0,0,0,0,0c0,0-1.2,3.6,0,3.6c0.1,0,0.3,0,0.5-0.1
		c2-1,32.5-30.5,28.5-39.5C666.4,102.3,666.3,102.2,666.1,102.2L666.1,102.2z"/>
</g>
<g>
	<path class="st3" d="M649.5,231.6c-0.2-0.2,0-1.6,0.4-2.8c0.5-0.5,1.7-2.1,5.5-7.5c6.1-8.5,20.3-28.5,22.6-28.5
		c3.8,8.6-26.3,37.8-28.3,38.8C649.6,231.6,649.5,231.6,649.5,231.6L649.5,231.6z"/>
	<path d="M677.8,193.4c0.8,3.5-3.5,11.1-11.9,21c-6.6,7.8-13.9,14.7-15.9,16.3c0.1-0.5,0.2-1.1,0.4-1.7c0.7-0.7,2-2.6,5.5-7.5
		C661.5,213.6,674.3,195.6,677.8,193.4 M678.1,192.2c-3.7,0-28,36.3-28.6,36.3c0,0,0,0,0,0c0,0-1.2,3.6,0,3.6c0.1,0,0.3,0,0.5-0.1
		c2-1,32.5-30.5,28.5-39.5C678.4,192.3,678.3,192.2,678.1,192.2L678.1,192.2z"/>
</g>
<g>
	<path class="st3" d="M60.5,325.6c-0.2-0.2,0-1.6,0.4-2.8c0.5-0.5,1.7-2.1,5.5-7.5c6.1-8.5,20.3-28.5,22.6-28.5
		c3.8,8.6-26.3,37.8-28.3,38.8C60.6,325.6,60.5,325.6,60.5,325.6L60.5,325.6z"/>
	<path d="M88.8,287.4c0.8,3.5-3.5,11.1-11.9,21c-6.6,7.8-13.9,14.7-15.9,16.3c0.1-0.5,0.2-1.1,0.4-1.7c0.7-0.7,2-2.6,5.5-7.5
		C72.5,307.6,85.3,289.6,88.8,287.4 M89.1,286.2c-3.7,0-28,36.3-28.6,36.3c0,0,0,0,0,0c0,0-1.2,3.6,0,3.6c0.1,0,0.3,0,0.5-0.1
		c2-1,32.5-30.5,28.5-39.5C89.4,286.3,89.3,286.2,89.1,286.2L89.1,286.2z"/>
</g>
<g>
	<path class="st3" d="M671.6,327.7c-0.1-0.4,0.1-1.8,0.4-3l0.2-0.7l-0.2,0c1.6-4.6,23.9-35.4,27.9-35.4c0.1,0,0.1,0,0.2,0.1
		c3.1,6.7-26.5,37.7-28.3,38.9C671.6,327.6,671.6,327.7,671.6,327.7z"/>
	<path d="M699.7,289.2c0.4,1.5-0.3,6.2-12.3,20.6c-6.4,7.7-13.2,14.8-15.3,16.8c0.1-0.5,0.2-1.2,0.4-1.8l0.4-1.3h0
		c1.3-2.6,5.9-9.5,12.2-17.9C694.1,293.5,698.4,289.6,699.7,289.2 M699.9,288.1c-4.7,0-30.4,36.4-28.4,36.4c0,0,0,0,0,0
		c0,0-1.1,3.7,0,3.7c0.1,0,0.3-0.1,0.5-0.2c1.6-1,31.9-32.3,28.5-39.5C700.4,288.2,700.2,288.1,699.9,288.1L699.9,288.1z"/>
</g>
</svg>
