<?xml version="1.0" encoding="utf-8"?>
<!-- Generator: Adobe Illustrator 21.0.2, SVG Export Plug-In . SVG Version: 6.00 Build 0)  -->
<svg version="1.1" id="Слой_2" xmlns="http://www.w3.org/2000/svg" xmlns:xlink="http://www.w3.org/1999/xlink" x="0px" y="0px"
	 viewBox="0 0 921 414" style="enable-background:new 0 0 921 414;" xml:space="preserve">
<style type="text/css">
	.st0{fill:none;stroke:#000000;stroke-width:0.5;stroke-linecap:round;stroke-linejoin:round;}
	.st1{stroke:#000000;stroke-miterlimit:10;}
	.st2{fill:#FFFFFF;}
	.st3{fill:#FFFFFF;stroke:#000000;stroke-miterlimit:10;}
</style>
<g>
	<path d="M275,99.6c-8.4,0-18.3-3.5-23.5-13c0.8,1.4,1.9,2.7,3,3.9c5.2,5.5,13.1,8.7,21.2,8.7c4.8,0,9.3-1.1,13.1-3.2
		c9-5,17.8-18.6,18.2-19.2l15-21c0.2-0.3,18.1-27.1,23-34c0.1-0.1,0.7-0.3,1.4-0.3c0.2,0,0.4,0,0.5,0c-11.4,19.6-40,59.8-48.7,68.6
		C292.1,96.2,283.7,99.6,275,99.6L275,99.6z M248,74.7c-0.5-5.7,0.7-10.8,3.4-14.3c2.8-3.6,7-5.5,12.6-5.5c3.3,0,7,0.7,11.1,1.9
		l0.5,1.4c-0.7-0.4-1.6-0.8-2.9-1.2c-1.6-0.5-4.4-1.1-7.6-1.1c-6.1,0-16.3,2.2-17.1,16.6C248,73.2,248,74,248,74.7z"/>
	<path d="M346,22c-11.7,19.9-39.6,59.1-48.2,67.8c-1.6,1.6-3.4,3.1-5.4,4.3c7.8-6,14.6-16.5,14.9-17l15-21
		c0.2-0.3,17.9-26.8,22.9-33.9C345.4,22.1,345.7,22.1,346,22 M263.7,55.5c-3.4,0.2-7.7,1.1-11,4.2C255.3,56.9,259,55.5,263.7,55.5
		 M346.3,21c-0.8,0-1.6,0.2-1.8,0.5c-5,7-23,34-23,34l-15,21c0,0-9,14-18,19c-3.9,2.1-8.3,3.2-12.8,3.2c-13.8,0-28-9.6-27.2-26.2
		c0.7-13.2,9.6-16.1,16.6-16.1c3.1,0,5.9,0.6,7.4,1.1c3,1,4,2,4,2s-0.8-2.3-1-3c-4.4-1.4-8.3-2-11.5-2c-15.3,0-18.8,13.7-15.5,26
		c3.6,13.3,14.7,19.6,26.5,19.6c8.5,0,17.2-3.3,23.5-9.6c9-9,38-50,49-69C347.7,21.2,347.1,21,346.3,21L346.3,21z"/>
</g>
<g>
	<path d="M367.5,133.8c-6.5,0-13.5-0.9-20.8-2.8c-13-3.2-21.8-9.6-26.2-19c-6.5-14.1-1.2-31.8,2.5-39.2c4.6-9.3,14.1-26.1,19.9-31.9
		c0.1,0,0.4-0.1,0.9-0.1c-4,6.1-12.6,21.4-16.7,30.6c-3.7,8.2-10,38.5,2.1,48.6c8.7,7.2,24.7,12.1,39.9,12.1c7,0,13.6-1,19.5-3
		c6.4-2.1,18.4-8.3,26.3-25.3c7.3-15.6,0.6-28.6-8.1-35.6c-5-4-10.1-5.9-15.8-5.9c-4,0-7.6,0.9-10.6,1.8c-2.5,0.7-6.9,2.5-10.9,4.5
		c2.5-2.2,8.4-6.2,14.2-7.5c0.9-0.2,2.8-0.5,5.3-0.5c6.5,0,16,2.1,24.2,12.4c3.6,4.6,9.1,13.9,4.9,25.5
		C414.2,109,401.5,133.8,367.5,133.8z"/>
	<path d="M342.1,42.4c-4.3,7-11.8,20.4-15.5,28.7c-3.7,8.3-10,38.9,2.3,49.2c8.7,7.3,24.9,12.2,40.2,12.2c6.4,0,12.5-0.8,18-2.5
		c-5.6,2-12.1,3.3-19.7,3.3c-6.4,0-13.4-0.9-20.7-2.7c-12.9-3.2-21.6-9.5-25.8-18.8c-6.4-13.9-1.2-31.5,2.5-38.8
		C327.7,64.3,336.3,49,342.1,42.4 M388.9,61c6.4,0,15.7,2.1,23.8,12.2c3.6,4.5,9,13.7,4.8,25c0,0.1-0.1,0.2-0.1,0.4
		c3.8-13.5-2.5-24.5-10.3-30.8c-5.1-4-10.3-6-16.1-6c-4,0-7.7,0.9-10.8,1.8c-1.6,0.5-4,1.4-6.6,2.5c2.8-1.8,6.4-3.7,10.1-4.5
		C384.6,61.3,386.4,61,388.9,61 M343.8,40.2c-0.5,0-1.1,0.1-1.3,0.3c-6,6-15.8,23.6-20,32c-5,10-17.2,48.8,24,59
		c7.8,1.9,14.7,2.8,21,2.8c35.2,0,47.7-26.7,51-35.8c4-11-0.6-20.5-5-26C405,61.9,395.1,60,388.9,60c-2.6,0-4.5,0.3-5.4,0.5
		c-8.2,1.8-16.9,9.3-15.7,9.3c0.1,0,0.4-0.1,0.7-0.3c4-2,9.1-4.2,12-5c3.1-0.9,6.7-1.8,10.5-1.8c4.7,0,10,1.4,15.5,5.8
		c7,5.6,15.9,18.1,8,35c-7,15-17.4,22.1-26,25c-6.2,2.1-12.8,2.9-19.4,2.9c-15.9,0-31.5-5.2-39.6-11.9c-12-10-5.5-40.1-2-48
		c4-9,13-25,17-31C344.6,40.3,344.3,40.2,343.8,40.2L343.8,40.2z"/>
</g>
<g id="XMLID_1_">
	<g>
		<path d="M428.7,4.3c-0.1,0.1-0.8,0.4-2.2,1.2c-24.6,13.2-50,13.5-69,11c-8.7-1.2-24-4.5-35-4c-21,1-23.5,7.2-25,10
			c-5.6,10.3,4.5,15.7,10,17c5.9,1.4,20.6-4.8,20-6l1,2c0,0-8,8-20,7c-16.4-1.4-15-14.9-14-18c0,0,1.3-7.6,12-11
			c12.5-4,24.8-2.3,27-2c15,1.8,29.9,5.8,43,5C406.2,14.7,428.5,4.3,428.7,4.3z"/>
	</g>
	<g>
		<path class="st0" d="M428.7,4.3C428.7,4.3,428.7,4.3,428.7,4.3"/>
		<path class="st0" d="M327.5,33.5c0.6,1.2-14.1,7.4-20,6c-5.5-1.3-15.6-6.7-10-17c1.5-2.8,4-9,25-10c11-0.5,26.3,2.8,35,4
			c19,2.5,44.4,2.2,69-11c1.4-0.8,2.1-1.1,2.2-1.2c-0.3,0-22.6,10.4-52.2,12.2c-13.1,0.8-28-3.2-43-5c-2.2-0.3-14.5-2-27,2
			c-10.7,3.4-12,11-12,11c-1,3.1-2.4,16.6,14,18c12,1,20-7,20-7L327.5,33.5z"/>
	</g>
</g>
<path class="st1" d="M295.5-8.5"/>
<g>
	<path d="M360.7,121.6c0.9-1,1.8-2,2.2-2.9c1-2,6.9-11.9,7-12c0.1-0.2,15.1-24.1,20-34c0.2-0.3,0.3-0.7,0.1-1.1
		c-0.1-0.1-0.2-0.3-0.6-0.3c-0.6,0-1.6,0.6-3.9,1.8c-1.5,0.8-3.3,1.8-5.3,2.9c-4.4,2.2-6.6,3.3-8.6,3.3c0,0,0,0,0,0
		c0.3-0.1,0.7-0.3,1.1-0.4c3.1-1.3,3.9-1.7,5.1-2.4c0.7-0.4,1.5-0.9,3-1.6c4-2,6-3,11-6c2-1.2,3.8-4.2,5.6-7.1
		c1.2-2,2.4-3.9,3.4-4.9c0.4-0.4,0.8-0.5,1.2-0.5c0.5,0,1,0.2,1.1,0.4c0.1,0.3-0.4,1.4-1,2.4l-6,10c0,0-4.5,8.3-6,11
		c-3.2,5.9-7.7,12.7-13.4,21.2c-1.4,2.1-2.9,4.4-4.5,6.8C365.7,117.8,363.8,119.7,360.7,121.6z"/>
	<path d="M402,56.9c0.2,0,0.4,0.1,0.6,0.1c-0.1,0.4-0.5,1.3-0.9,2l-6,10c0,0.1-4.5,8.3-6,11c-3.2,5.9-7.7,12.6-13.4,21.2
		c-1.4,2.1-2.9,4.4-4.5,6.8c-4.2,6.2-6.4,9.2-8.3,11c1-2,6.9-11.8,6.9-11.9c0.2-0.2,15.1-24.2,20-34.1c0.1-0.3,0.5-0.9,0.1-1.5
		c-0.2-0.3-0.6-0.5-1-0.5c0.8-0.4,1.6-0.9,2.5-1.5c2.1-1.3,4-4.3,5.8-7.3c1.2-2,2.4-3.8,3.4-4.8C401.4,57,401.7,56.9,402,56.9
		 M402,55.9c-0.5,0-1.1,0.2-1.5,0.6c-2.7,2.7-5.8,10.1-9,12c-5,3-7,4-11,6c-4,2-3,2-8,4c-1.7,0.7-2.7,0.9-3.1,1c0,0,0.1,0,0.1,0
		c0.8,0.3,1.4,0.4,2.1,0.4c2.1,0,4.4-1.1,8.9-3.4c4.6-2.3,8.1-4.6,8.9-4.6c0.2,0,0.3,0.2,0.1,0.6c-5,10-20,34-20,34s-6,10-7,12
		c-0.9,1.8-4.6,5.1-4.2,5.1c0,0,0.1,0,0.2-0.1c5-3,6-3,14-15s14-20.6,18-28c1.5-2.8,6-11,6-11l6-10c0,0,1.5-2.4,1-3
		C403.3,56.2,402.7,55.9,402,55.9L402,55.9z M369.2,79.5C369.1,79.5,369.1,79.5,369.2,79.5c0,0,0.1,0,0.2,0
		C369.4,79.5,369.3,79.5,369.2,79.5L369.2,79.5z"/>
</g>
<g>
	<path d="M432.7,313.6c0.9-1,1.8-2,2.2-2.9c1-2,6.9-11.9,7-12c9.8-16.4,28.9-47.8,30.9-49.9c0.4-0.4,0.8-0.5,1.2-0.5
		c0.5,0,1,0.2,1.1,0.4c0.1,0.3-0.4,1.4-1,2.4l-6,10c0,0-4.5,8.3-6,11c-3.2,5.9-7.7,12.7-13.4,21.2c-1.4,2.1-2.9,4.4-4.5,6.8
		C437.7,309.8,435.8,311.7,432.7,313.6z"/>
	<path d="M474,248.9c0.2,0,0.4,0.1,0.6,0.1c-0.1,0.4-0.5,1.3-0.9,2l-6,10c0,0.1-4.5,8.3-6,11c-3.2,5.9-7.7,12.6-13.4,21.2
		c-1.4,2.1-2.9,4.4-4.5,6.8c-4.2,6.2-6.4,9.2-8.3,11c1-2,6.9-11.8,6.9-11.9c11.4-19,29-47.9,30.8-49.8
		C473.4,249,473.7,248.9,474,248.9 M474,247.9c-0.5,0-1.1,0.2-1.5,0.6c-2.7,2.7-31,50-31,50s-6,10-7,12c-0.9,1.8-4.6,5.1-4.2,5.1
		c0,0,0.1,0,0.2-0.1c5-3,6-3,14-15s14-20.6,18-28c1.5-2.8,6-11,6-11l6-10c0,0,1.5-2.4,1-3C475.3,248.2,474.7,247.9,474,247.9
		L474,247.9z"/>
</g>
<g>
	<path d="M408.5,79c-1.6,0-2.9-0.7-3.6-2c-0.7-1.5-0.4-3.4,1-5.2c1-1.4,2.3-2.5,3.4-3.6c1.6-1.4,3.1-2.8,3.7-4.6
		c0.3-0.8,0.2-1.4-0.1-1.8c-0.2-0.2-0.5-0.5-1.2-0.5c-1,0-2.4,0.7-2.5,0.7l-13.5,7.2l3-5.3l10.8-3.9c0,0,3-1.1,4.8-1.1
		c0.3,0,0.6,0,0.8,0.1c0.7,0.3,1.1,0.7,1.2,1.2c0.2,1-0.4,3-4.4,6.9c-5.3,5.3-5.4,7.6-5.2,8.4c0,0.2,0,0.4,0.2,0.7
		c0.2,0.3,0.8,1,2.5,1c0.6,0,1.2-0.1,1.9-0.2c1.7-0.4,9-4.3,11.4-5.6v0.9l-2.8,1.9C420.2,74.1,411.3,79,408.5,79z"/>
	<path d="M414.5,59.3c0.4,0,0.6,0.1,0.6,0.1c0.8,0.3,0.9,0.7,0.9,0.9c0.1,0.6-0.1,2.3-4.3,6.5c-5.1,5.1-5.5,7.7-5.3,8.7
		c0,0.3,0.1,0.6,0.2,0.9c0.2,0.4,1,1.3,3,1.3c0.6,0,1.3-0.1,2.1-0.3c1.3-0.3,5.8-2.6,9-4.3l-0.8,0.5c-3.5,2-9.5,4.9-11.5,4.9
		c-1.4,0-2.6-0.6-3.1-1.7c-0.7-1.3-0.3-3.1,0.9-4.7c1-1.4,2.2-2.4,3.4-3.5c1.6-1.5,3.2-2.9,3.8-4.8c0.1-0.4,0.5-1.4-0.1-2.2
		c-0.2-0.3-0.7-0.7-1.6-0.7c-1.1,0-2.5,0.7-2.7,0.8L397.1,68l2.1-3.7l10.7-3.9C410.7,60.1,413,59.3,414.5,59.3 M414.5,58.3
		c-2,0-5,1.2-5,1.2l-11,4l-4,7l15-8c0,0,1.3-0.7,2.2-0.7c0.7,0,1.2,0.4,0.8,1.7c-0.9,2.8-4.5,4.6-7,8c-3,4-1,8,3,8c3,0,12-5,12-5
		l3-2v-2c0,0-10.1,5.6-12,6c-0.7,0.2-1.3,0.2-1.8,0.2c-1.9,0-2.3-0.9-2.2-1.2c0,0-1-2,5-8s5.1-8.1,3-9
		C415.2,58.4,414.9,58.3,414.5,58.3L414.5,58.3z"/>
</g>
<g>
	<path d="M482,269c-1.6,0-2.9-0.7-3.6-2c-0.7-1.5-0.4-3.4,1-5.2c1-1.4,2.3-2.5,3.4-3.6c1.6-1.4,3.1-2.8,3.7-4.6
		c0.3-0.8,0.2-1.4-0.1-1.8c-0.2-0.2-0.5-0.5-1.2-0.5c-1,0-2.4,0.7-2.5,0.7l-13.5,7.2l3-5.3l10.8-3.9c0,0,3-1.1,4.8-1.1
		c0.3,0,0.6,0,0.8,0.1c0.7,0.3,1.1,0.7,1.2,1.2c0.2,1-0.4,3-4.4,6.9c-5.3,5.3-5.4,7.6-5.2,8.4c0,0.2,0,0.4,0.2,0.7
		c0.2,0.3,0.8,1,2.5,1c0.6,0,1.2-0.1,1.9-0.2c0.8-0.2,2.6-1.3,5.4-3.1c1.9-1.2,4.7-2.9,5.9-3.4C494.2,263.8,484.6,269,482,269z"/>
	<path d="M488,249.3c0.4,0,0.6,0.1,0.6,0.1c0.8,0.3,0.9,0.7,0.9,0.9c0.1,0.6-0.1,2.3-4.3,6.5c-5.1,5.1-5.5,7.7-5.3,8.7
		c0,0.3,0.1,0.6,0.2,0.9c0.2,0.4,1,1.3,3,1.3c0.6,0,1.3-0.1,2.1-0.3c0.9-0.2,2.7-1.3,5.6-3.1c0.9-0.5,1.9-1.2,2.9-1.8
		c-3.6,2.9-9.8,6-11.7,6c-1.4,0-2.6-0.6-3.1-1.7c-0.7-1.3-0.3-3.1,0.9-4.7c1-1.4,2.2-2.4,3.4-3.5c1.6-1.5,3.2-2.9,3.8-4.8
		c0.1-0.4,0.5-1.4-0.1-2.2c-0.2-0.3-0.7-0.7-1.6-0.7c-1.1,0-2.5,0.7-2.7,0.8l-11.9,6.4l2.1-3.7l10.7-3.9
		C484.2,250.1,486.5,249.3,488,249.3 M488,248.3c-2,0-5,1.2-5,1.2l-11,4l-4,7l15-8c0,0,1.3-0.7,2.2-0.7c0.7,0,1.2,0.4,0.8,1.7
		c-0.9,2.8-4.5,4.6-7,8c-3,4-1,8,3,8c3,0,13-5.5,15-9c0.3-0.5,0.2-0.7,0-0.7c-1.5,0-10.3,6.3-12,6.7c-0.7,0.2-1.3,0.2-1.8,0.2
		c-1.9,0-2.3-0.9-2.2-1.2c0,0-1-2,5-8s5.1-8.1,3-9C488.7,248.4,488.4,248.3,488,248.3L488,248.3z"/>
</g>
<g>
	<path d="M425.7,79.5c-1.8,0-4-0.3-4.8-1.8c-0.8-1.4-0.1-3.8,2-7c0.8-1.2,8.1-9.2,9.8-9.8c0.5-0.2,1.9-0.4,2.9-0.4c0,0,0.1,0,0.1,0
		l-0.5,0.5c-0.2,0.2-6,5.1-8.1,8.1c-0.1,0.2-3.2,4.8-2,6.6c0.6,0.9,1.6,1.3,3,1.3c3.3,0,8.3-2.6,10.7-4.2c1-0.9,9.2-8.2,10.2-10.2
		c0.2-0.3,1.4-0.6,2.9-0.7c-1,1.5-4.4,5.5-7.7,9.1l-0.1,0.1l0,0c-0.8,0.9-9,6.8-13.6,7.7C428.7,79.4,427.1,79.5,425.7,79.5z"/>
	<path d="M434.3,61.2c-1.5,1.3-5.9,5.2-7.7,7.8c-0.6,0.8-3.3,5.2-2,7.1c0.5,0.7,1.4,1.5,3.4,1.5c3.8,0,9.2-3.1,11-4.2l0.1,0l0.1,0
		c1.5-1.3,9.1-8.1,10.2-10.2c0.2-0.1,0.7-0.3,1.4-0.4c-1.4,1.8-4.3,5.2-7,8.2l-0.2,0.2l0,0c-1.2,1.1-8.9,6.6-13.3,7.5
		c-1.7,0.3-3.2,0.5-4.6,0.5c-1.6,0-3.7-0.3-4.4-1.5c-0.7-1.2,0-3.5,2-6.5c0.8-1.2,8.1-9.1,9.5-9.6C433.1,61.4,433.7,61.2,434.3,61.2
		 M435.6,60.1c-1,0-2.5,0.2-3.1,0.4c-1.8,0.7-9.2,8.8-10,10c-4.7,7-1.9,9.5,3.2,9.5c1.4,0,3.1-0.2,4.8-0.5c5-1,13.9-7.6,14-8
		c0,0,9-10,8-10c-0.8,0-3.6,0.1-4,1c-1,2-10,10-10,10c-2.2,1.5-7.2,4.1-10.5,4.1c-1.1,0-2-0.3-2.5-1.1c-0.8-1.2,1.1-4.6,2-6
		c2-3,8-8,8-8s0,0,1-1C436.8,60.2,436.3,60.1,435.6,60.1L435.6,60.1z"/>
</g>
<g>
	<path d="M518.1,368.7c-0.7,0-1.4-0.1-2-0.2c-0.6-0.1-1.1-0.7-1.4-1.5c-1-2.8,0.1-8.2,2.1-10.7c0.1-0.2,0.4-0.5,0.7-0.9
		c5.1-6.6,8.1-10.1,9.1-10.5c0.5-0.2,1.9-0.4,2.9-0.4c0.1,0,0.2,0,0.2,0l-0.7,0.8c-0.2,0.2-6,5.8-8.1,9.3c0,0.1-3.1,5.5-2,7.4
		c0.6,1,1.6,1.5,3,1.5c3.3,0,8.3-3,10.8-4.8c0.4-0.5,9.6-10.2,10.7-12.5c0,0,0.3-0.6,3.9-0.7c-1.1,1.7-5.3,6.8-9.2,11.3L538,357
		l0.1,0.2c0,0.1,0.1,0.5-0.8,1.6C534,362.8,524.4,368.7,518.1,368.7z"/>
	<path d="M528.7,345.1c-1,1-6.1,6-8,9.3c-0.3,0.6-3.3,5.8-2,7.9c0.5,0.8,1.4,1.7,3.4,1.7c3.8,0,9.3-3.6,11.1-4.9l0.1,0l0.1-0.1
		c1-1,9.4-10,10.7-12.5c0.1-0.1,0.7-0.3,2.5-0.4c-1.6,2.1-5.2,6.5-8.6,10.5l-0.3,0.3l0.1,0.5c0,1.8-11.3,10.9-19.4,10.9
		c-0.7,0-1.3-0.1-1.9-0.2c-0.4-0.1-0.8-0.5-1-1.2c-0.9-2.6,0.2-7.8,2-10.2c0.1-0.2,0.4-0.5,0.7-0.9c6.6-8.5,8.4-10.2,8.9-10.4
		C527.1,345.3,527.9,345.1,528.7,345.1 M529.6,344c-1,0-2.5,0.2-3.1,0.5c-1.8,0.8-9,10.3-10,11.6c-2.7,3.5-3.9,12.2-0.5,13
		c0.7,0.2,1.4,0.2,2.1,0.2c8.4,0,20.9-9.5,20.4-12.1c0,0,10.5-12.2,9.5-12.2c0,0-0.1,0-0.2,0c-1,0-4.4,0-4.8,1
		c-1,2.3-10.5,12.3-10.5,12.3c-2.2,1.7-7.2,4.7-10.5,4.7c-1.1,0-2-0.4-2.5-1.2c-0.8-1.4,1.1-5.3,2-6.9c2-3.5,8-9.2,8-9.2s0,0,1-1.2
		C530.8,344.1,530.3,344,529.6,344L529.6,344z"/>
</g>
<g>
	<path d="M442.5,80c-1.7,0-2.5-1.7-2.6-1.7l-0.9-2.6l4.8-4.8l3.5-2.9l-2.3,3.2c-0.6,0.9-3.4,5.5-2.4,7.3c0.2,0.3,0.6,0.8,1.4,0.8h0
		c0.4,0,0.9-0.1,1.6-0.3c4.6-1.6,4.9-1.8,7.1-3.5c0.5-0.4,1.2-0.9,2.1-1.6c2.4-1.8,8.1-7.1,10.2-9.2v0.8l-0.5,2.7
		c-0.2-0.2-0.4-0.2-0.6-0.2c-0.2,0-0.4,0-0.6,0.1c-1.2,0.6-3.9,2.6-6.4,4.6c-1.9,1.5-3.8,2.9-4.6,3.4C447.8,78.7,444.6,80,442.5,80z
		"/>
	<path d="M464.4,66l-0.3,1.5c-0.1,0-0.2,0-0.3,0c-0.3,0-0.5,0.1-0.8,0.2c-0.3,0.1-0.7,0.4-1.1,0.7C462.9,67.4,463.7,66.6,464.4,66
		 M444.9,70.7l-0.2,0.3c-1.1,1.7-3.5,5.9-2.4,7.8c0.1,0.2,0.3,0.5,0.7,0.7c-0.1,0-0.3,0-0.4,0c-1.2,0-1.9-1.2-2.1-1.4l-0.8-2.3
		l4.5-4.5L444.9,70.7 M465.5,63.5c0,0-8,7.8-11,10c-4.3,3.2-3.3,3-9,5c-0.6,0.2-1,0.3-1.4,0.3c-3.3,0,1.4-7.3,1.4-7.3l4.4-6.2
		l-6.4,5.2l-5,5l1,3c0,0,1,2,3,2s5-1,10-4c2-1.2,8.9-6.9,11-8c0.1-0.1,0.2-0.1,0.3-0.1c0.8,0,0.7,2.1,0.7,2.1l1-5V63.5L465.5,63.5z"
		/>
</g>
<g>
	<path d="M537.1,368.5c-1.3,0-2.2-0.3-2.7-1c-0.8-1-0.7-2.9,0-5.7l8.9-10c-2.4,4.5-5.6,11.4-4.3,13.6c0.2,0.4,0.7,0.8,1.6,0.8
		c0,0,0,0,0,0c0.1,0,0.3,0,0.5,0c1.1-0.2,2.6-0.7,4.6-1.3c2.4-0.8,5.4-1.8,8.5-2.4c1.1-0.2,2.2-0.4,3.3-0.6
		c-0.2,0.1-0.4,0.1-0.6,0.2c-2.1,0.7-4.2,1.6-6.3,2.4C545.3,366.6,540.3,368.5,537.1,368.5C537.1,368.5,537.1,368.5,537.1,368.5z"/>
	<path d="M541.1,355c-2,4.2-3.6,8.7-2.5,10.6c0.4,0.7,1.1,1.1,2,1.1c0.2,0,0.4,0,0.6,0c1.1-0.2,2.7-0.7,4.7-1.3c1.5-0.5,3.2-1,5-1.5
		c-0.2,0.1-0.3,0.1-0.5,0.2c-5,1.9-10.1,3.9-13.2,3.9c-1.2,0-1.9-0.3-2.3-0.8c-0.5-0.6-0.8-2,0.1-5.1L541.1,355 M546,348l-12,13.6
		c-1.6,5.6-0.1,7.4,3.1,7.4c4.6,0,12.8-3.9,19.9-6.4c6.3-2.2,12-1,14-2.1c-0.8-0.3-1.9-0.4-3.2-0.4c-3.3,0-8,0.9-13.7,2
		c-5.5,1.1-10.7,3.3-13.1,3.7c-0.1,0-0.3,0-0.4,0C535.5,365.8,546,348,546,348L546,348z"/>
</g>
<g>
	<path d="M465.9,81.1c-0.4,0-0.9,0-1.3-0.1c-2.2-0.4-3.6-1.3-4.3-2.9c-1.4-3.3,0.7-9.2,5.6-16.3c3.9-5.6,8.3-11.6,12.1-17
		c3-4.1,5.7-8,7.9-11c3.7-5.3,13.8-17.8,15.9-19.9c1.7-1.7,3.4-2.7,4.5-2.7c0.4,0,0.7,0.1,1,0.4c0.5,0.6,1.1,2.1,0.7,5.9
		c-1,8.8-13,20.9-18.9,26.7c-2.3,2.3-5.6,5.1-8.9,7.8c-2.3,1.9-4.6,3.8-6.1,5.2c-4.1,3.8-8.2,8.6-10.1,17.3
		c-0.5,2.4-0.4,4.1,0.4,5.1c0.5,0.6,1.2,0.9,2.1,0.9c1.9,0,4.2-1.4,4.3-1.5c0.1-0.1,3-2.2,4.2-4.2c0.7-1.3,1.3-2.2,1.7-2.8
		c0.9-1.5,1.1-1.8,0.9-2.2c-0.1-0.1-0.3-0.3-0.6-0.3c-0.1,0-0.2,0-0.3,0c-0.1,0-0.3,0-0.4,0c-0.5,0-1-0.1-1.4-0.4
		c-2-1.2-2.4-2.2-2.5-2.9c0-0.7,0.3-1.1,0.5-1.3c0.1-0.1,0.4-0.3,1-0.3c0.4,0,0.9,0.1,1.4,0.4c1.6,0.8,2.6,3.2,2.7,3.7
		c0,0.3,0,1.8-1,4.7C476.1,76,471.1,81.1,465.9,81.1z"/>
	<path d="M506.3,11.6c0.3,0,0.5,0.1,0.6,0.3c0.4,0.4,0.9,1.7,0.5,5.5c-0.9,8.6-13.4,21.1-18.7,26.4c-2.3,2.3-5.6,5-8.8,7.7
		c-2.3,2-4.6,3.8-6.1,5.2c-4.2,3.9-8.3,8.7-10.3,17.5c-0.6,2.6-0.4,4.4,0.5,5.5c0.2,0.3,0.5,0.5,1,0.8c-0.1,0-0.2,0-0.3,0
		c-2-0.3-3.3-1.2-3.9-2.6c-1.3-3.1,0.7-8.9,5.6-15.8c3.9-5.6,8.3-11.6,12.1-16.9c3-4.1,5.7-8,7.9-11c3.7-5.3,13.7-17.7,15.9-19.9
		C503.8,12.6,505.4,11.6,506.3,11.6 M473.8,65.1c0.4,0,0.8,0.1,1.2,0.3c1.3,0.6,2.2,2.5,2.5,3.3c0,0.1,0,0.2,0,0.4
		c-0.2-0.1-0.4-0.1-0.6-0.1c-0.1,0-0.2,0-0.3,0c-0.1,0-0.2,0-0.4,0c-0.3,0-0.7,0-1.2-0.3c-1.4-0.8-2.2-1.7-2.2-2.5
		c0-0.5,0.2-0.8,0.3-0.8l0,0l0.1-0.1C473.2,65.2,473.4,65.1,473.8,65.1 M476.7,72.8c0,0.1-0.1,0.3-0.1,0.4c-0.3,0.8-1,1.9-2.1,3
		c0.3-0.4,0.6-0.8,0.9-1.2C475.9,74.1,476.3,73.4,476.7,72.8 M506.3,10.6c-1.5,0-3.4,1.4-4.8,2.9c-2.2,2.2-12.3,14.8-16,20
		c-4.9,7-13,18-20,28s-8.9,18.7-1,20c0.5,0.1,0.9,0.1,1.4,0.1c5.5,0,10.7-5.3,11.6-8.1c1.1-3.4,1-5,1-5s-1-3-3-4
		c-0.7-0.3-1.2-0.4-1.7-0.4c-0.9,0-1.3,0.4-1.3,0.4c-0.7,0.6-1.8,2.8,2,5c0.7,0.4,1.2,0.5,1.7,0.5c0.3,0,0.6,0,0.7,0
		c0.5,0,0,0.5-2.4,4.6c-1.1,1.9-4,4-4,4s-2.2,1.4-4,1.4c-1.6,0-2.9-1.1-2-5.4c2-9,6.4-13.6,10-17c3.6-3.4,11-9,15-13
		c5.9-5.9,18-18.1,19-27C509.1,12.3,508,10.6,506.3,10.6L506.3,10.6z"/>
</g>
<g>
	<path d="M630.3,178.1c-0.5,0-0.9,0-1.4-0.1c-2.3-0.4-3.8-1.5-4.5-3.2c-1.6-3.8,0.5-10.7,5.9-19c4.2-6.5,8.8-13.4,12.9-19.5
		c3.2-4.7,6.1-9.2,8.4-12.7c4-6.1,14.7-20.4,17-22.9c1.8-2,3.6-3.1,4.8-3.1c0.4,0,0.8,0.1,1,0.5c0.6,0.7,1.2,2.4,0.8,6.9
		c-1,10.2-14,24.1-20.2,30.8c-2.4,2.6-6,5.8-9.5,8.9c-2.5,2.2-4.9,4.3-6.5,6c-4.4,4.4-8.8,9.9-10.8,19.8c-0.6,2.9-0.4,4.8,0.4,5.9
		c0.5,0.6,1.2,0.9,2.2,0.9c2.1,0,4.5-1.6,4.6-1.7c0.2-0.1,3.2-2.5,4.4-4.8c0.8-1.4,1.4-2.5,1.8-3.3c1-1.8,1.1-2,0.9-2.4
		c-0.1-0.1-0.3-0.3-0.6-0.3c-0.1,0-0.2,0-0.3,0c-0.1,0-0.3,0-0.5,0c-0.5,0-1-0.2-1.5-0.5c-2.1-1.4-2.6-2.6-2.7-3.4
		c0-0.8,0.4-1.4,0.6-1.6c0.1-0.1,0.4-0.4,1.1-0.4c0.5,0,1,0.2,1.5,0.5c1.8,1,2.8,3.8,2.9,4.3c0,0.3,0,2.1-1,5.5
		C641.3,172.2,635.9,178.1,630.3,178.1z"/>
	<path d="M673.5,98c0.3,0,0.5,0.1,0.7,0.3c0.4,0.5,1.1,2,0.6,6.5c-1,10-13.9,23.8-20,30.5c-2.4,2.6-6,5.8-9.5,8.9
		c-2.5,2.2-4.9,4.4-6.5,6c-4.5,4.5-8.9,10-11,20.1c-0.6,3-0.4,5.1,0.5,6.3c0.5,0.6,1.3,1,2.1,1.1c-0.1,0-0.2,0-0.3,0
		c-0.4,0-0.9,0-1.3-0.1c-2.1-0.4-3.5-1.3-4.2-2.9c-1.6-3.6,0.6-10.4,5.9-18.6c4.2-6.5,8.8-13.4,12.9-19.5c3.2-4.7,6.1-9.2,8.4-12.7
		c3.9-6,14.7-20.4,17-22.9C670.8,99.1,672.5,98,673.5,98 M638.8,159.4c0.4,0,0.8,0.1,1.3,0.4c1.4,0.7,2.4,3,2.7,3.9
		c0,0.1,0,0.3,0,0.7c-0.2-0.1-0.4-0.2-0.7-0.2c-0.1,0-0.2,0-0.3,0c-0.1,0-0.3,0-0.4,0c-0.3,0-0.7,0-1.3-0.4c-1.5-1-2.4-2-2.4-3
		c0-0.6,0.3-1,0.4-1.1l0,0l0-0.1C638.1,159.6,638.3,159.4,638.8,159.4 M642.1,167.8c-0.1,0.4-0.2,0.7-0.3,1.1
		c-0.5,1.6-2.6,4.4-5.3,6.4c1-0.8,3-2.7,4-4.4C641.1,169.6,641.7,168.6,642.1,167.8 M673.5,97c-1.6,0-3.6,1.6-5.2,3.3
		c-2.4,2.6-13.2,17-17.1,23c-5.3,8.1-13.9,20.7-21.4,32.2s-9.5,21.5-1.1,23c0.5,0.1,1,0.1,1.4,0.1c5.9,0,11.4-6.1,12.4-9.3
		c1.2-3.9,1.1-5.7,1.1-5.7s-1.1-3.4-3.2-4.6c-0.7-0.4-1.3-0.5-1.8-0.5c-0.9,0-1.4,0.5-1.4,0.5c-0.8,0.6-1.9,3.2,2.1,5.7
		c0.7,0.4,1.3,0.5,1.8,0.5c0.3,0,0.6,0,0.8,0c0.6,0,0,0.5-2.5,5.3c-1.2,2.2-4.3,4.6-4.3,4.6s-2.4,1.6-4.3,1.6
		c-1.7,0-3.1-1.3-2.1-6.2c2.1-10.3,6.8-15.7,10.7-19.5c3.9-3.9,11.7-10.3,16-14.9c6.3-6.8,19.3-20.8,20.3-31
		C676.4,98.9,675.3,97,673.5,97L673.5,97z"/>
</g>
<g>
	<path d="M43.3,375.1c-0.5,0-0.9,0-1.4-0.1c-2.3-0.4-3.8-1.5-4.5-3.2c-1.6-3.8,0.5-10.7,5.9-19c4.2-6.5,8.8-13.4,12.9-19.5
		c3.2-4.7,6.1-9.2,8.4-12.7c4-6.1,14.7-20.4,17-22.9c1.8-2,3.6-3.1,4.8-3.1c0.4,0,0.8,0.1,1,0.5c0.6,0.7,1.2,2.4,0.8,6.9
		c-1,10.2-14,24.1-20.2,30.8c-2.4,2.6-6,5.8-9.5,8.9c-2.5,2.2-4.9,4.4-6.5,6c-4.4,4.4-8.8,9.9-10.8,19.8c-0.6,2.9-0.4,4.8,0.4,5.9
		c0.5,0.6,1.2,0.9,2.2,0.9c2.1,0,4.5-1.6,4.6-1.7c0.2-0.1,3.2-2.5,4.4-4.8c0.8-1.4,1.4-2.5,1.8-3.3c1-1.8,1.1-2,0.9-2.4
		c-0.1-0.1-0.3-0.3-0.6-0.3c-0.1,0-0.2,0-0.3,0c-0.1,0-0.3,0-0.5,0c-0.5,0-1-0.2-1.5-0.5c-2.1-1.4-2.6-2.6-2.7-3.4
		c0-0.8,0.4-1.4,0.6-1.6c0.1-0.1,0.4-0.4,1.1-0.4c0.5,0,1,0.2,1.5,0.5c1.8,1,2.8,3.8,2.9,4.3c0,0.3,0,2.1-1,5.5
		C54.3,369.2,48.9,375.1,43.3,375.1z"/>
	<path d="M86.5,295c0.3,0,0.5,0.1,0.7,0.3c0.4,0.5,1.1,2,0.6,6.5c-1,10-13.9,23.8-20,30.5c-2.4,2.6-6,5.8-9.5,8.9
		c-2.5,2.2-4.9,4.4-6.5,6c-4.5,4.5-8.9,10-11,20.1c-0.6,3-0.4,5.1,0.5,6.3c0.5,0.6,1.3,1,2.1,1.1c-0.1,0-0.2,0-0.3,0
		c-0.4,0-0.9,0-1.3-0.1c-2.1-0.4-3.5-1.3-4.2-2.9c-1.6-3.6,0.6-10.4,5.9-18.6c4.2-6.5,8.8-13.4,12.9-19.5c3.2-4.7,6.1-9.2,8.4-12.7
		c3.9-6,14.7-20.4,17-22.9C83.8,296.1,85.5,295,86.5,295 M51.8,356.4c0.4,0,0.8,0.1,1.3,0.4c1.4,0.7,2.4,3,2.7,3.9
		c0,0.1,0,0.3,0,0.7c-0.2-0.1-0.4-0.2-0.7-0.2c-0.1,0-0.2,0-0.3,0c-0.1,0-0.3,0-0.4,0c-0.3,0-0.7,0-1.3-0.4c-1.5-1-2.4-2-2.4-3
		c0-0.6,0.3-1,0.4-1.1l0,0l0-0.1C51.1,356.6,51.3,356.4,51.8,356.4 M55.1,364.8c-0.1,0.4-0.2,0.7-0.3,1.1c-0.5,1.6-2.6,4.4-5.3,6.4
		c1-0.8,3-2.7,4-4.4C54.1,366.6,54.7,365.6,55.1,364.8 M86.5,294c-1.6,0-3.6,1.6-5.2,3.3c-2.4,2.6-13.2,17-17.1,23
		c-5.3,8.1-13.9,20.7-21.4,32.2c-7.5,11.5-9.5,21.5-1.1,23c0.5,0.1,1,0.1,1.4,0.1c5.9,0,11.4-6.1,12.4-9.3c1.2-3.9,1.1-5.7,1.1-5.7
		s-1.1-3.4-3.2-4.6c-0.7-0.4-1.3-0.5-1.8-0.5c-0.9,0-1.4,0.5-1.4,0.5c-0.8,0.6-1.9,3.2,2.1,5.7c0.7,0.4,1.3,0.5,1.8,0.5
		c0.3,0,0.6,0,0.8,0c0.6,0,0,0.5-2.6,5.3c-1.2,2.2-4.3,4.6-4.3,4.6s-2.4,1.6-4.3,1.6c-1.7,0-3.1-1.3-2.1-6.2
		c2.1-10.3,6.8-15.7,10.7-19.5c3.9-3.9,11.7-10.3,16-14.9c6.3-6.8,19.3-20.8,20.3-31C89.4,295.9,88.3,294,86.5,294L86.5,294z"/>
</g>
<g>
	<path d="M638.3,270.1c-0.5,0-0.9,0-1.4-0.1c-2.3-0.4-3.8-1.5-4.5-3.2c-1.6-3.8,0.5-10.7,5.9-19c4.2-6.5,8.8-13.4,12.9-19.5
		c3.2-4.7,6.1-9.2,8.4-12.7c4-6.1,14.7-20.4,17-22.9c1.8-2,3.6-3.1,4.8-3.1c0.4,0,0.8,0.1,1,0.5c0.6,0.7,1.2,2.4,0.8,6.9
		c-1,10.2-14,24.1-20.2,30.8c-2.4,2.6-6,5.8-9.5,8.9c-2.5,2.2-4.9,4.3-6.5,6c-4.4,4.4-8.8,9.9-10.8,19.8c-0.6,2.9-0.4,4.8,0.4,5.9
		c0.5,0.6,1.2,0.9,2.2,0.9c2.1,0,4.5-1.6,4.6-1.7c0.2-0.1,3.2-2.5,4.4-4.8c0.8-1.4,1.4-2.5,1.8-3.3c1-1.8,1.1-2,0.9-2.4
		c-0.1-0.1-0.3-0.3-0.6-0.3c-0.1,0-0.2,0-0.3,0c-0.1,0-0.3,0-0.5,0c-0.5,0-1-0.2-1.5-0.5c-2.1-1.4-2.6-2.6-2.7-3.4
		c0-0.8,0.4-1.4,0.6-1.6c0.1-0.1,0.4-0.4,1.1-0.4c0.5,0,1,0.2,1.5,0.5c1.8,1,2.8,3.8,2.9,4.3c0,0.3,0,2.1-1,5.5
		C649.3,264.2,643.9,270.1,638.3,270.1z"/>
	<path d="M681.5,190c0.3,0,0.5,0.1,0.7,0.3c0.4,0.5,1.1,2,0.6,6.5c-1,10-13.9,23.8-20,30.5c-2.4,2.6-6,5.8-9.5,8.9
		c-2.5,2.2-4.9,4.4-6.5,6c-4.5,4.5-8.9,10-11,20.1c-0.6,3-0.4,5.1,0.5,6.3c0.5,0.6,1.3,1,2.1,1.1c-0.1,0-0.2,0-0.3,0
		c-0.4,0-0.9,0-1.3-0.1c-2.1-0.4-3.5-1.3-4.2-2.9c-1.6-3.6,0.6-10.4,5.9-18.6c4.2-6.5,8.8-13.4,12.9-19.5c3.2-4.7,6.1-9.2,8.4-12.7
		c3.9-6,14.7-20.4,17-22.9C678.8,191.1,680.5,190,681.5,190 M646.8,251.4c0.4,0,0.8,0.1,1.3,0.4c1.4,0.7,2.4,3,2.7,3.9
		c0,0.1,0,0.3,0,0.7c-0.2-0.1-0.4-0.2-0.7-0.2c-0.1,0-0.2,0-0.3,0c-0.1,0-0.3,0-0.4,0c-0.3,0-0.7,0-1.3-0.4c-1.5-1-2.4-2-2.4-3
		c0-0.6,0.3-1,0.4-1.1l0,0l0-0.1C646.1,251.6,646.3,251.4,646.8,251.4 M650.1,259.8c-0.1,0.4-0.2,0.7-0.3,1.1
		c-0.5,1.6-2.6,4.4-5.3,6.4c1-0.8,3-2.7,4-4.4C649.1,261.6,649.7,260.6,650.1,259.8 M681.5,189c-1.6,0-3.6,1.6-5.2,3.3
		c-2.4,2.6-13.2,17-17.1,23c-5.3,8.1-13.9,20.7-21.4,32.2c-7.5,11.5-9.5,21.5-1.1,23c0.5,0.1,1,0.1,1.4,0.1c5.9,0,11.4-6.1,12.4-9.3
		c1.2-3.9,1.1-5.7,1.1-5.7s-1.1-3.4-3.2-4.6c-0.7-0.4-1.3-0.5-1.8-0.5c-0.9,0-1.4,0.5-1.4,0.5c-0.8,0.6-1.9,3.2,2.1,5.7
		c0.7,0.4,1.3,0.5,1.8,0.5c0.3,0,0.6,0,0.8,0c0.6,0,0,0.5-2.5,5.3c-1.2,2.2-4.3,4.6-4.3,4.6s-2.4,1.6-4.3,1.6
		c-1.7,0-3.1-1.3-2.1-6.2c2.1-10.3,6.8-15.7,10.7-19.5c3.9-3.9,11.7-10.3,16-14.9c6.3-6.8,19.3-20.8,20.3-31
		C684.4,190.9,683.3,189,681.5,189L681.5,189z"/>
</g>
<g>
	<path d="M664.3,366.1c-0.5,0-0.9,0-1.4-0.1c-2.3-0.4-3.8-1.5-4.5-3.2c-1.6-3.8,0.5-10.7,5.9-19c4.2-6.5,8.8-13.4,12.9-19.5
		c3.2-4.7,6.1-9.2,8.4-12.7c4-6.1,14.7-20.4,17-22.9c1.8-2,3.6-3.1,4.8-3.1c0.4,0,0.8,0.1,1,0.5c0.6,0.7,1.2,2.4,0.8,6.9
		c-1,10.2-14,24.1-20.2,30.8c-2.4,2.6-6,5.8-9.5,8.9c-2.5,2.2-4.9,4.3-6.5,6c-4.4,4.4-8.8,9.9-10.8,19.8c-0.6,2.9-0.4,4.8,0.4,5.9
		c0.5,0.6,1.2,0.9,2.2,0.9c2.1,0,4.5-1.6,4.6-1.7c0.2-0.1,3.2-2.5,4.4-4.8c0.8-1.4,1.4-2.5,1.8-3.3c1-1.8,1.1-2,0.9-2.4
		c-0.1-0.1-0.3-0.3-0.6-0.3c-0.1,0-0.2,0-0.3,0c-0.1,0-0.3,0-0.5,0c-0.5,0-1-0.2-1.5-0.5c-2.1-1.4-2.6-2.6-2.7-3.4
		c0-0.8,0.4-1.4,0.6-1.6c0.1-0.1,0.4-0.4,1.1-0.4c0.5,0,1,0.2,1.5,0.5c1.8,1,2.8,3.8,2.9,4.3c0,0.3,0,2.1-1,5.5
		C675.3,360.2,669.9,366.1,664.3,366.1z"/>
	<path d="M707.5,286c0.3,0,0.5,0.1,0.7,0.3c0.4,0.5,1.1,2,0.6,6.5c-1,10-13.9,23.8-20,30.5c-2.4,2.6-6,5.8-9.5,8.9
		c-2.5,2.2-4.9,4.4-6.5,6c-4.5,4.5-8.9,10-11,20.1c-0.6,3-0.4,5.1,0.5,6.3c0.5,0.6,1.3,1,2.1,1.1c-0.1,0-0.2,0-0.3,0
		c-0.4,0-0.9,0-1.3-0.1c-2.1-0.4-3.5-1.3-4.2-2.9c-1.6-3.6,0.6-10.4,5.9-18.6c4.2-6.5,8.8-13.4,12.9-19.5c3.2-4.7,6.1-9.2,8.4-12.7
		c3.9-6,14.7-20.4,17-22.9C704.8,287.1,706.5,286,707.5,286 M672.8,347.4c0.4,0,0.8,0.1,1.3,0.4c1.4,0.7,2.4,3,2.7,3.9
		c0,0.1,0,0.3,0,0.7c-0.2-0.1-0.4-0.2-0.7-0.2c-0.1,0-0.2,0-0.3,0c-0.1,0-0.3,0-0.4,0c-0.3,0-0.7,0-1.3-0.4c-1.5-1-2.4-2-2.4-3
		c0-0.6,0.3-1,0.4-1.1l0,0l0-0.1C672.1,347.6,672.3,347.4,672.8,347.4 M676.1,355.8c-0.1,0.4-0.2,0.7-0.3,1.1
		c-0.5,1.6-2.6,4.4-5.3,6.4c1-0.8,3-2.7,4-4.4C675.1,357.6,675.7,356.6,676.1,355.8 M707.5,285c-1.6,0-3.6,1.6-5.2,3.3
		c-2.4,2.6-13.2,17-17.1,23c-5.3,8.1-13.9,20.7-21.4,32.2c-7.5,11.5-9.5,21.5-1.1,23c0.5,0.1,1,0.1,1.4,0.1c5.9,0,11.4-6.1,12.4-9.3
		c1.2-3.9,1.1-5.7,1.1-5.7s-1.1-3.4-3.2-4.6c-0.7-0.4-1.3-0.5-1.8-0.5c-0.9,0-1.4,0.5-1.4,0.5c-0.8,0.6-1.9,3.2,2.1,5.7
		c0.7,0.4,1.3,0.5,1.8,0.5c0.3,0,0.6,0,0.8,0c0.6,0,0,0.5-2.5,5.3c-1.2,2.2-4.3,4.6-4.3,4.6s-2.4,1.6-4.3,1.6
		c-1.7,0-3.1-1.3-2.1-6.2c2.1-10.3,6.8-15.7,10.7-19.5c3.9-3.9,11.7-10.3,16-14.9c6.3-6.8,19.3-20.8,20.3-31
		C710.4,286.9,709.3,285,707.5,285L707.5,285z"/>
</g>
<g>
	<path class="st2" d="M477.2,52.1c0.1-0.3,0.4-0.8,0.7-1.2c0.5-0.4,1.5-1.9,5.6-7.6c6.1-8.5,20.3-28.5,22.6-28.5
		C509.9,23.4,479.1,51.1,477.2,52.1C477.3,52.1,477.2,52.1,477.2,52.1z"/>
	<path d="M505.8,15.4c0.8,3.5-3.6,10.8-12.2,20.3c-5.4,5.9-10.9,11.1-14.1,13.9c0.9-1.2,2.2-3,4.3-6
		C489.5,35.6,502.3,17.6,505.8,15.4 M506.1,14.2c-3.7,0-28,36.3-28.6,36.3c0,0,0,0,0,0c0,0-1.5,2.2-0.6,2.2c0.1,0,0.3-0.1,0.6-0.2
		c2-1,33-29,29-38C506.4,14.3,506.3,14.2,506.1,14.2L506.1,14.2z"/>
</g>
<g>
	<path class="st2" d="M643.5,142.6c-0.2-0.2,0-1.6,0.4-2.8c0.5-0.5,1.7-2.1,5.5-7.5c6.1-8.5,20.3-28.5,22.6-28.5
		c3.8,8.6-26.3,37.8-28.3,38.8C643.6,142.6,643.5,142.6,643.5,142.6L643.5,142.6z"/>
	<path d="M671.8,104.4c0.8,3.5-3.5,11.1-11.9,21c-6.6,7.8-13.9,14.7-15.9,16.3c0.1-0.5,0.2-1.1,0.4-1.7c0.7-0.7,2-2.6,5.5-7.5
		C655.5,124.6,668.3,106.6,671.8,104.4 M672.1,103.2c-3.7,0-28,36.3-28.6,36.3c0,0,0,0,0,0c0,0-1.2,3.6,0,3.6c0.1,0,0.3,0,0.5-0.1
		c2-1,32.5-30.5,28.5-39.5C672.4,103.3,672.3,103.2,672.1,103.2L672.1,103.2z"/>
</g>
<g>
	<path class="st2" d="M56.5,338.6c-0.2-0.2,0-1.6,0.4-2.8c0.5-0.5,1.7-2.1,5.5-7.5c6.1-8.5,20.3-28.5,22.6-28.5
		c3.8,8.6-26.3,37.8-28.3,38.8C56.6,338.6,56.5,338.6,56.5,338.6L56.5,338.6z"/>
	<path d="M84.8,300.4c0.8,3.5-3.5,11.1-11.9,21c-6.6,7.8-13.9,14.7-15.9,16.3c0.1-0.5,0.2-1.1,0.4-1.7c0.7-0.7,2-2.6,5.5-7.5
		C68.5,320.6,81.3,302.6,84.8,300.4 M85.1,299.2c-3.7,0-28,36.3-28.6,36.3c0,0,0,0,0,0c0,0-1.2,3.6,0,3.6c0.1,0,0.3,0,0.5-0.1
		c2-1,32.5-30.5,28.5-39.5C85.4,299.3,85.3,299.2,85.1,299.2L85.1,299.2z"/>
</g>
<g>
	<path class="st2" d="M652.5,234.6c-0.2-0.2,0-1.6,0.4-2.8c0.5-0.5,1.7-2.1,5.5-7.5c6.1-8.5,20.3-28.5,22.6-28.5
		c3.8,8.6-26.3,37.8-28.3,38.8C652.6,234.6,652.5,234.6,652.5,234.6L652.5,234.6z"/>
	<path d="M680.8,196.4c0.8,3.5-3.5,11.1-11.9,21c-6.6,7.8-13.9,14.7-15.9,16.3c0.1-0.5,0.2-1.1,0.4-1.7c0.7-0.7,2-2.6,5.5-7.5
		C664.5,216.6,677.3,198.6,680.8,196.4 M681.1,195.2c-3.7,0-28,36.3-28.6,36.3c0,0,0,0,0,0c0,0-1.2,3.6,0,3.6c0.1,0,0.3,0,0.5-0.1
		c2-1,32.5-30.5,28.5-39.5C681.4,195.3,681.3,195.2,681.1,195.2L681.1,195.2z"/>
</g>
<g>
	<path class="st2" d="M679.6,328.7c-0.1-0.4,0.1-1.8,0.4-3l0.2-0.7l-0.2,0c1.6-4.6,23.9-35.4,27.9-35.4c0.1,0,0.1,0,0.2,0.1
		c3.1,6.7-26.5,37.7-28.3,38.9C679.6,328.6,679.6,328.7,679.6,328.7z"/>
	<path d="M707.7,290.2c0.4,1.5-0.3,6.2-12.3,20.6c-6.4,7.7-13.2,14.8-15.3,16.8c0.1-0.5,0.2-1.2,0.4-1.8l0.4-1.3h0
		c1.3-2.6,5.9-9.5,12.2-17.9C702.1,294.5,706.4,290.6,707.7,290.2 M707.9,289.1c-4.7,0-30.4,36.4-28.4,36.4c0,0,0,0,0,0
		c0,0-1.1,3.7,0,3.7c0.1,0,0.3-0.1,0.5-0.2c1.6-1,31.9-32.3,28.5-39.5C708.4,289.2,708.2,289.1,707.9,289.1L707.9,289.1z"/>
</g>
<g>
	<path d="M488.3,81.1c-1.7,0-2.9-0.5-3.5-1.4c-0.8-1.3-0.5-3.7,1.1-6.9l0.3-0.7l-0.7-0.1c-0.3,0-0.6-0.1-0.8-0.1
		c-2-0.4-7.2-2.3-8.6-2.9l0-0.7c1.5,0.9,5,2.7,9.9,2.7c0.2,0,0.8,0,0.8,0l0.2-0.4c0.9-1.5,2.1-3.1,3.9-4.9c1.9-1.9,5-4.3,6.8-4.9
		c0.5-0.2,0.9-0.2,1.3-0.2c1.8,0,3,1.5,3,3.8c0,3.1-6,6.1-11.8,7.2l-0.2,0l-0.1,0.2c-1.2,2.1-1.9,3.6-1.9,4.5c0,0.5,0.3,0.9,0.7,1.2
		c0.4,0.2,0.8,0.3,1.5,0.3c2.1,0,5.8-1.1,8.5-2c2.3-0.8,8.7-3.9,12.6-6.2c-0.2,0.4-0.3,0.7-0.2,0.9c0.3,0.8-1,2.8-1.8,3.5
		c-0.1,0.1-0.1,0.1-0.1,0.1c-0.1,0-0.2,0-0.3-0.1c-0.3-0.1-0.7-0.3-1.2-0.3c-0.9,0-2,0.4-3.3,1.2C498.7,78.6,492.1,81.1,488.3,81.1z
		 M498,63.8c-1.6,0-4.3,2.7-4.9,3.4c-0.5,0.6-1.1,1.5-1.7,2.4l-0.8,1.1l1.3-0.4c4.4-1.2,6.8-3.4,7.2-4.9c0.1-0.5,0-1-0.3-1.3
		C498.6,63.9,498.3,63.8,498,63.8z"/>
	<path d="M499,61.2c1.8,0,2.5,1.8,2.5,3.3c0,2.1-3.4,4.3-7.5,5.7c3.3-1.3,5.2-3.2,5.6-4.6c0.2-0.7,0-1.3-0.4-1.8
		c-0.3-0.3-0.8-0.5-1.2-0.5c-2,0-4.8,3-5.3,3.6c-0.4,0.6-1,1.3-1.5,2.1c-0.9,0.2-1.8,0.4-2.8,0.5c0,0,0,0,0,0c0.8-1,1.7-2.1,2.9-3.3
		c1.9-1.9,4.9-4.2,6.6-4.8C498.2,61.3,498.6,61.2,499,61.2 M510.5,70.7C510.5,70.8,510.5,70.8,510.5,70.7c0.1,0.5-0.8,2.2-1.6,2.9
		c0,0,0,0-0.1,0c-0.3-0.1-0.8-0.3-1.4-0.3c-1,0-2.1,0.4-3.5,1.3c-5.4,3.5-11.9,5.9-15.7,5.9c-1.6,0-2.6-0.4-3.1-1.1
		c-0.5-0.8-0.7-2.4,0.8-5.8c0.1,0,0.2,0,0.3,0c0.7,0,1.4,0,2.1-0.1c-0.6,1.3-0.9,2.3-0.9,3c0,0.6,0.3,1.9,2.7,1.9
		c1.8,0,4.7-0.7,8.6-2C501,75.7,506.6,73,510.5,70.7 M499,60.2c-0.5,0-1,0.1-1.5,0.3c-1.9,0.6-5,3-7,5s-3.2,3.6-4,5
		c0,0.1-0.1,0.1-0.1,0.2c0.7,0,1.4-0.1,2.1-0.2c1.2-0.2,2.3-0.4,3.3-0.6c0.7-1,1.3-1.8,1.7-2.4c0.7-0.8,3.2-3.2,4.5-3.2
		c0.2,0,0.4,0.1,0.5,0.2c0.8,0.8-1.2,3.9-6.7,5.4c-0.5,0.7-1,1.6-1.5,2.4c5.6-1.1,12.2-4.2,12.2-7.7C502.5,62,501.1,60.2,499,60.2
		L499,60.2z M513.5,67.5C513.5,67.5,513.5,67.5,513.5,67.5c-2,2-12,7-15,8c-2.7,0.9-6.2,1.9-8.3,1.9c-1,0-1.7-0.3-1.7-0.9
		c0-0.9,0.8-2.6,1.8-4.3c-1.4,0.3-2.8,0.4-4,0.4c-0.3,0-0.6,0-0.9,0c-3.2,6.6-1.1,9,2.9,9c4.4,0,11.1-2.8,16.2-6.1
		c1.4-0.9,2.4-1.2,3-1.2c0.8,0,1.2,0.4,1.5,0.4c0.1,0,0.3,0,0.5-0.2c0.9-0.7,2.4-2.9,2-4C511.3,70,513.6,67.5,513.5,67.5L513.5,67.5
		z M475.5,67.5l0,2c0.3,0.1,6.7,2.5,9,3c0.3,0.1,0.6,0.1,0.9,0.1c0.3-0.6,0.6-1.3,1-2c-0.2,0-0.3,0-0.5,0
		C479.5,70.7,475.5,67.5,475.5,67.5L475.5,67.5z M475.5,69.5l0,0.4L475.5,69.5C475.5,69.5,475.5,69.5,475.5,69.5L475.5,69.5z"/>
</g>
<g>
	<path d="M453.5,178.5c-1.9,0-3.2-0.5-3.8-1.6c-0.7-1.3-0.6-4.3,3.7-10.7c1.8-2.7,7.3-9.8,10.8-11.2c0.5-0.2,0.9-0.3,1.3-0.3
		c1.8,0,3,1.8,3,4.4c0,3.1-8.1,7-12.6,8.3l-0.2,0l-0.1,0.1c-2.6,3.7-3.6,5.8-3.1,7c0.2,0.6,0.8,1.2,2.2,1.2c2,0,5.1-1.3,7.8-2.5
		c1-0.4,1.9-0.8,2.7-1.1c2.4-0.9,3.8-2.4,4.6-3.3c0.2-0.2,0.4-0.4,0.5-0.5c0.1-0.1,0.6-0.3,1.2-0.3c0.7,0,1.2,0.2,1.3,0.5
		c0,0.1,0.2,0.9-2.2,2.8C465.6,175.3,458.1,178.5,453.5,178.5z M464.5,158.4c-1.6,0-4.3,3.1-4.9,3.9c-0.3,0.4-0.7,1-1.3,1.8l-2,2.7
		l2.3-1.4c4.8-3,6.9-4.4,7.1-5.6c0.1-0.3,0-0.7-0.3-0.9C465.1,158.5,464.8,158.4,464.5,158.4z"/>
	<path d="M465.5,155.2c1.7,0,2.5,2,2.5,3.9c0,2.1-4.8,5-9.2,6.8c0.1-0.1,0.1-0.2,0.2-0.3c5.4-3.3,7-4.5,7.2-5.8
		c0.1-0.5-0.1-0.9-0.4-1.3c-0.3-0.4-0.8-0.6-1.3-0.6c-2,0-4.8,3.5-5.3,4.1c-0.3,0.4-0.7,1-1.3,1.7l-0.3,0.4l-1.6,1l-1.5,0.9
		c-0.2,0.1-0.3,0.2-0.5,0.3c1.8-2.6,7.1-9.5,10.4-10.9C464.8,155.3,465.2,155.2,465.5,155.2 M452.6,168.4c0.1,0.3,0.4,0.8,1.3,0.9
		c-1.7,2.7-2.3,4.4-1.8,5.5c0.2,0.6,0.9,1.5,2.6,1.5c2.1,0,5.2-1.3,8-2.5c1-0.4,1.9-0.8,2.7-1.1c2.6-1,4-2.6,4.8-3.5
		c0.2-0.2,0.4-0.4,0.4-0.4c0.1-0.1,0.5-0.2,0.9-0.2c0.4,0,0.7,0.1,0.8,0.1c-0.1,0.2-0.4,0.9-2,2.2c-5,4-12.4,7.1-16.9,7.1
		c-1.2,0-2.7-0.2-3.3-1.3C449.7,175.8,449.4,173.6,452.6,168.4 M465.5,154.2c-0.5,0-1,0.1-1.5,0.3c-4,1.6-10,10-11,11.4
		c-6.5,9.6-4.5,13,0.5,13c4.9,0,12.6-3.3,17.5-7.3c3.9-3.2,2.2-4.1,0.5-4.1c-0.6,0-1.3,0.1-1.5,0.4c-0.7,0.6-2,2.6-5,3.8
		c-3,1.2-7.8,3.6-10.3,3.6c-0.8,0-1.4-0.3-1.7-0.9c-0.4-1.1,1.2-3.9,3.1-6.5c-0.9,0.3-1.6,0.4-2.1,0.4c-0.7,0-0.6-0.4,1-1.4
		c1.2-0.7,2.3-1.4,3.3-2c0.7-1,1.4-1.8,1.7-2.3c0.7-1,3.2-3.7,4.5-3.7c0.2,0,0.4,0.1,0.5,0.2c0.8,1-1.5,2.6-6.7,5.7
		c-0.7,0.9-1.5,1.9-2.2,3c4.4-1.2,12.9-5.2,12.9-8.7C469,156.3,467.6,154.2,465.5,154.2L465.5,154.2z"/>
</g>
<g>
	<path d="M543.1,269.2c-2.2,0-3.5-0.5-4.1-1.6c-0.7-1.3-0.5-4.3,4.4-10.9c1.4-1.8,7.7-9.5,11.5-10.8c0.4-0.1,0.8-0.2,1.2-0.2
		c0.7,0,1.3,0.3,1.8,0.8c0.8,0.8,1.2,2.3,1.1,3.9c-0.2,3.5-8.3,6.8-11.4,7.4c0.2-0.1,0.4-0.2,0.7-0.4c6.3-3.4,7.7-4.9,8-6.1
		c0.1-0.5,0-1-0.4-1.5c-0.2-0.3-0.6-0.5-1-0.5c-1.7,0-4.4,2.9-5,3.7c-0.3,0.4-0.8,1-1.4,1.7c-3.7,4.4-7,8.5-6.4,10.4
		c0.2,0.6,0.8,1.4,2.4,1.4c2,0,5-1.1,7.6-2.1c1-0.4,1.9-0.7,2.8-1c0.5-0.2,1.2-0.4,2.1-0.7c2.8-0.9,7.8-2.7,9.7-2.9
		c-0.2,0.2-0.4,0.4-0.8,0.7C560.1,264.7,549.2,269.2,543.1,269.2z"/>
	<path d="M556.1,246.2c0.6,0,1.1,0.2,1.4,0.6c0.7,0.7,1,2,0.9,3.5c-0.1,1.8-2.9,3.7-5.8,5.1c3-1.9,3.9-3,4.1-4
		c0.1-0.7,0-1.3-0.5-1.9c-0.3-0.4-0.8-0.7-1.4-0.7c-2,0-5,3.2-5.4,3.8c-0.3,0.4-0.8,1-1.4,1.7c-4.7,5.5-7.1,8.9-6.5,10.8
		c0.2,0.7,0.8,1.7,2.9,1.7c2.1,0,5.1-1.1,7.8-2.1c1-0.4,1.9-0.7,2.7-1c0.5-0.2,1.2-0.4,2.1-0.7c2-0.7,5-1.7,7.3-2.3
		c-5.8,3.8-15.6,7.8-21.2,7.8c-1.3,0-3.1-0.2-3.6-1.3c-0.5-1-0.6-3.7,4.4-10.3c1.3-1.8,7.6-9.4,11.2-10.6
		C555.4,246.3,555.8,246.2,556.1,246.2L556.1,246.2 M556.1,245.2c-0.4,0-0.8,0.1-1.3,0.2c-4.1,1.4-10.7,9.5-11.7,11
		c-7.4,9.9-5.3,13.3,0.1,13.3c6.3,0,17.2-4.6,22.9-8.7c1.6-1.2,1.7-1.6,0.9-1.6c-2.1,0-10,2.9-12.3,3.6c-3,1-7.6,3-10.2,3
		c-1,0-1.7-0.3-1.9-1c-0.7-2.2,6.2-9.6,7.8-11.6c0.7-0.9,3.3-3.5,4.6-3.5c0.2,0,0.4,0.1,0.6,0.3c0.9,1.2,0.3,2.7-7.4,6.8
		c-1.9,1-2,1.4-1.3,1.4c2.2,0,12.5-3.7,12.7-8C559.6,247.5,558.3,245.2,556.1,245.2L556.1,245.2z"/>
</g>
<g>
	<path d="M172.4,371.2c-1.8,0-3-0.5-3.5-1.5c-0.7-1.4-0.5-4.5,4.6-11.5c2-2.7,7.9-10,11.5-11.3c0.4-0.1,0.8-0.2,1.2-0.2
		c0.7,0,1.3,0.3,1.8,0.8c0.8,0.9,1.2,2.4,1.1,4.1c-0.2,3.3-8.5,6.9-13.1,8l-0.2,0l-0.1,0.1c-2.8,3.7-3.9,5.9-3.6,7.2
		c0.2,0.7,0.8,1.4,2.4,1.4c2,0,5-1.1,7.7-2.2c1-0.4,1.9-0.7,2.8-1c0.5-0.2,1.2-0.4,1.9-0.7c1.2-0.4,2.6-1,3.5-1.2
		c-0.3,0.3-0.8,0.7-1.5,1.2C183.6,368.4,176.6,371.2,172.4,371.2z M184.9,350.6c-1.7,0-4.4,3-5,3.8c-0.3,0.4-0.8,1-1.4,1.8l-2.1,2.6
		l2.3-1.3c5-2.8,7.2-4.2,7.5-5.4c0.1-0.3,0-0.7-0.2-1C185.7,350.8,185.3,350.6,184.9,350.6z"/>
	<path d="M186.1,347.3c0.6,0,1,0.2,1.4,0.6c0.7,0.8,1.1,2.1,1,3.7c-0.1,2.3-5.2,5.1-9.8,6.7c0.1-0.1,0.2-0.3,0.3-0.4
		c5.1-2.9,7.2-4.2,7.5-5.7c0.1-0.5,0-1-0.3-1.4c-0.3-0.4-0.8-0.7-1.4-0.7c-2,0-5,3.4-5.4,4c-0.3,0.4-0.8,1-1.4,1.8l-0.3,0.4
		l-1.6,0.9l-1.6,0.9c-0.2,0.1-0.4,0.2-0.6,0.4c1.8-2.5,7.8-9.8,11.3-11C185.5,347.3,185.8,347.3,186.1,347.3 M172.5,360.4
		C172.5,360.5,172.5,360.5,172.5,360.4c0.1,0.4,0.4,0.9,1.3,1c-1.9,2.8-2.6,4.5-2.3,5.7c0.2,0.7,0.8,1.8,2.9,1.8
		c2.1,0,5.1-1.2,7.8-2.2c1-0.4,1.9-0.7,2.8-1c0.6-0.2,1.2-0.4,1.9-0.7c0.2-0.1,0.5-0.2,0.7-0.3c-4.9,3.5-11.3,6-15.3,6
		c-1.1,0-2.6-0.2-3.1-1.2C168.9,368.7,168.5,366.4,172.5,360.4 M186.1,346.3c-0.4,0-0.9,0.1-1.3,0.2c-4.1,1.4-10.7,9.9-11.8,11.4
		c-7.5,10.2-5.6,13.8-0.7,13.8c4.5,0,11.6-3,16.6-6.7c2.2-1.7,2.5-2.2,1.9-2.2c-1,0-4.4,1.4-6.3,2c-3,1-7.6,3.1-10.3,3.1
		c-1,0-1.7-0.3-1.9-1.1c-0.4-1.2,1.5-4.1,3.5-6.7c-0.8,0.2-1.5,0.3-1.9,0.3c-0.9,0-0.8-0.4,1-1.4c1.2-0.7,2.4-1.3,3.4-1.9
		c0.8-1,1.5-1.8,1.9-2.3c0.7-1,3.3-3.6,4.6-3.6c0.2,0,0.4,0.1,0.6,0.3c0.8,1.1-1.7,2.6-7.1,5.7c-0.7,0.9-1.6,2-2.4,3
		c4.4-1,13.3-4.7,13.5-8.5C189.7,348.6,188.4,346.3,186.1,346.3L186.1,346.3z"/>
</g>
<g>
	<path d="M498.4,368.2c-1.8,0-3-0.5-3.5-1.5c-0.7-1.4-0.5-4.5,4.6-11.5c2-2.7,7.9-10,11.5-11.3c0.4-0.1,0.8-0.2,1.2-0.2
		c0.7,0,1.3,0.3,1.8,0.8c0.8,0.9,1.2,2.4,1.1,4.1c-0.2,3.3-8.5,6.9-13.1,8l-0.2,0l-0.1,0.1c-2.8,3.7-3.9,5.9-3.6,7.2
		c0.2,0.7,0.8,1.4,2.4,1.4c2,0,5-1.1,7.7-2.2c1-0.4,1.9-0.7,2.8-1c0.5-0.2,1.2-0.4,1.9-0.7c1.2-0.4,2.6-1,3.5-1.2
		c-0.3,0.3-0.8,0.7-1.5,1.2C509.6,365.4,502.6,368.2,498.4,368.2z M510.9,347.6c-1.7,0-4.4,3-5,3.8c-0.3,0.4-0.8,1-1.4,1.8l-2.1,2.6
		l2.3-1.3c5-2.8,7.2-4.2,7.5-5.4c0.1-0.3,0-0.7-0.2-1C511.7,347.8,511.3,347.6,510.9,347.6z"/>
	<path d="M512.1,344.3c0.6,0,1,0.2,1.4,0.6c0.7,0.8,1.1,2.1,1,3.7c-0.1,2.3-5.2,5.1-9.8,6.7c0.1-0.1,0.2-0.3,0.3-0.4
		c5.1-2.9,7.2-4.2,7.5-5.7c0.1-0.5,0-1-0.3-1.4c-0.3-0.4-0.8-0.7-1.4-0.7c-2,0-5,3.4-5.4,4c-0.3,0.4-0.8,1-1.4,1.8l-0.3,0.4
		l-1.6,0.9l-1.6,0.9c-0.2,0.1-0.4,0.2-0.6,0.4c1.8-2.5,7.8-9.8,11.3-11C511.5,344.3,511.8,344.3,512.1,344.3 M498.5,357.4
		C498.5,357.5,498.5,357.5,498.5,357.4c0.1,0.4,0.4,0.9,1.3,1c-1.9,2.8-2.6,4.5-2.3,5.7c0.2,0.7,0.8,1.8,2.9,1.8
		c2.1,0,5.1-1.2,7.8-2.2c1-0.4,1.9-0.7,2.8-1c0.6-0.2,1.2-0.4,1.9-0.7c0.2-0.1,0.5-0.2,0.7-0.3c-4.9,3.5-11.3,6-15.3,6
		c-1.1,0-2.6-0.2-3.1-1.2C494.9,365.7,494.5,363.4,498.5,357.4 M512.1,343.3c-0.4,0-0.9,0.1-1.3,0.2c-4.1,1.4-10.7,9.9-11.8,11.4
		c-7.5,10.2-5.6,13.8-0.7,13.8c4.5,0,11.6-3,16.6-6.7c2.2-1.7,2.5-2.2,1.9-2.2c-1,0-4.4,1.4-6.3,2c-3,1-7.6,3.1-10.3,3.1
		c-1,0-1.7-0.3-1.9-1.1c-0.4-1.2,1.5-4.1,3.5-6.7c-0.8,0.2-1.5,0.3-1.9,0.3c-0.9,0-0.8-0.4,1-1.4c1.2-0.7,2.4-1.3,3.4-1.9
		c0.8-1,1.5-1.8,1.9-2.3c0.7-1,3.3-3.6,4.6-3.6c0.2,0,0.4,0.1,0.6,0.3c0.8,1.1-1.7,2.6-7.1,5.7c-0.7,0.9-1.6,2-2.4,3
		c4.4-1,13.3-4.7,13.5-8.5C515.7,345.6,514.4,343.3,512.1,343.3L512.1,343.3z"/>
</g>
<g>
	<path d="M548,96.2c-5.3,0-10.1-2.3-13-6.1c-2.2-2.9-2.9-6.2-2-9.4c0.9-3.2,4-7,6.5-10.1c1.5-1.9,2.8-3.6,3.5-4.8
		c0.6-1.2,0.7-2.1,0.3-2.7c-0.2-0.4-0.7-0.8-1.7-0.8c-1.7,0-4.3,1-7.3,2.8c-4.4,2.7-7.9,8.2-10.4,12.2c-1.1,1.8-2.1,3.3-2.7,3.8
		c-0.1,0-0.9,0.1-2.3,0.1c-0.7,0-1.2,0-1.6-0.1c0.6-1,1.7-2.5,3-4.3c5-7.1,7.1-10.3,6.8-11.4c-0.1-0.2-0.2-0.4-0.4-0.5
		c-0.3-0.1-0.6-0.2-1.1-0.2c-2.7,0-8.2,3.1-8.4,3.2l-0.1,0L507.2,81c-0.4,0-1.4,0.1-2.3,0.1c-0.8,0-1.2-0.1-1.3-0.1c0,0,0,0,0,0
		c0.1-0.2,0.3-0.4,0.4-0.7c0.3-0.4,0.6-0.9,0.9-1.5c0.6-0.4,1.9-2.1,6.2-8c2.9-4,6.3-8.5,7.7-10c0.3-0.3,1.2-0.5,2.1-0.5
		c0.5,0,0.8,0.1,1,0.1c-1,1.8-2.8,3.7-2.8,3.7l-0.3,0.3l0.3,0.6l0.3,0c0.1,0,0.3,0,2.2-1.1c1.7-0.9,4.4-1.8,6.8-1.9h0
		c1.4,0,2.2,1.9,2.4,2.4l0.3,0.7l0.5-0.5c0.2-0.2,0.8-0.6,3-1.7c3.1-1.6,6.3-2.5,8.5-2.5c1.4,0,2.4,0.4,3,1.1c0.7,1,0.6,2.6-0.2,4.8
		c-0.6,1.8-2,3.5-3.4,5.4c-3,4-6.5,8.5-5.7,15.9c0.5,4.8,4.3,7.3,10.8,7.3c4,0,8.1-0.9,10.3-1.5l-0.1,0.2l1.7-0.6
		c15.8-5.1,26.9-9.5,35.8-13.1c8.6-3.5,15.3-6.1,22.3-7.8c-6.6,2-13,4.7-20.2,7.7c-3.3,1.4-6.7,2.8-10.3,4.3
		c-4.4,1.7-28.3,10.8-36.9,12C549.6,96.1,548.8,96.2,548,96.2z"/>
	<path d="M521,60.8c0.1,0,0.1,0,0.2,0c-1,1.6-2.4,2.9-2.4,3l-0.5,0.5l0.3,0.7l0.3,0.5h0.6c0.3,0,0.4,0,2.5-1.1
		c1.6-0.9,4.3-1.8,6.6-1.9c0.7,0,1.3,0.8,1.7,1.7c-0.1,0.3,0,0.5,0,0.6c0.1,0.3,0.5,0.7,1.1,0.7c0.1,0,0.2,0,0.2,0l1.2-0.2l-0.2-0.7
		c0.4-0.2,1.1-0.6,2.3-1.3c3.1-1.5,6.2-2.4,8.3-2.4c1.3,0,2.1,0.3,2.5,0.9c0.6,0.8,0.5,2.3-0.3,4.3c-0.6,1.7-1.9,3.4-3.3,5.2
		c-2.9,3.9-6.6,8.7-5.8,16.2c0.4,3.5,2.7,7.7,11.3,7.7c2.4,0,4.8-0.3,6.8-0.7c-1.6,0.4-3.1,0.7-4.2,0.9c-0.8,0.1-1.6,0.2-2.4,0.2
		c-5.1,0-9.8-2.2-12.6-5.9c-2.1-2.8-2.8-6-1.9-9c0.9-3.1,3.9-6.9,6.4-10c1.5-1.9,2.9-3.6,3.5-4.9c0.7-1.4,0.8-2.4,0.3-3.2
		c-0.3-0.5-0.9-1-2.2-1c-1.7,0-4.5,1.1-7.6,2.9c-4.5,2.7-8,8.3-10.6,12.4c-1,1.6-1.9,3-2.4,3.6c-0.3,0.1-1,0.1-2.1,0.1
		c-0.2,0-0.5,0-0.7,0c0.6-0.9,1.5-2.2,2.5-3.5c5.9-8.3,7.2-10.6,6.9-11.8c-0.1-0.4-0.3-0.6-0.6-0.8c-0.4-0.2-0.8-0.3-1.3-0.3
		c-2.8,0-8.1,3-8.7,3.3l-0.2,0.1l-0.1,0.2L507,80.5c-0.5,0-1.3,0.1-2,0.1c-0.2,0-0.4,0-0.5,0c0.2-0.4,0.5-0.8,0.8-1.4
		c0.7-0.6,2.1-2.4,6.3-8.1c2.9-4,6.3-8.4,7.7-10C519.4,61.1,520.1,60.8,521,60.8 M521,59.8c-0.9,0-2.1,0.2-2.5,0.7
		c-3,3.1-13.3,18-14,18c0,0,0,0,0,0c-1,2-2.1,2.7-1,3c0.3,0.1,0.9,0.1,1.5,0.1c1.2,0,2.5-0.1,2.5-0.1l10-13c0,0,5.5-3.2,8.2-3.2
		c0.3,0,0.6,0,0.8,0.2c1.3,0.6-8.5,13.3-10,16c-0.1,0.1,1.1,0.2,2.4,0.2c1.2,0,2.4-0.1,2.6-0.2c2-1.6,6.6-12.1,13-16
		c2.9-1.8,5.5-2.8,7.1-2.8c1.4,0,1.9,0.9,0.9,2.8c-1.7,3.2-8.5,9.8-10,15c-2.3,7.9,5.3,16.2,15.5,16.2c0.8,0,1.7-0.1,2.5-0.2
		c9-1.2,33.7-10.7,37-12c15-6,26.2-11.7,39-14c1.7-0.3,4.1-0.4,6.8-0.4c9.8,0,23.7,1.6,24.2,1.6c0.1,0-0.2,0-1-0.1
		c-8.8-1.2-15.8-1.8-21.9-1.8c-24.4,0-32.7,9.1-75.1,22.8c0,0,0,0,0,0c-0.3,0-6.1,1.8-11.7,1.8c-4.9,0-9.7-1.4-10.3-6.8
		c-1.2-10.7,7-15.4,9-21c1.8-4.9-0.1-6.5-3.2-6.5c-2.5,0-5.9,1.1-8.8,2.5c-2,1-2.8,1.5-3.1,1.7c0.1,0.2,0.1,0.3,0.1,0.3s0,0-0.1,0
		c-0.1,0-0.3,0,0-0.3c-0.3-0.7-1.2-2.8-2.8-2.8c0,0-0.1,0-0.1,0c-2.5,0.1-5.3,1.1-7,2c-1.7,0.9-2,1-2,1c0,0,0,0,0,0s2-2,3-4
		C522.7,60.1,521.9,59.8,521,59.8L521,59.8z"/>
</g>
<g>
	<path d="M401.9,270.2c-0.7,0-1.2,0-1.6-0.1c0.6-1,1.7-2.5,3-4.3c5-7.1,7.1-10.3,6.8-11.4c-0.1-0.2-0.2-0.4-0.4-0.5
		c-0.3-0.1-0.6-0.2-1.1-0.2c-2.7,0-8.2,3.1-8.4,3.2l-0.1,0l-9.9,12.9c-0.4,0-1.4,0.1-2.3,0.1c-0.7,0-1.1,0-1.3-0.1
		c0-1.6,6.7-9.9,9.9-13.9c1.8-2.2,3.2-3.9,3.8-4.8c0.3,0.2,1.1,1.3,1.7,2.4l0.1,0.3l0.3,0c0.1,0,0.3,0,2.2-1.1
		c1.7-0.9,4.4-1.8,6.8-1.9h0c1.4,0,2.2,1.9,2.4,2.4l0.3,0.7l0.5-0.5c0.2-0.2,0.8-0.6,3-1.7c2.1-1.1,4.9-1.7,7.4-1.7
		c2.6,0,4.5,0.7,5,1.7c0.5,1-0.3,2.3-1,3.2c-2.2,2.8-7.4,9.5-7,12.2c0.1,0.6,0.4,0.9,0.6,1c0.5,0.3,1.1,0.5,1.9,0.5
		c2.6,0,6.7-1.6,9.8-2.9c-3.9,2.5-8.1,4.1-11.4,4.1c-2.2,0-3.7-0.7-4.2-2c-1.1-2.6,1.4-7.5,7-13.3c0.9-0.9,1.2-1.7,0.9-2.4
		c-0.2-0.4-0.7-0.9-2.1-0.9c-2,0-4.9,1-7.5,2.5c-4.4,2.7-7.9,8.2-10.4,12.2c-1.1,1.8-2.1,3.3-2.7,3.8
		C404.1,270.1,403.2,270.2,401.9,270.2z"/>
	<path d="M425.2,249.8l0,1c2.3,0,4.1,0.6,4.5,1.5c0.4,0.8-0.4,2-1,2.7c-2.8,3.5-7.5,9.8-7.1,12.6c0.1,0.7,0.5,1.2,0.8,1.4
		c0.6,0.4,1.3,0.6,2.2,0.6c0.3,0,0.7,0,1.1-0.1c-0.9,0.2-1.9,0.3-2.7,0.3c-1.1,0-3.2-0.2-3.8-1.7c-0.4-0.9-1-4.5,6.9-12.7
		c1.1-1.1,1.4-2.1,1-2.9c-0.2-0.6-0.9-1.2-2.6-1.2c-2.1,0-5,1-7.7,2.6c-4.5,2.7-8,8.3-10.6,12.4c-1,1.6-1.9,3-2.4,3.6
		c-0.3,0.1-1,0.1-2.1,0.1c-0.2,0-0.5,0-0.7,0c0.6-0.9,1.5-2.2,2.5-3.5c5.9-8.3,7.2-10.6,6.9-11.8c-0.1-0.4-0.3-0.6-0.6-0.8
		c-0.4-0.2-0.8-0.3-1.3-0.3c-2.8,0-8.1,3-8.7,3.3l-0.2,0.1l-0.1,0.2l-9.7,12.6c-0.5,0-1.3,0.1-2,0.1c-0.3,0-0.5,0-0.6,0
		c1-2.4,6.8-9.5,9.6-13.1c1.5-1.9,2.7-3.4,3.4-4.4c0.3,0.4,0.8,1.2,1.2,1.9l0.3,0.5h0.6c0.3,0,0.4,0,2.5-1.1
		c1.6-0.9,4.3-1.8,6.6-1.9c0.7,0,1.3,0.8,1.7,1.7c-0.1,0.3,0,0.5,0,0.6c0.1,0.3,0.5,0.7,1.1,0.7c0.1,0,0.2,0,0.2,0l1.2-0.2l-0.2-0.7
		c0.4-0.2,1.1-0.6,2.3-1.3c2.1-1,4.8-1.6,7.2-1.6V249.8 M425.2,249.8c-2.5,0-5.4,0.6-7.7,1.7c-2,1-2.8,1.5-3.1,1.7
		c0.1,0.2,0.1,0.3,0.1,0.3s0,0-0.1,0c-0.1,0-0.3,0,0-0.3c-0.3-0.7-1.2-2.8-2.8-2.8c0,0-0.1,0-0.1,0c-2.5,0.1-5.3,1.1-7,2
		c-1.7,0.9-2,1-2,1c0,0,0,0,0,0s-1.4-2.7-2.2-2.7c-0.1,0-0.2,0.1-0.3,0.2c-2,3-16,19-13.5,19.5c0.3,0.1,0.9,0.1,1.5,0.1
		c1.2,0,2.5-0.1,2.5-0.1l10-13c0,0,5.5-3.2,8.2-3.2c0.3,0,0.6,0,0.8,0.2c1.3,0.6-8.5,13.3-10,16c-0.1,0.1,1.1,0.2,2.4,0.2
		c1.2,0,2.4-0.1,2.6-0.2c2-1.6,6.6-12.1,13-16c2.8-1.7,5.5-2.5,7.2-2.5c1.7,0,2.4,0.8,0.8,2.5c-10.5,10.9-8.5,16.1-2.4,16.1
		c4,0,9.8-2.3,14.9-6.6c0,0,0-0.1,0-0.1c-0.4,0-9.1,4.4-13.4,4.4c-0.7,0-1.3-0.1-1.7-0.4c-1.6-1.1,1.6-6.4,6.5-12.5
		C432.7,251.6,429.5,249.8,425.2,249.8L425.2,249.8z"/>
</g>
<g>
	<path d="M616.3,267.9c-1,0-2.4-0.3-3-1.6c-1-2.3,0.6-7.8,8.4-15.9c1-1,1.3-1.9,1-2.5c-0.2-0.4-0.7-1-2.2-1c-2.1,0-5.2,1-8,2.7
		c-4.8,2.9-8.5,8.8-11.2,13.2c-1.2,1.9-2.2,3.6-2.9,4.1c-0.1,0-1,0.1-2.5,0.1c-0.8,0-1.4,0-1.8-0.1c0.7-1,1.9-2.8,3.2-4.7
		c5.3-7.6,7.7-11.1,7.4-12.2c-0.1-0.2-0.2-0.4-0.4-0.5c-0.3-0.2-0.7-0.2-1.1-0.2c-2.9,0-8.8,3.3-9.1,3.5l-0.1,0l-10.7,13.9
		c-0.5,0-1.5,0.1-2.5,0.1c-0.8,0-1.2,0-1.4-0.1c-0.1-1.6,7.2-10.7,10.7-15c2-2.4,3.5-4.3,4.1-5.3c0.2,0.1,1.2,1.3,1.8,2.6l0.1,0.3
		l0.3,0c0.1,0,0.3,0,2.4-1.1c1.8-1,4.8-2,7.3-2.1c0,0,0,0,0,0c1.5,0,2.4,2,2.7,2.7l0.3,0.7l0.5-0.5c0.2-0.2,0.9-0.7,3.2-1.8
		c2.3-1.1,5.3-1.8,8-1.8c2.8,0,4.9,0.7,5.4,1.9c0.5,1.1-0.3,2.5-1.1,3.5c-2.4,3-8,10.2-7.5,13.1c0.1,0.6,0.4,0.9,0.6,1.1
		c0.2,0.2,0.5,0.2,0.9,0.2c2.6,0,9-4.3,16.1-9.3C626.7,264.8,619.9,267.9,616.3,267.9z"/>
	<path d="M621,245l0,1c2.5,0,4.5,0.6,5,1.6c0.4,0.9-0.5,2.2-1,3c-3,3.8-8.1,10.5-7.6,13.5c0.1,0.8,0.5,1.2,0.8,1.4
		c0.3,0.2,0.7,0.3,1.2,0.3c1.9,0,5.8-2.2,10.5-5.3c-6,5-10.7,6.9-13.5,6.9c-1.3,0-2.2-0.4-2.5-1.3c-0.9-2.1,0.7-7.5,8.3-15.3
		c1.1-1.2,1.5-2.2,1.1-3.1c-0.2-0.6-0.9-1.3-2.7-1.3c-2.2,0-5.4,1.1-8.3,2.8c-4.9,2.9-8.6,9-11.4,13.4c-1.1,1.7-2.1,3.3-2.7,3.9
		c-0.3,0.1-1.1,0.1-2.3,0.1c-0.3,0-0.6,0-0.9,0c0.7-1,1.7-2.4,2.8-3.9c6.3-8.9,7.8-11.4,7.4-12.6c-0.1-0.4-0.3-0.6-0.6-0.8
		c-0.4-0.2-0.8-0.3-1.3-0.3c-3,0-8.7,3.2-9.3,3.5l-0.2,0.1l-0.1,0.2l-10.5,13.7c-0.5,0-1.4,0.1-2.2,0.1c-0.3,0-0.6,0-0.8,0
		c0.9-2.5,7.3-10.3,10.5-14.3c1.7-2.1,3-3.7,3.8-4.8c0.4,0.4,0.9,1.3,1.3,2.1l0.3,0.5h0.6c0.3,0,0.4,0,2.6-1.2
		c1.7-0.9,4.6-1.9,7.2-2c0.8,0,1.5,0.9,1.9,1.9c-0.1,0.3,0,0.5,0,0.6c0.1,0.3,0.5,0.7,1.1,0.7c0.1,0,0.3,0,0.3,0l1.2-0.2l-0.2-0.7
		c0.4-0.3,1.2-0.7,2.6-1.4c2.2-1.1,5.2-1.8,7.8-1.8V245 M621,245c-2.7,0-5.8,0.6-8.3,1.9c-2.1,1.1-3,1.6-3.3,1.9
		c0.1,0.2,0.1,0.3,0.1,0.3s0,0-0.1,0c-0.1,0-0.3,0,0-0.3c-0.3-0.8-1.3-3-3.1-3c0,0-0.1,0-0.1,0c-2.7,0.1-5.7,1.1-7.6,2.2
		c-1.9,1-2.1,1.1-2.2,1.1c0,0,0,0,0,0s-1.5-2.9-2.4-2.9c-0.1,0-0.2,0.1-0.3,0.2c-2.2,3.2-17.3,20.5-14.6,21c0.4,0.1,1,0.1,1.6,0.1
		c1.3,0,2.7-0.1,2.7-0.1l10.8-14c0,0,6-3.4,8.8-3.4c0.4,0,0.7,0.1,0.9,0.2c1.4,0.7-9.2,14.4-10.8,17.3c-0.1,0.2,1.2,0.2,2.6,0.2
		c1.3,0,2.6-0.1,2.8-0.2c2.1-1.7,7.1-13.1,14-17.3c3-1.8,6-2.7,7.8-2.7c1.9,0,2.5,0.9,0.9,2.7c-10.5,10.9-10.8,18.3-5.1,18.3
		c4.5,0,12.8-4.5,22.7-15.4c0.1-0.1,0.2-0.2,0.2-0.2c0,0-0.1,0-0.1,0.1c-5,3.5-16.6,12-19.9,12c-0.2,0-0.4,0-0.6-0.2
		c-1.7-1.2,1.7-6.9,7-13.5C629.1,247,625.7,245,621,245L621,245z M640.8,251.5c-0.1,0-0.7,0.4-1.6,1.3
		C640.5,251.9,640.9,251.5,640.8,251.5L640.8,251.5z"/>
</g>
<g>
	<path d="M245.2,369.5c-1.5,0-2.5-0.6-3-1.6c-1.1-2.4,0.3-8.1,7.7-16.4c0.9-1,1.2-1.9,0.9-2.6c-0.2-0.4-0.7-0.9-2.1-0.9
		c-2,0-4.9,1.1-7.5,2.8c-4.4,2.9-7.9,8.8-10.4,13.2c-1.1,1.9-2.1,3.6-2.7,4.1c-0.1,0-0.9,0.1-2.3,0.1c-0.7,0-1.3,0-1.6-0.1
		c0.6-1,1.7-2.8,3-4.7c4.9-7.6,7.1-11.1,6.8-12.2c-0.1-0.2-0.2-0.4-0.3-0.5c-0.3-0.2-0.6-0.2-1.1-0.2c-2.7,0-8.2,3.3-8.4,3.5
		l-0.1,0.1l-9.9,13.9c-0.4,0-1.4,0.1-2.3,0.1c-0.7,0-1.1,0-1.3-0.1c-0.1-1.6,6.6-10.7,9.9-15.1c1.8-2.4,3.2-4.3,3.8-5.2
		c0.3,0.2,1.1,1.4,1.7,2.6l0.1,0.3l0.3,0c0.1,0,0.3,0,2.2-1.1c1.7-1,4.4-2,6.8-2.1c0,0,0,0,0,0c1.1,0,1.9,1.4,2.4,2.6l0.3,0.7
		l0.6-0.5c0.2-0.2,0.8-0.7,3-1.8c2.1-1.1,4.9-1.8,7.4-1.8c2.5,0,4.4,0.7,4.9,1.8c0.6,1.1-0.2,2.6-1,3.6c-2.2,3-7.4,10.2-7,13.2
		c0.1,0.5,0.3,0.8,0.6,1c0.2,0.2,0.5,0.2,0.9,0.2h0c2.6,0,9.2-4.9,16.3-10.3c0.5-0.4,1-0.7,1.4-1.1
		C256.1,365.7,248.9,369.5,245.2,369.5z"/>
	<path d="M249.2,346l0,1c2.3,0,4,0.6,4.5,1.5c0.4,0.9-0.3,2.2-0.9,3.1c-2.8,3.8-7.5,10.5-7.1,13.5c0.1,0.7,0.5,1.2,0.8,1.4
		c0.3,0.2,0.7,0.3,1.1,0.3c2.4,0,7.5-3.6,13.7-8.2c-7.3,7.6-13,10.4-16.1,10.4c-1.3,0-2.1-0.5-2.5-1.3c-1.1-2.4,0.8-8.3,7.6-15.9
		c1.1-1.2,1.4-2.2,1-3.1c-0.3-0.6-0.9-1.2-2.5-1.2c-2.1,0-5.1,1.1-7.8,2.8c-4.5,2.9-8,9-10.6,13.4c-1,1.7-1.9,3.3-2.4,3.9
		c-0.3,0.1-1,0.1-2.1,0.1c-0.3,0-0.5,0-0.8,0c0.6-1,1.6-2.4,2.6-4c5.8-9,7.2-11.4,6.9-12.6c-0.1-0.3-0.3-0.6-0.6-0.8
		c-0.4-0.2-0.8-0.3-1.3-0.3c-2.8,0-8.1,3.2-8.7,3.6l-0.2,0.1l-0.1,0.2l-9.7,13.7c-0.5,0-1.3,0.1-2,0.1c-0.3,0-0.5,0-0.7,0
		c0.8-2.4,6.8-10.4,9.7-14.3c1.5-2,2.7-3.6,3.4-4.7c0.3,0.5,0.8,1.2,1.2,2l0.3,0.6h0.6c0.3,0,0.4,0,2.5-1.2c1.6-0.9,4.2-1.9,6.6-2
		c0.6,0,1.3,0.9,1.7,1.9c-0.1,0.3,0,0.5,0,0.7c0.1,0.3,0.5,0.7,1.1,0.7c0.1,0,0.3,0,0.3,0l1.1-0.2l-0.2-0.7c0.4-0.3,1.1-0.7,2.4-1.4
		c2.1-1.1,4.7-1.8,7.2-1.8V346 M249.2,346c-2.5,0-5.4,0.6-7.7,1.9c-2,1.1-2.8,1.6-3.1,1.9c0.1,0.2,0.1,0.3,0.1,0.3s0,0-0.1,0
		c-0.1,0-0.3,0,0-0.3c-0.3-0.8-1.2-3-2.8-3c0,0-0.1,0-0.1,0c-2.5,0.1-5.3,1.1-7,2.2c-1.7,1-2,1.1-2,1.1c0,0,0,0,0,0
		s-1.4-2.9-2.2-2.9c-0.1,0-0.2,0.1-0.3,0.2c-2,3.2-16,20.5-13.5,21.1c0.3,0.1,0.9,0.1,1.5,0.1c1.2,0,2.5-0.1,2.5-0.1l10-14
		c0,0,5.5-3.4,8.2-3.4c0.3,0,0.6,0.1,0.8,0.2c1.3,0.7-8.5,14.4-10,17.3c-0.1,0.2,1.1,0.2,2.4,0.2c1.2,0,2.4-0.1,2.6-0.2
		c2-1.7,6.6-13.1,13-17.3c2.8-1.8,5.5-2.7,7.2-2.7c1.7,0,2.4,0.9,0.8,2.7c-9.9,11.1-10,18.9-4.3,18.9c4.3,0,11.8-4.4,20.8-15.1
		c1-1.2,1.8-2.1,1.6-2.1c-0.1,0-0.6,0.3-1.6,1c-4.7,3.5-15.4,12-18.4,12c-0.2,0-0.4,0-0.6-0.2c-1.6-1.2,1.6-6.9,6.5-13.5
		C256.7,348,253.5,346,249.2,346L249.2,346z"/>
</g>
<path class="st1" d="M580.5,63.5c2.8-1.9,9.1-19.2,17-34s20-31,17-29C605.6,6.4,568.7,71.8,580.5,63.5z"/>
<path class="st1" d="M578.5,72.5c0.1-1-1.7-0.4-2,0c-0.9,1.2-2.5,5.6-1,6C577.1,78.9,578.3,74.2,578.5,72.5z"/>
<path class="st1" d="M879.5,358.5c3.2-1.8,10.6-26.4,19.6-39.9s25-30.4,21.4-29.1C905.5,294.8,866.1,366,879.5,358.5z"/>
<path class="st1" d="M879.5,365.5c0.1-1-3.7-1.4-4-1c-0.9,1.2-0.5,3.6,1,3.9C878.1,368.8,879.3,367.1,879.5,365.5z"/>
<path class="st1" d="M112.5,137.5c-16.2-5.9-27.5,2.1-30,10c-7,22,20.7,44,54,34c10-3,20.3-11.9,29-27c10.5-18.3,24.2-37.4,36-46
	c8.2-6,13-8,12-6c-0.7,1.5-55,58-50,75c2.3,7.7,9-1,21-17c15.1-20.1,17-29,39-50c2.3-2.2-3,5-3,5s-20,24-26,34s-11,18-13,28
	s0,21,5,29s10,11,17,14s53.4,8.2,70-28c11.3-24.7-9.1-42-27-39c-12,2-20,9-20,9c-10.1,8.1,4.5-4.7,16-7c10-2,25,1,29,12
	c1.8,4.9,4,10,2,18c-1.7,6.7-6,17-17,25s-55,20-66-5c-7-16-5-28,5-47s33-45,33-50c0-13-35.4,34.6-52,59c-17,25-10.8-4.4,10-28
	c15.9-18,28-33,28-33s2-2,2-5s-5.3-3.5-12,1c-12,8-24.3,24-37,43c-8.1,12.1-14.3,25.5-29,32c-9,4-26.4,9.5-40-1c-35-27,1-52,20-33
	C123.1,148.1,123.5,141.5,112.5,137.5z"/>
<path class="st1" d="M258.5,153.5c-3,2-18,15-13,21c3.4,4.1,7,3,7,3s7.6-1.1,6-9c-1-5-3.3-2.4-4-4c0,0,11.8-9.2,11-11
	C265.3,153,258.5,153.5,258.5,153.5z"/>
<path class="st1" d="M226.5,177.5c9-3,20-10,22-13s-1,4-1,4s-17,11-19,10S226,177.7,226.5,177.5z"/>
<path class="st3" d="M252.5,166.5c0,0-3,1-3,6s6,1,6,1s3-3,1-5S252.5,166.5,252.5,166.5z"/>
<path class="st1" d="M255.5,165.5c0,0,7,0,11-3s6-7,9-9c0.8-0.6,6,0,6,0c-19.6,16.2-11.8,28.9,1,24c13-5,35-19,57-14
	c4.8,1.1-13.1-5.8-41,10c-30,17-39-1-33-8C267.7,162.9,255.6,170.2,255.5,165.5z"/>
<path class="st1" d="M277,352.8c9.9-4.9,29.1-13,47.3-9.5c4,0.7-10.9-4-34.1,6.8c-15.1,7-17.4,6.8-19.9,6.1
	C267.9,355.5,272.9,354.8,277,352.8z"/>
<path class="st1" d="M802.5,350.5c0,0,7,0,11-3s6-7,9-9c0.8-0.6,6,0,6,0c-19.6,16.2-11.8,28.9,1,24c13-5,35-19,57-14
	c4.8,1.1-13.1-5.8-41,10c-30,17-39-1-33-8C814.7,347.9,802.6,355.2,802.5,350.5z"/>
<path class="st1" d="M346.5,179.5l11-6c0,0,17-11,28-16c4.1-1.8,10-3,11,0c2,6-5.4,13.7-9,18c-5,6-14.7,6.7-14,3c0,0,0-3,1-3
	s2,2,2,2s-1.2,3.7,4,0c7-5,14-15,14-18c0-2,1-5-9-1s-20,11-25,14S346.5,179.5,346.5,179.5L346.5,179.5z"/>
<path class="st1" d="M515.5,246.5c2,6-4.4,13.7-8,18c-5,6-14.7,6.7-14,3c0,0,0-3,1-3s2,2,2,2s-1.2,3.7,4,0c7-5,14-15,14-18
	c0-2-19,14-24,17S514.5,243.5,515.5,246.5z"/>
<path class="st1" d="M390.5,170.5c3,0,3.1,0.4,4,0c1.9-0.9,4.2-5.2,6-6c0.7-0.3,1.4,0.5,0.9,1.1c-2,3-5.1,7.1-7,11.1
	c-4.4,0.8-0.2-3-0.9-4.2c-0.5-0.9-4,0-4,0L390.5,170.5z"/>
<path class="st1" d="M510.5,259.5c3,0,3.1,0.4,4,0c1.9-0.9,4.2-5.2,6-6c0.7-0.3,1.4,0.5,0.9,1.1c-2,3-5.1,7.1-7,11.1
	c-4.4,0.8-0.2-3-0.9-4.2c-0.5-0.9-4,0-4,0L510.5,259.5z"/>
<path class="st1" d="M407.5,160.5c5.1-3.8,10-5,10-5s4-1,5,1s0,2-1,3c-0.4,0.4-1-2-1-2c-1.1-2.6-14.2,5.2-16,14c-1.5,7.5,3,5,3,5
	l15-5l-1,1c0,0-11.6,7.8-16,8C396.4,181,399.5,166.5,407.5,160.5z"/>
<path class="st1" d="M527.5,249.5c5.1-3.8,10-5,10-5s4-1,5,1s0,2-1,3c-0.4,0.4-1-2-1-2c-3.9-2.4-15.7,8.1-17,15
	c-2.3,12.4,17.4,0.1,19-1l-1,1c0,0-11.6,7.8-16,8C516.4,270,519.5,255.5,527.5,249.5z"/>
<path class="st1" d="M687.5,159.5c3.8-5.1,12-9,15-4c1.2,1.9,0,2-1,3c-0.4,0.4-1-2-1-2c-1.1-2.6-13.2,5.5-16,14c-4,12,11.2,4.7,23,0
	c2.5-1,11.3-4.7,19.6-8.1c8.6-3.6,25.7-5.9,25.4-5.9c-6,1-20.3,4.4-26,7.1C694.5,178.6,663.9,190.9,687.5,159.5z"/>
<path class="st1" d="M570.5,251.9c3.8-4.8,12-8.4,15-3.7c1.2,1.8,0,1.9-1,2.8c-0.4,0.4-1-1.9-1-1.9c-1.1-2.4-13.2,5.1-16,13
	c-4,11.1,5,3.2,19,0.4C587.9,262.2,544.6,284,570.5,251.9z"/>
<path class="st1" d="M639.5,349.5c3.8-5.1,12-9,15-4c1.2,1.9,0,2-1,3c-0.4,0.4-1-2-1-2c-1.1-2.6-13.2,5.5-16,14c-4,12,8,3,22,0
	C659.9,360.2,613.6,384.1,639.5,349.5z"/>
<path class="st1" d="M194.5,352.5c3.9-5.1,12-9,15-4c1.2,1.9,0,2-1,3c-0.4,0.4-1-2-1-2c-1.1-2.6-13.2,5.5-16,14c-4,12,12-4,26-4
	C218.3,359.5,167.6,388.2,194.5,352.5z"/>
<path class="st1" d="M445.5,157.5c-2.5-2.6-7.2-4.7-15,2c-7,6-12.6,14.7-8,18C430.9,183.4,454.3,166.7,445.5,157.5z"/>
<path class="st3" d="M438.5,157.5c-2.4,1.2-7,4-9,7s-3,4-5,10c-1.7,5.1,10.1,0.6,12-1c2.8-2.3,7-7,8-12s-1.6-5.2-3-5
	C440.7,156.6,439.2,157.1,438.5,157.5z"/>
<path class="st1" d="M453.5,154.5c-1.6,0.7-5,5-5,5c-4,4-53.2,83.3-60,72c-8.3-13.7,65.9-66.1,66-63l-1-1c-0.6-1.3-61,37-67,57
	c-4.4,14.6,11.8,14.1,22-2c5.4-8.4,20.1-30,27-40c4.8-7,20.1-27.7,20-28C455.4,154.3,453.7,154.4,453.5,154.5z"/>
<path class="st1" d="M465.5,172.5l-1,3c0,0,1.2,2.1,4,3c3,1,15-5,19-9c0.6-0.6,0-1,0-1s0.2-1.2,0-1c-4,4-15,10-17,9s-1-3-1-3l2-4
	l-1-1L465.5,172.5z"/>
<path class="st1" d="M498.5,154.5c0.7-0.7,6.7-0.8,6,0c-7,8-16,17-16,20s11.6-1.3,14-4c7.7-8.9,2.7,1.2-1,3c-5,4-20.9,11.1-18,1
	C485.9,166.3,494.5,158.5,498.5,154.5z"/>
<path class="st1" d="M457.5,343.5c0.7-0.7,6.7-0.8,6,0c-7,8-16,17-16,20s11.6-1.3,14-4c7.7-8.9,2.7,1.2-1,3c-5,4-20.9,11.1-18,1
	C444.9,355.3,453.5,347.5,457.5,343.5z"/>
<path class="st1" d="M475.5,343.5c0.7-0.7,6.7-0.8,6,0c-7,8-16,17-16,20s11.6-1.3,14-4c7.7-8.9,2.7,1.2-1,3c-5,4-20.9,11.1-18,1
	C462.9,355.3,471.5,347.5,475.5,343.5z"/>
<path class="st1" d="M492.5,343.5c0.7-0.7,6.7-0.8,6,0c-7,8-16,17-16,20s11.6-1.3,14-4c7.7-8.9,2.7,1.2-1,3c-5,4-20.9,11.1-18,1
	C479.9,355.3,488.5,347.5,492.5,343.5z"/>
<path class="st1" d="M515.5,155.5c0.7-0.7,6.7-0.7,6,0c-9,8-16,19-7,21c3.5,0.8,45.2-12.6,42-11c-6,3-27,9-32,11c-6.8,2.7-27,7-24-1
	S511.5,159.5,515.5,155.5z"/>
<path class="st1" d="M600.5,174.5c12-5,39-28.1,41-31c5-7,0,4,0,4c-9.6,8-35,29-52,32C583.6,180.5,598.5,175.3,600.5,174.5z"/>
<path class="st1" d="M12.5,372.5c12-5,39-28.1,41-31c5-7,0,4,0,4c-9.6,8-35,29-52,32C-4.4,378.5,10.5,373.3,12.5,372.5z"/>
<path class="st1" d="M668.5,156.5c-7-7.5-16.2,3.2-20,8.7c-11.5,17,3.3,16.2,11,7.5C659.5,172.7,671.2,159.4,668.5,156.5z"/>
<path class="st3" d="M661.5,156.5c-6.2,0.8-16.2,15.4-11,18C654.5,176.5,676.5,154.5,661.5,156.5z"/>
<path class="st1" d="M671.5,153.5l-6,10.5l-6,8.7c0,0-4,8.7,7,6.2c11-2.5,18-13.4,18-13.4c-0.2,2.5-20.5,12.9-20,7.2
	c0.5-5.9,7-13.2,11-19.2C675.9,152.9,671.5,153.5,671.5,153.5z"/>
<path class="st1" d="M706.5,344.5c-7-7.5-16.2,3.2-20,8.7c-11.5,17,3.3,16.2,11,7.5C697.5,360.7,709.2,347.4,706.5,344.5z"/>
<path class="st1" d="M787.5,343.5c-7-7.5-16.2,3.2-20,8.7c-11.5,17,3.3,16.2,11,7.5C778.5,359.7,790.2,346.4,787.5,343.5z"/>
<path class="st1" d="M742.5,343.5c-7-7.5-16.2,3.2-20,8.7c-11.5,17,3.3,16.2,11,7.5C733.5,359.7,745.2,346.4,742.5,343.5z"/>
<path class="st3" d="M699.5,344.5c-6.2,0.8-16.2,15.4-11,18C692.5,364.5,714.5,342.5,699.5,344.5z"/>
<path class="st3" d="M779.5,343.5c-6.2,0.8-16.2,15.4-11,18C772.5,363.5,794.5,341.5,779.5,343.5z"/>
<path class="st3" d="M734.5,343.5c-6.2,0.8-16.2,15.4-11,18C727.5,363.5,749.5,341.5,734.5,343.5z"/>
<path class="st1" d="M709.5,341.5l-6,10.5l-6,8.7c0,0-4,8.7,7,6.2c11-2.5,18-13.4,18-13.4c-0.2,2.5-20.5,12.9-20,7.2
	c0.5-5.9,7-13.2,11-19.2C713.9,340.9,709.5,341.5,709.5,341.5z"/>
<path class="st1" d="M434.5,347.5c-7-7.5-16.2,3.2-20,8.7c-11.5,17,3.3,16.2,11,7.5C425.5,363.7,437.2,350.4,434.5,347.5z"/>
<path class="st3" d="M427.5,347.5c-6.2,0.8-16.2,15.4-11,18C420.5,367.5,442.5,345.5,427.5,347.5z"/>
<path class="st1" d="M439,343.3l-6.9,10.3l-6.7,8.5c0,0-4.8,8.7,6.3,7.1c11-1.6,18.9-12.3,18.9-12.3c-0.4,2.6-21.4,11.6-20.3,5.7
	c1.1-6.1,8.1-13.1,12.6-19C443.4,343,439,343.3,439,343.3z"/>
<path class="st1" d="M252.5,254.5c-7-7.5-16.2,3.2-20,8.7c-11.5,17,3.3,16.2,11,7.5C243.5,270.7,255.2,257.4,252.5,254.5z"/>
<path class="st3" d="M245.5,254.5c-6.2,0.8-16.2,15.4-11,18C238.5,274.5,260.5,252.5,245.5,254.5z"/>
<path class="st1" d="M255.5,251.5l-6,10.5l-6,8.7c-3.3,6.6,10.7,12.2,35-0.2c28.7-14.7,31-6,32-7c2.1-2.1-8.9-5.1-21,0
	c-36,15-41.3,10.5-41,7.2c0.5-5.9,7-13.2,11-19.2C259.9,250.9,255.5,251.5,255.5,251.5z"/>
<path class="st1" d="M763.5,155.5"/>
<path class="st1" d="M204.5,262.5c0,0-21,11-28,13s-8,3-8,3s9-1,17-5s17-8,17-8L204.5,262.5z"/>
<path class="st1" d="M211.5,253.5c-5,5-12,14-18,22c-0.8,1,4.2,1,5,0c4.8-6,11.8-16,18-22C217.4,252.6,212.4,252.6,211.5,253.5z"/>
<path class="st1" d="M224.5,253.5c-2.9,2.9-6.6,7.2-10.3,11.9c-11,14.2,5.3,13.9,17.3,2.1c2.2-2.2-15.1,7.1-16,5
	c-1.3-3,10.3-15.4,14-19C230.4,252.6,225.4,252.6,224.5,253.5z"/>
<path class="st1" d="M203.5,266.5c0,0,3,4,11,0s-1,2-1,2s-11,4-11-1S203.5,266.5,203.5,266.5z"/>
<path class="st1" d="M396.5,347.5c0,0-27,19-34,21s-8,3-8,3s9-2,17-6s22-13,22-13L396.5,347.5z"/>
<path class="st1" d="M397.5,346.5c-5,5-12,14-18,22c-0.8,1,4.2,1,5,0c4.8-6,11.8-16,18-22C403.4,345.6,398.4,345.6,397.5,346.5z"/>
<path class="st1" d="M410.5,346.5c-2.9,2.9-6.6,7.2-10.3,11.9c-11,14.2-1.7,18.1,14.3,0.1c2.1-2.3-12.1,9.1-13,7
	c-1.3-3,10.3-15.4,14-19C416.4,345.6,411.4,345.6,410.5,346.5z"/>
<path class="st1" d="M389.5,359.5c0,0,3,4,11,0s-1,2-1,2s-11,4-11-1S389.5,359.5,389.5,359.5z"/>
<path class="st1" d="M350.5,273.5c11-3,14-4,40-21c4.9-3.2,11-2,10,0c-1.3,2.5-2,4-2,4l-2,1c0,0,2-3,1-5s-7,2-7,2s-24.7,17.4-35,19
	C342.5,275.5,350.5,273.5,350.5,273.5z"/>
<path class="st1" d="M443.5,252.5c-16.3,11.2-9.2,29.4,12,9c1.4-1.4,8.9-9.1,6-12c-4-4-13.1,1-8,6c0.7,0.7,3,0.3,3,1
	c0,2-0.6,3.6-6,8c-12.4,10.1-16.2-2.7-4-11C447.2,253.1,444.2,252.1,443.5,252.5z"/>
<path class="st1" d="M666,248.9c-18,12.3-10.1,32.3,13.2,9.9c1.5-1.5,4.5-10.1,1.3-13.4c-4.4-4.4-9.6,2.5-4,8
	c0.8,0.8,3.8-0.9,3.8-0.1c0,2.2-0.7,4-6.6,8.8c-13.7,11.2-17.8-2.9-4.4-12.1C670,249.6,666.7,248.5,666,248.9z"/>
<path class="st1" d="M457.5,254.5c2,0.4,2.7-2.8,2-4C457.8,247.4,454.3,253.8,457.5,254.5z"/>
<path class="st1" d="M678.5,246.5"/>
<path class="st1" d="M459.5,254.5c3,0,7-1,9-2s3.8-3,5-3c0.4,0,0,1,0,1s-1.4,1.4-2,2c-2,2-11,5-14,4
	C456.8,256.3,458.8,254.5,459.5,254.5z"/>
<path class="st1" d="M649.5,253.5l4,1c0,0,7,1,9-1c0.2-0.2-2,2-2,2h-5l-7-1v-1H649.5z"/>
<path class="st1" d="M694.5,344.5c0.2-0.1-1.8,3.9-3,4c-9,1-17-1-17-1S685.5,349.5,694.5,344.5z"/>
<path class="st1" d="M680.5,253.5c2.3,1.6,8.4-0.9,11-2c3.5-1.5,37-17,37-17s-45,20-46.6,16c-0.4-1.1-3.6-0.2-4.4-1
	c-0.5-0.5-0.7-2.7,0-3c0.7-0.3,1.7,1.3,2,2C680,249.7,679.5,252.8,680.5,253.5z"/>
<path class="st1" d="M54.5,361.5c8.3,4.3,40-12,40-12s-33.5,13.1-40,8C53.7,356.9,53.6,361,54.5,361.5z"/>
<path class="st1" d="M121.5,371.5c0,0,12.2-5,22-12c7.1-5.1,11.4-12.1,16-15c1.1-0.7,1,5,2,6c1.9,1.9,7.6-0.6,5,2
	c-19.2,19.2-5.7,16.3,9,5c-3.5,11.3-38.8,27-16-3c0.3-0.4-1.6-0.8-2-2c-0.5-1.5,0.4-3.8-1-3c-2.9,1.6-7.4,7.8-14,12
	C133.1,367.4,121.5,371.5,121.5,371.5z"/>
<path class="st1" d="M269.5,346.5c-1,0-3.9,3.1-8,9c-8.9,12.7,4,24,13,5c3.1-6.5-5.2-5.6-5-4c0.1,0.9,1.6,0.8,2.4,1.5
	c0.7,0.6,0.9,1.8-0.4,4.5c-3,6-12.3,6.4-6-3c4-6,7-10,9-13C275.1,345.7,269.5,346.5,269.5,346.5z"/>
<path class="st1" d="M754.7,339.6c-1.1,0-4.4,3.5-9.1,10.2c-10.1,14.5,4.6,27.3,14.8,5.7c3.5-7.4-6-6.4-5.7-4.6
	c0.1,1,1.8,0.9,2.8,1.7c0.8,0.7,1.1,2-0.5,5.1c-3.4,6.8-14,7.3-6.8-3.4c4.6-6.8,8-11.4,10.2-14.8C761,338.6,754.7,339.6,754.7,339.6
	z"/>
<path class="st1" d="M800.5,338.8c-1-0.1-4,3.2-8.4,9.7c-9.5,13.8,1.9,27.5,12,6.6c3.5-7.2-4.6-6.7-4.5-4.9c0.1,1,1.5,1,2.2,1.9
	c0.6,0.7,0.8,2.1-0.8,5.1c-3.4,6.6-12.3,6.4-5.5-3.8c4.3-6.5,7.5-10.9,9.7-14.1C805.9,338.2,800.5,338.8,800.5,338.8z"/>
<path class="st1" d="M542.5,341.5c2-2.9,1.3-7.7,14-10c5-0.9,14-3,15-4s-4,6-12,6C549.8,333.5,542.1,342.1,542.5,341.5z"/>
<path class="st1" d="M610.5,368.5c20-9,16-8,26-15c1.2-0.8-0.1,4.5-1,5C631.5,360.5,610.5,368.5,610.5,368.5z"/>
<path class="st1" d="M739.5,350.5c-1.2,7.4-34,65-49.1,63.8c-5.9-0.5-0.1-12.5,7.4-21.8c11.4-14.2,51.7-47,51.7-47l-3,6
	c-16.7,13-38.2,31.7-49,45c-9.9,12.2-10.4,20.1,2,12c7.2-4.7,20-30,32-49S739.5,350.5,739.5,350.5z"/>
<path class="st1" d="M755.9,349.8c0,0,4.6,0.7,8.6-1.3s13.6-6.6,13.6-6.6l-0.6,1.6l-10,5l-8,3L755.9,349.8z"/>
<path class="st1" d="M788.5,350.5c3-5,11-11,11-11s-0.2,7-2,7C795.5,346.5,787.2,352.6,788.5,350.5z"/>
<path class="st1" d="M785.5,345.5c5-5,25-70,55-59c6.4,2.3,14-1.8,20-2c0.6,0-12.2,7.7-21,5c-16-5-26,7-52.3,57.8
	C786.9,347.9,785.5,345.5,785.5,345.5z"/>
</svg>
