<?xml version="1.0" encoding="utf-8"?>
<!-- Generator: Adobe Illustrator 21.0.2, SVG Export Plug-In . SVG Version: 6.00 Build 0)  -->
<svg version="1.1" id="Слой_1" xmlns="http://www.w3.org/2000/svg" xmlns:xlink="http://www.w3.org/1999/xlink" x="0px" y="0px"
	 viewBox="0 0 980 234" style="enable-background:new 0 0 980 234;" xml:space="preserve">
<style type="text/css">
	.st0{fill:none;stroke:#000000;stroke-width:0.5;stroke-linecap:round;stroke-linejoin:round;}
	.st1{stroke:#BF0000;stroke-miterlimit:10;}
	.st2{stroke:#000000;stroke-miterlimit:10;}
	.st3{fill:#FFFFFF;stroke:#000000;stroke-miterlimit:10;}
	.st4{fill:#FFFFFF;}
</style>
<g>
	<path d="M28,100.6c-8.4,0-18.3-3.5-23.5-13c0.8,1.4,1.9,2.7,3,3.9c5.2,5.5,13.1,8.7,21.2,8.7c4.8,0,9.3-1.1,13.1-3.2
		c9-5,17.8-18.6,18.2-19.2l15-21c0.2-0.3,18.1-27.1,23-34c0.1-0.1,0.7-0.3,1.4-0.3c0.2,0,0.4,0,0.5,0c-11.4,19.6-40,59.8-48.7,68.6
		C45.1,97.2,36.7,100.6,28,100.6C28,100.6,28,100.6,28,100.6z M1,75.7C0.5,70,1.6,64.9,4.3,61.4c2.8-3.6,7-5.5,12.6-5.5
		c3.3,0,7,0.7,11.1,1.9l0.5,1.4c-0.7-0.4-1.6-0.8-2.9-1.2c-1.6-0.5-4.4-1.1-7.6-1.1C12,56.9,1.8,59.1,1,73.5C1,74.2,1,75,1,75.7z"/>
	<path d="M99,23C87.4,42.9,59.4,82.1,50.8,90.8c-1.6,1.6-3.4,3.1-5.4,4.3c7.8-6,14.6-16.5,14.9-17l15-21
		c0.2-0.3,17.9-26.8,22.9-33.9C98.4,23.1,98.7,23.1,99,23 M16.7,56.5c-3.4,0.2-7.7,1.1-11,4.2C8.3,57.9,12,56.5,16.7,56.5 M99.3,22
		c-0.8,0-1.6,0.2-1.8,0.5c-5,7-23,34-23,34l-15,21c0,0-9,14-18,19c-3.9,2.1-8.3,3.2-12.8,3.2c-13.8,0-28-9.6-27.2-26.2
		c0.7-13.2,9.6-16.1,16.6-16.1c3.1,0,5.9,0.6,7.4,1.1c3,1,4,2,4,2s-0.8-2.3-1-3c-4.4-1.4-8.3-2-11.5-2c-15.3,0-18.8,13.7-15.5,26
		c3.6,13.3,14.7,19.6,26.5,19.6c8.5,0,17.2-3.3,23.5-9.6c9-9,38-50,49-69C100.7,22.2,100.1,22,99.3,22L99.3,22z"/>
</g>
<g>
	<path d="M120.5,134.8c-6.5,0-13.5-0.9-20.8-2.8c-13-3.2-21.8-9.6-26.2-19c-6.5-14.1-1.2-31.8,2.5-39.2c4.6-9.3,14.1-26.1,19.9-31.9
		c0.1,0,0.4-0.1,0.9-0.1c-4,6.1-12.6,21.4-16.7,30.6c-3.7,8.2-10,38.5,2.1,48.6c8.7,7.2,24.7,12.1,39.9,12.1c7,0,13.6-1,19.5-3
		c6.4-2.1,18.4-8.3,26.3-25.3c7.3-15.6,0.6-28.6-8.1-35.6c-5-4-10.1-5.9-15.8-5.9c-4,0-7.6,0.9-10.6,1.8c-2.5,0.7-6.9,2.5-10.9,4.5
		c2.5-2.2,8.4-6.2,14.2-7.5c0.9-0.2,2.8-0.5,5.3-0.5c6.5,0,16,2.1,24.2,12.4c3.6,4.6,9.1,13.9,4.9,25.5
		C167.2,110,154.5,134.8,120.5,134.8z"/>
	<path d="M95.1,43.4c-4.3,7-11.8,20.4-15.5,28.7c-3.7,8.3-10,38.9,2.3,49.2c8.7,7.3,24.9,12.2,40.2,12.2c6.4,0,12.5-0.8,18-2.5
		c-5.6,2-12.1,3.3-19.7,3.3c-6.4,0-13.4-0.9-20.7-2.7c-12.9-3.2-21.6-9.5-25.8-18.8c-6.4-13.9-1.2-31.5,2.5-38.8
		C80.7,65.3,89.3,50,95.1,43.4 M141.9,62c6.4,0,15.7,2.1,23.8,12.2c3.6,4.5,9,13.7,4.8,25c0,0.1-0.1,0.2-0.1,0.4
		c3.8-13.5-2.5-24.5-10.3-30.8c-5.1-4-10.3-6-16.1-6c-4,0-7.7,0.9-10.8,1.8c-1.6,0.5-4,1.4-6.6,2.5c2.8-1.8,6.4-3.7,10.1-4.5
		C137.6,62.3,139.4,62,141.9,62 M96.8,41.2c-0.5,0-1.1,0.1-1.3,0.3c-6,6-15.8,23.6-20,32c-5,10-17.2,48.8,24,59
		c7.8,1.9,14.7,2.8,21,2.8c35.2,0,47.7-26.7,51-35.8c4-11-0.6-20.5-5-26C158,62.9,148.1,61,141.9,61c-2.6,0-4.5,0.3-5.4,0.5
		c-8.2,1.8-16.9,9.3-15.7,9.3c0.1,0,0.4-0.1,0.7-0.3c4-2,9.1-4.2,12-5c3.1-0.9,6.7-1.8,10.5-1.8c4.7,0,10,1.4,15.5,5.8
		c7,5.6,15.9,18.1,8,35c-7,15-17.4,22.1-26,25c-6.2,2.1-12.8,2.9-19.4,2.9c-15.9,0-31.5-5.2-39.6-11.9c-12-10-5.5-40.1-2-48
		c4-9,13-25,17-31C97.6,41.3,97.3,41.2,96.8,41.2L96.8,41.2z"/>
</g>
<g id="XMLID_2_">
	<g>
		<path d="M61.5,43.5c-16.4-1.4-15-14.9-14-18c0,0,1.3-7.6,12-11c12.5-4,24.8-2.3,27-2c14.9,1.8,29.9,5.8,43,5
			c29.7-1.8,52-12.2,52.2-12.2c-0.1,0.1-0.8,0.4-2.2,1.2c-24.6,13.2-50,13.5-69,11c-8.7-1.2-24-4.5-35-4c-21,1-23.5,7.2-25,10
			c-5.7,10.3,4.5,15.7,10,17c5.9,1.4,20.6-4.8,20-6l1,2C81.5,36.5,73.5,44.5,61.5,43.5z"/>
	</g>
	<g>
		<path class="st0" d="M181.7,5.3C181.7,5.3,181.7,5.3,181.7,5.3"/>
		<path class="st0" d="M181.7,5.3c-0.3,0-22.6,10.4-52.2,12.2c-13.1,0.8-28.1-3.2-43-5c-2.2-0.3-14.5-2-27,2c-10.7,3.4-12,11-12,11
			c-1,3.1-2.4,16.6,14,18c12,1,20-7,20-7l-1-2c0.6,1.2-14.1,7.4-20,6c-5.5-1.3-15.7-6.7-10-17c1.5-2.8,4-9,25-10
			c11-0.5,26.3,2.8,35,4c19,2.5,44.4,2.2,69-11C180.9,5.7,181.6,5.4,181.7,5.3z"/>
	</g>
</g>
<path class="st1" d="M48.5-7.5"/>
<g>
	<path d="M904.5,86.8c-2,0-3.3-0.6-4.1-1.7c-1.3-2-0.6-5.9,2-11.1c0.9-1.7,2.1-3.6,3.9-5.7c1.9-2.2,5-4.9,6.8-5.6
		c0.5-0.2,0.9-0.3,1.3-0.3c1.8,0,3,1.8,3,4.4c0,2.5-5,5.1-9.8,6.9c3.2-1.9,6.6-4.8,6.9-6.3c0.1-0.4-0.1-0.7-0.2-0.9
		c-0.2-0.3-0.5-0.4-0.9-0.4c-1.6,0-4.3,3.1-4.9,3.9c-0.6,0.9-1.4,2.1-2,3.3l-0.9,1.6l0,0c-1.5,2.7-2.2,4.7-2.2,5.8
		c0,0.6,0.2,1,0.7,1.3c0.4,0.2,0.9,0.3,1.5,0.3c1.7,0,4.6-0.8,8.5-2.3c0.3-0.1,1-0.4,2.1-0.9c3.8-1.7,12.8-5.6,21.9-8.7
		c5.9-2,15.2-2.4,22-2.4c1.2,0,2.4,0,3.6,0c-10.5,0-18.2,0.9-22.9,2.5c-8.6,2.9-20.8,9.8-21.1,10.1
		C914.6,84.3,908.5,86.8,904.5,86.8z"/>
	<path d="M914.5,63c1.7,0,2.5,2,2.5,3.9c0,1.3-1.9,2.9-5.1,4.5c1.6-1.3,2.9-2.8,3.1-3.9c0.1-0.5,0-0.9-0.3-1.3
		c-0.3-0.4-0.8-0.6-1.3-0.6c-2,0-4.9,3.5-5.3,4.1c-0.6,0.8-1.3,1.9-1.9,3.1c-0.9,0.5-1.8,0.9-2.6,1.2c-0.3,0.1-0.6,0.2-0.8,0.3
		c0,0,0-0.1,0.1-0.1c0.8-1.7,2.1-3.5,3.9-5.5c2.2-2.5,5.1-4.9,6.6-5.5C913.8,63.1,914.1,63,914.5,63L914.5,63 M937.6,71.2
		c-8.2,3.3-17.8,8.8-18.2,9c-5,3.7-11,6.2-14.9,6.2c-1.8,0-3-0.5-3.6-1.5c-0.7-1.1-1-3.5,1-8.3c0.2,0.1,0.4,0.2,0.7,0.2
		c0.4,0,1.1-0.1,1.9-0.4c-0.9,1.9-1.4,3.4-1.4,4.3c0,0.5,0.2,2.1,2.7,2.1c1.8,0,4.7-0.8,8.7-2.3c0.3-0.1,1-0.4,2.1-0.9
		C920.2,78,928.8,74.2,937.6,71.2 M914.5,62c-0.5,0-1,0.1-1.5,0.3c-1.9,0.7-5,3.5-7,5.8c-2,2.3-3.2,4.2-4,5.8
		c-4.9,10-2.4,13.5,2.5,13.5c4.4,0,10.7-2.8,15.5-6.3c0.2-0.2,12.4-7.1,21-10c5.8-2,15.5-2.4,23.7-2.4c7.9,0,14.5,0.4,15.2,0.4
		c0.1,0,0.1,0,0.1,0c-1.1-0.6-10-1.5-19.8-1.5c-8,0-16.6,0.6-22.2,2.5c-11.5,3.9-22.5,9-24,9.6c-2.7,1-6.2,2.2-8.3,2.2
		c-1,0-1.7-0.3-1.7-1.1c0-1.3,1.1-3.7,2.3-5.9c-1.9,0.6-3.4,1-3.8,1c-0.3,0,0-0.2,1.5-0.8c1-0.4,2-0.8,3-1.4c0.8-1.3,1.5-2.5,2-3.3
		c0.7-1,3.2-3.7,4.5-3.7c0.2,0,0.4,0.1,0.5,0.2c0.8,0.9-2.9,4.4-7,6.7c-0.2,0.4-0.4,0.8-0.7,1.2c4.6-1.5,11.7-4.6,11.7-7.9
		C918,64.1,916.6,62,914.5,62L914.5,62z"/>
</g>
<g>
	<path d="M768.5,176.8c-2,0-3.3-0.6-4.1-1.7c-1.3-2-0.6-5.9,2-11.1c0.9-1.7,2.1-3.6,3.9-5.7c1.9-2.2,5-4.9,6.8-5.6
		c0.5-0.2,0.9-0.3,1.3-0.3c1.8,0,3,1.8,3,4.4c0,2.5-5,5.1-9.8,6.9c3.2-1.9,6.6-4.8,6.9-6.3c0.1-0.4-0.1-0.7-0.2-0.9
		c-0.2-0.3-0.5-0.4-0.9-0.4c-1.6,0-4.3,3.1-4.9,3.9c-0.6,0.9-1.4,2.1-2,3.3l-0.9,1.6l0,0c-1.5,2.7-2.2,4.7-2.2,5.8
		c0,0.6,0.2,1,0.7,1.3c0.4,0.2,0.9,0.3,1.5,0.3c2.2,0,5.8-1.2,8.5-2.3c0.3-0.1,1-0.4,2.1-0.9c3.8-1.7,12.8-5.6,21.9-8.7
		c5.9-2,15.2-2.4,22-2.4c1.2,0,2.4,0,3.6,0c-10.5,0-18.2,0.9-22.9,2.5c-8.6,2.9-20.8,9.8-21.1,10.1
		C778.6,174.3,772.5,176.8,768.5,176.8z"/>
	<path d="M778.5,153c1.7,0,2.5,2,2.5,3.9c0,1.3-1.9,2.9-5.1,4.5c1.6-1.3,2.9-2.8,3.1-3.9c0.1-0.5,0-0.9-0.3-1.3
		c-0.3-0.4-0.8-0.6-1.3-0.6c-2,0-4.9,3.5-5.3,4.1c-0.6,0.8-1.3,1.9-1.9,3.1c-0.9,0.5-1.8,0.9-2.6,1.2c-0.3,0.1-0.6,0.2-0.8,0.3
		c0,0,0-0.1,0.1-0.1c0.8-1.7,2.1-3.5,3.9-5.5c2.2-2.5,5.1-4.9,6.6-5.5C777.8,153.1,778.1,153,778.5,153L778.5,153 M801.6,161.2
		c-8.2,3.3-17.8,8.8-18.2,9c-5,3.7-11,6.2-14.9,6.2c-1.8,0-3-0.5-3.6-1.5c-0.7-1.1-1-3.5,1-8.3c0.2,0.1,0.4,0.2,0.7,0.2
		c0.4,0,1.1-0.1,1.9-0.4c-0.9,1.9-1.4,3.4-1.4,4.3c0,0.5,0.2,2.1,2.7,2.1c1.8,0,4.7-0.8,8.7-2.3c0.3-0.1,1-0.4,2.1-0.9
		C784.2,168,792.8,164.2,801.6,161.2 M778.5,152c-0.5,0-1,0.1-1.5,0.3c-1.9,0.7-5,3.5-7,5.8c-2,2.3-3.2,4.2-4,5.8
		c-4.9,10-2.4,13.5,2.5,13.5c4.4,0,10.7-2.8,15.5-6.3c0.2-0.2,12.4-7.1,21-10c5.8-2,15.5-2.4,23.7-2.4c7.9,0,14.5,0.4,15.2,0.4
		c0.1,0,0.1,0,0.1,0c-1.1-0.6-10-1.5-19.8-1.5c-8,0-16.6,0.6-22.2,2.5c-11.5,3.9-22.5,9-24,9.6c-2.7,1-6.2,2.2-8.3,2.2
		c-1,0-1.7-0.3-1.7-1.1c0-1.3,1.1-3.7,2.3-5.9c-1.9,0.6-3.4,1-3.8,1c-0.3,0,0-0.2,1.5-0.8c1-0.4,2-0.8,3-1.4c0.8-1.3,1.5-2.5,2-3.3
		c0.7-1,3.2-3.7,4.5-3.7c0.2,0,0.4,0.1,0.5,0.2c0.8,0.9-2.9,4.4-7,6.7c-0.2,0.4-0.4,0.8-0.7,1.2c4.6-1.5,11.7-4.6,11.7-7.9
		C782,154.1,780.6,152,778.5,152L778.5,152z"/>
</g>
<g>
	<path d="M292.3,176.8c-2,0-3.4-0.6-4.1-1.8c-1.3-2.1-0.6-6,2-11.3c0.1-0.1,0.3-0.6,0.3-0.6l0.1-0.2c0.9-1.5,2-3.1,3.6-4.9
		c2-2.3,5.1-5,6.9-5.7c0.5-0.2,0.9-0.3,1.3-0.3c2.1,0,3,2.3,3.1,4.5c0.1,1.6-0.4,3-1.3,4c-1.5,1.6-4.2,2.4-8,2.5
		c3.2-1.3,5.8-4,6.3-5.6c0.2-0.6,0-1-0.1-1.2c-0.2-0.3-0.5-0.4-0.9-0.4c-1.7,0-4.4,3.1-5,4c-0.5,0.8-1.2,1.8-1.8,2.9l-0.6,1.1l0,0
		c-1.3,2.3-2.7,5.3-2.7,6.9c0,0.6,0.2,1,0.7,1.3c0.4,0.2,0.9,0.3,1.5,0.3c2.2,0,5.9-1.2,8.6-2.3c0.3-0.1,1-0.4,2.1-0.9
		c3.9-1.7,13-5.7,22.3-8.8c4.8-1.6,7.9-2.4,9.4-2.6c-1,0.5-3,1.4-6.7,2.6c-8.7,2.9-21.1,10-21.5,10.2
		C302.6,174.3,296.4,176.8,292.3,176.8z"/>
	<path d="M302.4,152.6c1.7,0,2.5,2.1,2.6,4c0.1,1.5-0.3,2.7-1.2,3.6c-1,1.1-2.8,1.8-5.2,2.1c2.3-1.5,3.9-3.5,4.3-4.8
		c0.3-0.9,0-1.4-0.3-1.7c-0.3-0.4-0.8-0.6-1.3-0.6c-2,0-4.9,3.5-5.4,4.2c-0.5,0.7-1.1,1.6-1.6,2.6c-0.5,0.1-1,0.2-1.5,0.2
		c-0.4,0-0.8,0-1.2-0.1c0.8-1.2,1.7-2.4,2.8-3.7c2.2-2.5,5.1-5,6.7-5.6C301.7,152.7,302,152.6,302.4,152.6 M326.5,160.7
		c-8.5,3.3-18.8,9.2-19.1,9.4c-5.1,3.7-11.1,6.3-15.1,6.3c-1.8,0-3.1-0.5-3.7-1.5c-0.8-1.3-1.1-4.2,1.9-10.5
		c0.9,0.1,1.7,0.2,2.5,0.2c-1.5,2.8-2.3,4.9-2.3,6.1c0,0.5,0.2,2.1,2.7,2.1c1.8,0,4.8-0.8,8.8-2.3c0.3-0.1,1-0.4,2.1-0.9
		C308.3,167.8,317.4,163.8,326.5,160.7 M302.4,151.6c-0.5,0-1,0.1-1.5,0.3c-1.9,0.7-5.1,3.5-7.1,5.9c-1.7,2-2.8,3.6-3.6,5
		c0.3,0.1,0.6,0.2,0.9,0.2c0.6,0.2,1.2,0.3,1.9,0.3c0.7,0,1.5-0.1,2.2-0.3c0.7-1.2,1.3-2.2,1.8-2.9c0.7-1,3.2-3.7,4.5-3.7
		c0.2,0,0.4,0.1,0.5,0.2c0.8,0.9-2.6,5.2-6.9,6.4c-0.1,0.2-0.2,0.4-0.4,0.6c0.3,0,0.5,0,0.8,0c5.8,0,10.8-1.6,10.6-7
		C305.8,153.7,304.5,151.6,302.4,151.6L302.4,151.6z M336.5,157.1c-1.3,0-4.8,0.8-10.2,2.6c-11.7,4-22.9,9.2-24.4,9.7
		c-2.7,1-6.3,2.3-8.4,2.3c-1.1,0-1.7-0.3-1.7-1.1c0-1.5,1.5-4.5,2.9-7c-1.6,0-3.2-0.2-4.7-0.4c-0.1,0.1-0.1,0.3-0.2,0.4
		c-5,10.1-2.5,13.8,2.6,13.8c4.4,0,10.8-2.8,15.7-6.5c0.2-0.2,12.6-7.2,21.3-10.2C336.1,158.5,338.2,157.1,336.5,157.1L336.5,157.1z
		 M278.3,160c-1.8,0,4.6,2.3,11.6,3.2c0.1-0.1,0.2-0.3,0.2-0.4C282.8,160.7,279.3,160,278.3,160L278.3,160z"/>
</g>
<g>
	<path d="M709.7,86.5c-0.5,0-1,0-1.5-0.1c-2.6-0.4-4.4-1.6-5.2-3.6c-1.7-4.1,0.7-11.4,6.7-20.1c4.7-6.9,9.9-14.3,14.5-20.7
		c3.5-5,6.9-9.8,9.5-13.5C738.1,22,750.2,6.7,752.8,4c2.1-2.1,4.1-3.4,5.4-3.4c0.5,0,0.9,0.2,1.3,0.6c0.7,0.7,1.3,2.6,0.8,7.3
		c-1.2,10.8-15.7,25.6-22.7,32.7c-2.7,2.8-6.8,6.2-10.7,9.5c-2.8,2.4-5.5,4.6-7.3,6.4c-4.9,4.7-9.8,10.5-12.1,21.1
		c-0.6,3-0.5,5,0.4,6.1c0.6,0.7,1.4,1,2.4,1c2.3,0,5-1.7,5.1-1.8c0.2-0.1,3.6-2.6,5-5.1c0.9-1.5,1.5-2.7,2-3.5
		c1.1-1.9,1.3-2.1,1-2.6c-0.1-0.2-0.3-0.3-0.6-0.3c-0.1,0-0.2,0-0.3,0c-0.1,0-0.3,0-0.5,0c-0.6,0-1.2-0.2-1.8-0.5
		c-2.4-1.5-3-2.8-3-3.6c0-0.9,0.4-1.5,0.7-1.7c0.1-0.1,0.5-0.4,1.3-0.4c0.5,0,1.1,0.2,1.8,0.5c2,1,3.2,4.1,3.3,4.5
		c0,0.3,0,2.2-1.2,5.9C722.1,80.2,716,86.5,709.7,86.5z"/>
	<path d="M758.2,1.2L758.2,1.2c0.4,0,0.7,0.1,0.9,0.4c0.5,0.5,1.2,2.1,0.7,6.9c-1.1,10.6-15.6,25.4-22.5,32.4
		c-2.7,2.8-6.7,6.2-10.6,9.5c-2.8,2.4-5.5,4.6-7.3,6.4c-5,4.8-10,10.6-12.3,21.3c-0.7,3.1-0.5,5.3,0.5,6.6c0.5,0.6,1.3,1.2,2.8,1.2
		c2.4,0,5.2-1.8,5.4-1.9l0,0l0,0c0.1-0.1,3.6-2.7,5.1-5.2c0.9-1.5,1.5-2.6,2-3.5c0.1-0.2,0.2-0.4,0.3-0.6c-0.2,0.6-0.3,1.3-0.6,2
		c-1,3.2-6.9,9.2-13,9.2c-0.5,0-1,0-1.5-0.1c-2.5-0.4-4.1-1.5-4.8-3.3c-1.6-3.9,0.8-11.1,6.7-19.6c4.7-6.9,9.9-14.2,14.5-20.7
		c3.5-5,6.9-9.8,9.5-13.5c4.4-6.4,16.5-21.7,19.1-24.3C755.1,2.4,757,1.2,758.2,1.2 M719.2,66.5c0.5,0,1,0.1,1.5,0.4
		c1.6,0.8,2.7,3.2,3.1,4.2c0,0.1,0,0.4-0.1,0.9c-0.2-0.2-0.5-0.3-0.9-0.3c-0.1,0-0.2,0-0.4,0c-0.1,0-0.3,0-0.5,0
		c-0.3,0-0.9,0-1.5-0.4c-1.7-1-2.7-2.2-2.8-3.2c0-0.7,0.3-1.1,0.5-1.2l0,0l0,0C718.3,66.8,718.6,66.5,719.2,66.5 M758.2,0.2
		c-1.8,0-4.1,1.7-5.8,3.5c-2.7,2.7-14.8,18.1-19.2,24.5c-5.9,8.6-15.6,22-24,34.3c-8.4,12.2-10.7,22.9-1.2,24.5
		c0.5,0.1,1.1,0.1,1.6,0.1c6.6,0,12.9-6.5,14-9.9c1.4-4.2,1.2-6.1,1.2-6.1s-1.2-3.7-3.6-4.9c-0.8-0.4-1.5-0.5-2-0.5
		c-1.1,0-1.6,0.5-1.6,0.5c-0.9,0.7-2.2,3.4,2.4,6.1c0.8,0.5,1.5,0.6,2,0.6c0.4,0,0.7,0,0.9,0c0.6,0,0,0.6-2.9,5.6
		c-1.4,2.4-4.8,4.9-4.8,4.9s-2.7,1.7-4.8,1.7c-2,0-3.5-1.4-2.4-6.6c2.4-11,7.7-16.7,12-20.8c4.4-4.1,13.2-11,18-15.9
		c7-7.2,21.6-22.1,22.8-33C761.5,2.2,760.2,0.2,758.2,0.2L758.2,0.2z"/>
</g>
<g>
	<path d="M731.4,86.4c-1.9,0-3.1-0.5-3.7-1.5c-0.7-1.2-0.8-4,2.8-10.1l0.4-0.7L730,74c-0.7-0.1-1.3-0.1-1.8-0.3
		c-0.4-0.1-0.8-0.3-1.4-0.7c1.2,0.4,2.5,0.6,3.9,0.7l0.3,0l0.2-0.4c1.1-1.7,2.6-3.5,4.8-5.5c2.3-2.1,6-4.7,8.1-5.3
		c0.5-0.1,1-0.2,1.4-0.2c1,0,1.8,0.3,2.4,1c0.8,0.8,1.2,2.1,1.1,3.6c-0.2,3.4-6.9,6-13.4,6.8l-0.2,0l-0.1,0.2c-2,2.8-3,4.9-3,6.1
		c0,0.4,0.1,0.7,0.4,1c0.4,0.5,1.2,0.7,2.4,0.7c2.5,0,6.5-1,9.5-1.8c3.1-0.9,9.1-4.9,12.4-7.5c-0.9,2-3,5.3-5.8,6.9
		C742.6,83.9,735.6,86.4,731.4,86.4z M744.4,66c-1.9,0-5,2.9-5.6,3.6c-0.6,0.7-1.4,1.7-2.1,2.7l-0.8,1.1l1.3-0.3
		c5.1-1.1,8-3.5,8.5-5.2c0.2-0.6,0.1-1.1-0.2-1.4C745.2,66.3,744.9,66,744.4,66z"/>
	<path d="M745.6,62.9c0.8,0,1.5,0.3,2,0.8c0.7,0.7,1,1.9,1,3.2c-0.1,2-2.9,3.8-6.6,5c2.3-1.2,3.7-2.6,4.1-3.9
		c0.2-0.7,0.1-1.4-0.3-1.9c-0.2-0.3-0.7-0.6-1.4-0.6c-2.1,0-5.3,3-6,3.8c-0.6,0.6-1.2,1.5-1.9,2.4c-1.1,0.2-2.2,0.4-3.3,0.5
		c-0.1,0-0.3,0-0.4,0c1-1.2,2.2-2.6,3.7-4c2.3-2.1,5.9-4.6,7.9-5.2C744.8,62.9,745.2,62.9,745.6,62.9L745.6,62.9 M755.4,74.3
		c-1.1,1.7-2.6,3.6-4.5,4.6c-8.3,4.4-15.5,6.9-19.6,6.9c-1.7,0-2.8-0.4-3.3-1.3c-0.5-0.9-0.8-3.2,2.5-9.1c0.4,0,0.8,0,1.2,0
		c0.7,0,1.4,0,2.1-0.1c-1.9,3-1.9,4.2-2,4.6c0,0.5,0.2,1,0.5,1.4c0.5,0.6,1.4,0.8,2.8,0.8c2.1,0,5.3-0.6,9.6-1.8
		C747.4,79.7,752.1,76.8,755.4,74.3 M745.6,61.9c-0.5,0-1,0.1-1.5,0.2c-2.2,0.6-5.9,3.2-8.3,5.4c-2.4,2.2-3.9,4-4.9,5.6
		c0,0-0.1,0.1-0.1,0.1c0.3,0,0.6,0,0.8,0c0.5,0,1,0,1.6-0.1c1.4-0.1,2.7-0.3,3.8-0.6c0.8-1.1,1.6-2,2.1-2.6c0.8-0.9,3.7-3.5,5.3-3.5
		c0.3,0,0.5,0.1,0.7,0.3c0.9,1-1.6,4.4-8,5.9c-0.4,0.5-0.8,1.1-1.2,1.7c6.4-0.8,13.7-3.4,13.8-7.3C749.8,64.1,748.2,61.9,745.6,61.9
		L745.6,61.9z M721.4,67.9c0,0,0.6,1.4,2.3,2.8C722.3,69.3,721.4,67.9,721.4,67.9L721.4,67.9z M723.6,70.7c1.4,1.5,3.1,3.2,4.4,3.5
		c0.6,0.1,1.2,0.2,1.9,0.3c0.2-0.4,0.5-0.8,0.8-1.3C727.4,73.1,725.1,71.9,723.6,70.7L723.6,70.7z M758,71C758,71,758,71,758,71
		c-2.4,2.2-10,7.5-13.6,8.5c-3,0.9-6.9,1.8-9.3,1.8c-1.4,0-2.3-0.3-2.3-1.2c0.1-1.3,1.4-3.6,2.9-5.8c-1.4,0.2-2.8,0.3-4.1,0.3
		c-0.6,0-1.2,0-1.7-0.1c-5.2,8.9-3.7,12.3,1.4,12.3c4.6,0,12-2.8,20-7.1C755.8,77.5,758.3,71,758,71L758,71z"/>
</g>
<g>
	<path d="M574.6,86.3c-2.3,0-3.9-0.8-4.6-2.4c-1.4-3.2,1.6-9.1,7.9-15.6c1-1.1,1.4-2,1.1-2.7c-0.2-0.5-0.8-1-2.3-1
		c-2.3,0-5.6,1.1-8.6,2.9c-5.1,3.1-9.2,9.7-12,14.1c-1.3,2.1-2.4,3.9-3.1,4.4c-0.1,0-1.1,0.1-2.7,0.1h0c-0.9,0-1.5,0-1.9-0.1
		c2.9-4.1,16.7-18.8,16.9-19l0.9-0.9c0.5-0.3,1.3-0.7,2.5-1.3c2.5-1.2,5.7-2,8.6-2c3,0,5.2,0.8,5.8,2c0.6,1.2-0.3,2.7-1.2,3.8
		c-2.6,3.2-8.5,10.9-8.1,14c0.1,0.6,0.4,1,0.7,1.1c0.4,0.3,0.9,0.4,1.5,0.4l0,0c3.7,0,11.3-4.7,15.6-7.3
		C584.9,83.8,578.4,86.3,574.6,86.3z"/>
	<path d="M577.1,62.5l0,1c2.8,0,4.9,0.7,5.4,1.8c0.5,1-0.4,2.3-1.1,3.2c-3.2,4-8.6,11.2-8.2,14.4c0.1,0.8,0.5,1.2,0.9,1.5
		c0.5,0.3,1.1,0.5,1.8,0.5c2.6,0,6.9-2.1,11.6-4.8c-5.1,4.1-9.8,5.7-12.9,5.7c-1.2,0-3.3-0.3-4.1-2c-0.5-1.1-1.4-5.6,7.8-15.1
		c1.2-1.2,1.6-2.3,1.2-3.2c-0.3-0.6-1-1.3-2.8-1.3c-2.4,0-5.8,1.1-8.8,3c-5.2,3.1-9.2,9.6-12.1,14.3c-1.1,1.8-2.2,3.6-2.9,4.2
		c-0.3,0.1-1.2,0.1-2.5,0.1c-0.4,0-0.7,0-1,0c3.1-4,12.5-14.2,16.3-18.2l0.9-0.9c0.5-0.3,1.2-0.7,2.3-1.2c2.4-1.2,5.5-1.9,8.4-1.9
		V62.5 M577.1,62.5c-2.9,0-6.2,0.7-8.8,2c-4.3,2.1-3.8,2.3-3.6,2.3c0.1,0,0.1,0,0.1,0s-15.6,16.5-17.3,19.6
		c-0.1,0.2,1.3,0.3,2.7,0.3c1.4,0,2.8-0.1,3-0.3c2.3-1.9,7.6-14,15-18.5c3.2-1.9,6.4-2.9,8.3-2.9c2,0,2.7,1,0.9,2.9
		c-11.5,12-9.7,18.8-2.9,18.8c5,0,12.6-3.7,19.4-11.8c0,0,0-0.1,0-0.1c-0.4,0-13.3,8.9-18.1,8.9c-0.5,0-0.9-0.1-1.2-0.3
		c-1.8-1.2,1.8-7.4,7.5-14.4C585.8,64.6,582.1,62.5,577.1,62.5L577.1,62.5z"/>
</g>
<g>
	<path d="M661.8,87c-0.8,0-1.5,0-1.8-0.1c0.6-1.2,1.9-3.3,3.3-5.6c5.3-8.9,7.7-13,7.3-14.2c-0.1-0.3-0.2-0.4-0.3-0.5
		c-0.3-0.2-0.7-0.3-1.2-0.3c-3,0-8.8,3.9-9.1,4.1l-0.1,0.1l-10.7,16.3c-0.5,0-1.5,0.1-2.4,0.1c-0.9,0-1.3-0.1-1.5-0.1
		c-0.5-1.4,7.1-12.4,10.8-17.8c1.9-2.8,3.5-5,4.1-6.1c0.4,0.3,1.2,1.6,1.8,3.1l0.1,0.3l0.3,0c0.2,0,0.3,0,2.4-1.3
		c1.8-1.1,4.7-2.3,7.3-2.4h0c1.2,0,2.1,1.6,2.6,3.1l0.3,0.8l0.6-0.6c0.2-0.2,0.9-0.8,3.2-2.1c2.3-1.3,5.3-2.1,8-2.1
		c2.7,0,4.6,0.8,5.3,2c0.6,1.1,0.2,2.6-1,4.4c-2.9,4.3-9.5,14.4-6.9,16.5c0.2,0.2,0.5,0.3,0.9,0.3c2.5,0,8.4-4.5,15.1-10
		c-8.4,8.6-14.9,11.8-18.2,11.8c-1.3,0-2.2-0.5-2.7-1.4c-1.1-2.4,0.4-8.3,8.2-17.8c1-1.2,1.3-2.2,0.9-2.9c-0.2-0.5-0.8-1-2.2-1
		c-2.2,0-5.2,1.2-8.1,3.2c-4.8,3.3-8.5,10.3-11.2,15.4c-1.2,2.3-2.3,4.2-2.9,4.8C664.2,86.9,663.3,87,661.8,87z"/>
	<path d="M687,61l0,1c2.4,0,4.3,0.7,4.9,1.8c0.6,1.2-0.2,2.8-1,3.9c-4.6,6.6-9.5,15-6.8,17.1c0.3,0.3,0.7,0.4,1.2,0.4
		c0.2,0,0.3,0,0.5-0.1c-1.5,0.6-2.7,0.9-3.6,0.9c-1.7,0-2.1-0.9-2.2-1.1c-1-2.2,0.5-8,8.2-17.3c1.1-1.4,1.5-2.5,1-3.5
		c-0.2-0.5-0.9-1.3-2.6-1.3c-2.3,0-5.5,1.3-8.4,3.3c-4.9,3.4-8.6,10.5-11.3,15.6c-1.1,2-2.1,3.9-2.7,4.6c-0.3,0.1-1.1,0.1-2.3,0.1
		c-0.4,0-0.7,0-1,0c0.7-1.2,1.8-3,2.9-4.9c5.8-9.6,7.8-13.2,7.4-14.6c-0.1-0.3-0.3-0.6-0.6-0.8c-0.4-0.2-0.9-0.3-1.4-0.3
		c-3.1,0-8.7,3.7-9.4,4.2l-0.2,0.1l-0.1,0.2l-10.5,16c-0.5,0-1.4,0.1-2.2,0.1c-0.4,0-0.7,0-0.9,0c0.6-2.6,7.3-12.3,10.6-17
		c1.6-2.4,3-4.3,3.7-5.5c0.4,0.5,0.9,1.5,1.3,2.4l0.3,0.6h0.7c0.3,0,0.5,0,2.7-1.4c1.7-1.1,4.6-2.3,7.1-2.4c0.7,0,1.5,1.1,2,2.4
		c-0.1,0.3,0,0.6,0,0.8c0.1,0.3,0.5,0.7,1.1,0.7c0.1,0,0.3,0,0.3,0l1.1-0.2l-0.2-0.7c0.4-0.3,1.2-0.8,2.7-1.7
		c2.2-1.3,5.1-2.1,7.8-2.1V61 M687,61c-2.7,0-5.8,0.8-8.3,2.2c-2.1,1.2-3,1.9-3.3,2.2c0.1,0.2,0.1,0.3,0.1,0.3s0,0-0.1,0
		c-0.1,0-0.3,0,0-0.3c-0.3-0.9-1.3-3.5-3.1-3.5c0,0-0.1,0-0.1,0c-2.7,0.1-5.7,1.3-7.6,2.5c-1.9,1.2-2.1,1.3-2.2,1.3c0,0,0,0,0,0
		s-1.5-3.4-2.4-3.4c-0.1,0-0.2,0.1-0.3,0.2c-2.2,3.8-17.3,24-14.6,24.6c0.4,0.1,1,0.1,1.6,0.1c1.3,0,2.7-0.1,2.7-0.1l10.8-16.4
		c0,0,6-4,8.8-4c0.4,0,0.7,0.1,0.9,0.2c1.4,0.8-9.2,16.8-10.8,20.2c-0.1,0.2,1.2,0.3,2.6,0.3c1.3,0,2.6-0.1,2.8-0.3
		c2.1-2,7.1-15.3,14-20.2c3-2.1,6-3.1,7.8-3.1c1.9,0,2.5,1.1,0.9,3.1c-10.3,12.5-10.6,20-5.2,20c4.5,0,12.9-5.1,22.8-16.7
		c0.1-0.1,0.2-0.2,0.3-0.3c-0.1,0-0.1,0.1-0.2,0.1c-5,4.1-16.6,14.1-19.9,14.1c-0.2,0-0.4-0.1-0.6-0.2c-1.7-1.4,1.7-8.1,7-15.8
		C695.1,63.3,691.7,61,687,61L687,61z M706.8,68.6c-0.1,0-0.7,0.5-1.5,1.4C706.5,69.1,706.9,68.6,706.8,68.6L706.8,68.6z"/>
</g>
<path class="st2" d="M154.5,62.5c3.8,5.1-4.4,14.7-8,19c-5,6-14.7,6.7-14,3c0,0,0-3,1-3s2,2,2,2s-1.2,3.7,4,0c7-5,14-15,14-18
	c0-1-4.3,1.7-9,3c-5,1.4-10.5,1.3-13,2c-3.1,0.8,3.4-0.5,10-3C147.7,65.2,154,61.8,154.5,62.5z"/>
<path class="st2" d="M149.5,76.5c3,0,3.1,0.4,4,0c1.9-0.9,4.2-5.2,6-6c0.7-0.3,1.4,0.5,0.9,1.1c-2,3-5.1,7.1-7,11.1
	c-4.4,0.8-0.2-3-0.9-4.2c-0.5-0.9-4,0-4,0L149.5,76.5z"/>
<path class="st2" d="M166.5,66.5c5.1-3.8,9-4,9-4s4-1,5,1s1,1,0,2c-0.4,0.4-1-2-1-2c-3.9-2.4-15.7,8.1-17,15
	c-2.3,12.4,17.4,0.1,19-1l-1,1c0,0-11.6,7.8-16,8C155.4,87,158.5,72.5,166.5,66.5z"/>
<path class="st2" d="M327.5,68.5c3.8-5.1,12-9,15-4c1.2,1.9,0,2-1,3c-0.4,0.4-1-2-1-2c-1.1-2.6-13.2,5.5-16,14c-4,12,8,3,22,0
	C347.9,79.2,301.6,103.1,327.5,68.5z"/>
<path class="st2" d="M640.5,64.6c-2.5-2.7-7.2-4.9-15,2.1c-7,6.3-12.6,15.5-8,18.9C625.9,91.9,649.3,74.3,640.5,64.6z"/>
<path class="st3" d="M633.5,64.6c-2.4,1.3-7,4.2-9,7.4s-3,4.2-5,10.5c-1.7,5.4,10.1,0.6,12-1.1c2.8-2.4,7-7.4,8-12.6s-1.6-5.5-3-5.3
	C635.7,63.7,634.2,64.2,633.5,64.6z"/>
<path class="st2" d="M649.5,62.5c-1.6,0.7-5,5-5,5c-4,4-53.2,83.3-60,72c-8.3-13.7,69.9-69.1,70-66l1-2c-0.6-1.3-66,41.3-73,61
	c-6.3,17.7,10.3,16.5,22-2c5.4-8.4,20.1-30,27-40c4.8-7,20.1-27.7,20-28C651.4,62.3,649.7,62.4,649.5,62.5z"/>
<path class="st2" d="M275.5,66.5c-4,4-54.2,85.3-61,74c-8.3-13.7,72.9-71.1,73-68v-1c0,0-6,3-6.1,3c-2.1-0.3-63,39.3-68.9,59
	c-4.4,14.6,11.8,14.1,22-2c5.4-8.4,20.1-30,27-40C266.3,84.5,275.9,65.6,275.5,66.5z"/>
<path class="st2" d="M518.5,86.1c11-3.1,14-4.2,40-22c4.9-3.3,11-2.1,10,0c-1.3,2.7-2,4.2-2,4.2l-2,1c0,0,2-3.1,1-5.2
	c-1-2.1-7,2.1-7,2.1s-24.7,18.2-35,19.9C510.5,88.2,518.5,86.1,518.5,86.1z"/>
<g>
	<path d="M435.6,176.3c-2.3,0-3.9-0.8-4.6-2.4c-1.4-3.2,1.6-9.1,7.9-15.6c1-1.1,1.4-2,1.1-2.7c-0.2-0.5-0.8-1-2.3-1
		c-2.3,0-5.6,1.1-8.6,2.9c-5.1,3.1-9.1,9.4-12,14.1c-1.3,2.1-2.4,3.9-3.1,4.4c-0.1,0-1.1,0.2-2.7,0.2c0,0,0,0,0,0
		c-0.9,0-1.5,0-1.9-0.1c2.9-4.1,16.7-18.8,16.9-19l0.9-0.9c0.5-0.3,1.3-0.7,2.5-1.3c2.5-1.2,5.7-2,8.6-2c3,0,5.2,0.8,5.8,2
		c0.6,1.2-0.3,2.7-1.2,3.8c-2.6,3.2-8.5,10.9-8.1,14c0.1,0.6,0.4,1,0.7,1.1c0.4,0.3,0.9,0.4,1.5,0.4c3.7,0,11.3-4.7,15.6-7.3
		C445.9,173.8,439.4,176.3,435.6,176.3z"/>
	<path d="M438.1,152.5l0,1c2.8,0,4.9,0.7,5.4,1.8c0.5,1-0.4,2.3-1.1,3.2c-3.2,4-8.6,11.2-8.2,14.4c0.1,0.8,0.5,1.2,0.9,1.5
		c0.5,0.3,1.1,0.5,1.8,0.5c2.6,0,6.9-2.1,11.6-4.8c-5.1,4.1-9.8,5.7-12.9,5.7c-1.2,0-3.3-0.3-4.1-2c-0.5-1.1-1.4-5.6,7.8-15.1
		c1.2-1.2,1.6-2.3,1.2-3.2c-0.3-0.6-1-1.3-2.8-1.3c-2.4,0-5.8,1.1-8.8,3c-5.2,3.1-9.2,9.6-12.1,14.3c-1.1,1.8-2.2,3.6-2.9,4.2
		c-0.3,0.1-1.2,0.1-2.5,0.1c-0.4,0-0.7,0-1,0c3.1-4,12.5-14.2,16.3-18.2l0.9-0.9c0.5-0.3,1.2-0.7,2.3-1.2c2.4-1.2,5.5-1.9,8.4-1.9
		V152.5 M438.1,152.5c-2.9,0-6.2,0.7-8.8,2c-4.3,2.1-3.8,2.3-3.6,2.3c0.1,0,0.1,0,0.1,0s-15.6,16.5-17.3,19.6
		c-0.1,0.2,1.3,0.3,2.7,0.3c1.4,0,2.8-0.1,3-0.3c2.3-1.9,7.6-14,15-18.5c3.2-1.9,6.4-2.9,8.3-2.9c2,0,2.7,1,0.9,2.9
		c-11.5,12-9.7,18.8-2.9,18.8c5,0,12.6-3.7,19.4-11.8c0,0,0-0.1,0-0.1c-0.4,0-13.3,8.9-18.1,8.9c-0.5,0-0.9-0.1-1.2-0.3
		c-1.8-1.2,1.8-7.4,7.5-14.4C446.8,154.6,443.1,152.5,438.1,152.5L438.1,152.5z"/>
</g>
<path class="st2" d="M379.5,176.1c11-3.1,14-4.2,40-22c4.9-3.3,11-2.1,10,0c-1.3,2.7-2,4.2-2,4.2l-2,1c0,0,2-3.1,1-5.2
	c-1-2.1-7,2.1-7,2.1s-24.7,18.2-35,19.9C371.5,178.2,379.5,176.1,379.5,176.1z"/>
<path class="st2" d="M599.5,66.9c-16.3,12.3-9.2,32.3,12,9.9c1.4-1.5,8.9-10,6-13.2c-4-4.4-13.1,1.1-8,6.6c0.7,0.8,3,0.4,3,1.1
	c0,2.2-0.6,4-6,8.8c-12.4,11.2-16.2-2.9-4-12.1C603.2,67.6,600.2,66.5,599.5,66.9z"/>
<path class="st2" d="M267.4,156.9c-16.2,12.3-9.1,32.4,11.9,9.9c1.4-1.5,8.9-10,6-13.2c-4-4.4-13,1.1-8,6.6c0.7,0.8,3,0.4,3,1.1
	c0,2.2-0.6,4-6,8.8c-12.4,11.2-16.1-2.9-4-12.1C271.1,157.5,268.1,156.4,267.4,156.9z"/>
<path class="st2" d="M117.5,66.9c-16.3,12.3-9.2,32.4,12,9.9c1.4-1.5,8.9-10,6-13.2c-4-4.4-13.1,1.1-8,6.6c0.7,0.8,3,0.4,3,1.1
	c0,2.2-0.6,4-6,8.8c-12.4,11.2-16.2-2.9-4-12.1C121.2,67.5,118.2,66.4,117.5,66.9z"/>
<g>
	<path d="M711,143.5c1.2-1.3,2.5-2.9,3.2-4c1.3-2.5,8.8-14.8,8.9-14.9c0.4-0.6,35.9-59,38.9-62.1c0.3-0.3,0.7-0.5,1.1-0.5
		c0.6,0,1,0.3,1.2,0.7c0.1,0.3-0.5,1.9-1.4,3.4l-7.6,12.5c0,0-5.8,10.3-7.7,13.8c-4.1,7.4-9.7,15.8-16.8,26.3
		c-1.8,2.6-3.6,5.4-5.6,8.4C716.8,139.3,714.7,141.2,711,143.5z"/>
	<path d="M763.1,62.4c0.3,0,0.6,0.2,0.7,0.3c0,0.5-0.6,1.8-1.4,3l-7.6,12.5c-0.1,0.1-5.8,10.4-7.7,13.8c-4.1,7.4-9.7,15.7-16.8,26.3
		c-1.8,2.6-3.6,5.4-5.6,8.4c-5.5,8.3-8.3,11.9-10.6,14c0.2-0.3,0.4-0.7,0.6-1c1.3-2.5,8.8-14.8,8.9-14.9c10-16.4,36.4-59.5,38.8-62
		C762.6,62.5,762.8,62.4,763.1,62.4 M763.1,61.4c-0.5,0-1,0.2-1.4,0.6c-3.1,3.2-39,62.2-39,62.2s-7.6,12.5-8.9,15
		c-1.2,2.3-5.5,6.2-5.1,6.2c0,0,0.1,0,0.3-0.1c5.6-3.4,6.6-3.3,16.5-18.1c9.9-14.9,17.3-25.5,22.5-34.7c1.9-3.5,7.7-13.8,7.7-13.8
		l7.6-12.5c0,0,1.8-2.9,1.5-3.8C764.5,61.9,763.8,61.4,763.1,61.4L763.1,61.4z"/>
</g>
<g>
	<path d="M769,87c-0.1,0-0.2,0-0.2,0c-1.5-0.2-2.6-1-3.2-2.4c-0.9-2.1-0.3-4.8,1.6-7.2c1.3-1.6,2.7-2.9,4-4.1
		c1.8-1.6,3.5-3.1,4.3-5.3c0.4-1,0.4-1.8,0.1-2.3c-0.2-0.3-0.6-0.6-1.3-0.6c-1,0-2.3,0.6-2.4,0.6l-14.9,7.5l4.1-6.7l11.6-3.7
		c0,0,2.7-0.9,4.5-0.9c0.8,0,1.1,0.1,1.3,0.3c0.7,0.4,1,1,1.1,1.7c0.2,1.9-1.7,4.7-5.5,8.5c-6.2,6.1-6.5,9-6.4,9.8
		c-0.1,0.3,0,0.7,0.2,1.1c0.3,0.5,1,1.3,3,1.3c0.4,0,0.9,0,1.4-0.1c0.8-0.1,2.8-1.3,6-3.2c2.3-1.4,5.4-3.3,6.6-3.7c0,0,0,0,0,0
		C782.5,81.5,772.1,87,769,87z"/>
	<path d="M777.2,62.6c0.7,0,1,0.1,1,0.2c0.6,0.4,0.8,0.8,0.9,1.3c0.1,1.2-0.7,3.5-5.4,8.1c-6.1,5.9-6.6,9-6.5,10.1
		c-0.1,0.4,0,0.9,0.3,1.4c0.3,0.6,1.2,1.6,3.4,1.6c0.5,0,1,0,1.5-0.1c0.9-0.2,2.9-1.3,6.2-3.3c1.4-0.8,3.1-1.9,4.5-2.7
		c-3.6,3.5-11.5,7.4-14.1,7.4c-0.1,0-0.1,0-0.2,0c-1.3-0.1-2.3-0.9-2.8-2.1c-0.6-1.5-0.6-4,1.5-6.7c1.2-1.6,2.6-2.8,3.9-4
		c1.8-1.7,3.6-3.2,4.5-5.4c0.5-1.2,0.5-2.1,0-2.7c-0.3-0.4-0.8-0.8-1.7-0.8c-1.1,0-2.4,0.6-2.6,0.7l-13.3,6.7l3-5l11.5-3.7
		C772.8,63.5,775.4,62.6,777.2,62.6 M777.2,61.6c-2,0-4.7,0.9-4.7,0.9l-11.8,3.8l-5.1,8.3l16.5-8.3c0,0,1.2-0.6,2.2-0.6
		c0.8,0,1.4,0.5,0.8,2.2c-1.4,3.5-5.2,5.3-8.3,9.2c-3.6,4.7-2.1,9.9,2,10.4c0.1,0,0.2,0,0.3,0c3.4,0,13.9-5.5,16.3-9.6
		c0.4-0.6,0.3-0.9,0-0.9c-1.8,0-11.4,6.7-13.1,7c-0.5,0.1-0.9,0.1-1.3,0.1c-2.5,0-2.9-1.4-2.6-1.8c0,0-0.7-2.6,6.2-9.4
		s6.3-9.6,4.3-10.9C778.4,61.7,777.8,61.6,777.2,61.6L777.2,61.6z"/>
</g>
<path class="st2" d="M614.9,68.5c3.6,0,8.4-1,10.8-2c2.4-1,4.5-3,6-3c0.4,0,0,1,0,1s-1.6,1.4-2.4,2c-2.4,2-13.3,5-16.9,4
	C611.7,70.3,614.1,68.5,614.9,68.5z"/>
<path class="st2" d="M740,153c0.2-0.2-1.7,1.8-1.7,1.8s-11,7.1-16,7.2c-0.2,0-0.4-0.7-0.1-0.7C726.1,160.6,738.3,154.8,740,153z"/>
<path class="st2" d="M253.5,160.5l4,1c0,0,7,1,9-1c0.2-0.2-2,2-2,2h-5l-7-1v-1H253.5z"/>
<path class="st2" d="M214.5,157.5c3.8-5.1,12-9,15-4c1.2,1.9,0,2-1,3c-0.4,0.4-1-2-1-2c-1.1-2.6-13.2,5.5-16,14c-4,12,8,3,22,0
	C234.9,168.2,188.6,192.1,214.5,157.5z"/>
<path class="st2" d="M528.5,158.5c3.8-5.1,12-9,15-4c1.2,1.9,0,2-1,3c-0.4,0.4-1-2-1-2c-1.1-2.6-13.2,5.5-16,14c-4,12,8,3,22,0
	C548.9,169.2,502.6,193.1,528.5,158.5z"/>
<path class="st2" d="M634.5,158.5c3.8-5.1,12-9,15-4c1.2,1.9,0,2-1,3c-0.4,0.4-1-2-1-2c-1.1-2.6-13.2,5.5-16,14c-4,12,8,3,22,0
	C654.9,169.2,608.6,193.1,634.5,158.5z"/>
<path class="st2" d="M185.5,177c20-9.3,16-8.3,26-15.5c1.2-0.8-0.1,4.7-1,5.2C206.5,168.7,185.5,177,185.5,177z"/>
<path class="st2" d="M87.5,88.5c20-9,16-8,26-15c1.2-0.8-0.1,4.5-1,5C108.5,80.5,87.5,88.5,87.5,88.5z"/>
<path class="st2" d="M212.5,80.3c-0.5,0.6-1.1,2.2-1,3c0.2,1.2,1,3.2,4,3c3.2-0.2,15-8.8,19-12.8c0.6-0.6,0,2.8,0,2.8
	s-0.8-5.9-1-5.8c-4,4-14,14.8-16,13.8s-1-3-1-3l2-4l-1-1C217.5,76.3,213.4,79,212.5,80.3z"/>
<path class="st2" d="M240.5,62.3c0.7-0.7,6.7-0.7,6,0c-9,8-18.9,17.6-9.9,19.6c3.5,0.8,21.9-17.4,20.9-14.4c-2.4,7.3-36,28-32,14.8
	C228,74.1,236.5,66.3,240.5,62.3z"/>
<path class="st2" d="M827.8,62.3c0.7-0.7,6.7-0.7,6,0c-7,7.8-16,16.7-16,19.6c0,2.9,11.6-1.2,14-3.9c7.7-8.7,2.7,1.2-1,2.9
	c-5,3.9-20.9,10.9-18,1C815.2,73.9,823.8,66.3,827.8,62.3z"/>
<path class="st2" d="M845.3,63.1c0.7-0.7,6.7-0.7,6,0c-9,8-18.9,17.6-9.9,19.6c3.5,0.8,20.9-10.5,18.2-8.2
	c-5.9,4.9-32.1,19.2-29.2,8.6C832.5,74.8,841.3,67.1,845.3,63.1z"/>
<path class="st2" d="M295.5,62.5c0.7-0.7,6.7-0.7,6,0c-7,7.9-16,16.9-16,19.9c0,3,11.6-1.3,14-4c7.7-8.8,2.7,1.2-1,3
	c-5,4-20.9,11-18,1C282.9,74.3,291.5,66.5,295.5,62.5z"/>
<path class="st2" d="M314,62.5c0.7-0.7,6.7-0.7,6,0c-9,8-18.9,17.7-9.9,19.7c3.5,0.8,17.2-8.1,14.4-5.8c-5.9,4.9-28.4,16.8-25.5,6.1
	C301.2,74.3,310,66.5,314,62.5z"/>
<path class="st2" d="M739.5,152.5c0.7-0.7,6.7-0.7,6,0c-7,7.9-16,16.9-16,19.9s11.6-1.3,14-4c7.7-8.8,2.7,1.2-1,3c-5,4-20.9,11-18,1
	C726.9,164.3,735.5,156.5,739.5,152.5z"/>
<path class="st2" d="M758,152.5c0.7-0.7,6.7-0.7,6,0c-9,8-18.9,17.7-9.9,19.7c3.5,0.8,17.2-8.1,14.4-5.8
	c-5.9,4.9-28.4,16.8-25.5,6.1C745.2,164.3,754,156.5,758,152.5z"/>
<path class="st2" d="M311.8,57.4c2-2.9,1.3-7.7,14-10c5-0.9,14-3,15-4s-4,6-12,6C319.1,49.4,311.4,58,311.8,57.4z"/>
<path class="st2" d="M414.8,64.7c-7-7.8-16.2,3.3-20,9.1c-11.5,17.8,3.3,16.9,11,7.8C405.8,81.6,417.5,67.8,414.8,64.7z"/>
<path class="st3" d="M406.8,66.1c-6.2,0.9-16.2,16.1-11,18.8C399.8,87,421.8,64.1,406.8,66.1z"/>
<path class="st2" d="M418.8,62.3l-6,9.9l-6,8.2c-3.3,6.2,10.7,11.5,35-0.2c28.7-13.8,23.1-11.4,11-6.6c-36,14.2-41.3,9.9-41,6.8
	c0.5-5.6,7-12.4,11-18.1C423.2,61.7,418.8,62.3,418.8,62.3z"/>
<path class="st2" d="M205.6,65.5c-6.5-7.9-16.4,2.2-20.5,7.5c-13,16.9,1.7,17,10.5,8.1C195.6,81.1,208.1,68.6,205.6,65.5z"/>
<path class="st3" d="M198.6,65.1c-6.2,0.4-17.1,14.4-12.1,17.3C190.4,84.6,213.7,64,198.6,65.1z"/>
<path class="st2" d="M209.8,62.6l-7.6,10.2l-6.5,8.3c0,0-4.4,7.5,6.8,5.7c11.1-1.8,13.1-8.3,13.1-8.3c-0.3,2.5-15.7,8.6-14.9,2.9
	c0.9-5.8,8.2-12.9,14.2-18.8C215.3,62,209.8,62.6,209.8,62.6z"/>
<g>
	<path d="M864.8,87c-0.8,0-1.5,0-1.8-0.1c0.6-1.2,1.9-3.3,3.3-5.6c5.3-8.9,7.7-13,7.3-14.2c-0.1-0.3-0.2-0.4-0.3-0.5
		c-0.3-0.2-0.7-0.3-1.2-0.3c-3,0-8.8,3.9-9.1,4.1l-0.1,0.1l-10.7,16.3c-0.5,0-1.5,0.1-2.4,0.1c-0.9,0-1.3-0.1-1.5-0.1
		c-0.5-1.4,7.1-12.4,10.8-17.8c1.9-2.8,3.5-5,4.1-6.1c0.4,0.3,1.2,1.6,1.8,3.1l0.1,0.3l0.3,0c0.2,0,0.3,0,2.4-1.3
		c1.8-1.1,4.7-2.3,7.3-2.4h0c1.4,0,2.3,2.2,2.6,2.9l0.3,0.8l0.6-0.7c0.2-0.2,0.9-0.8,3.3-1.8c2.6-1.1,5.7-1.8,8.4-1.8
		c2.6,0,4.5,0.7,5.1,1.8c0.5,1,0.1,2.5-1.1,4.3c-0.6,0.9-1.2,1.7-1.8,2.5c-5.7,8.2-8.6,12.5-6.8,13.9c0.2,0.2,0.4,0.2,0.8,0.2
		c0,0,0,0,0,0c1.9,0,7-3.1,13.4-7.2c1.9-1.2,4-2.6,5.4-3.3c-4.3,4.6-16.9,12.4-22.3,12.4c-1,0-1.7-0.3-2-0.9
		c-0.6-1.3-0.2-5.4,9.8-18.3c1-1.2,1.2-2.2,0.9-3c-0.2-0.4-0.8-1-2.1-1c-2.1,0-5.2,1.2-8.1,3.2c-4.8,3.3-8.5,10.3-11.2,15.4
		c-1.2,2.3-2.3,4.2-2.9,4.8C867.2,86.9,866.3,87,864.8,87z"/>
	<path d="M890.3,62.3c2.4,0,4.1,0.6,4.6,1.6c0.6,1.1-0.3,2.6-1.1,3.8c-0.6,0.9-1.2,1.7-1.8,2.5c-6,8.6-8.8,12.9-6.7,14.6
		c0.3,0.2,0.6,0.3,1.1,0.3c0.2,0,0.4,0,0.6-0.1c-1.6,0.6-3,0.9-4.1,0.9c-1.2,0-1.5-0.5-1.5-0.6c-0.5-1-0.5-4.7,9.8-17.8
		c1.1-1.4,1.4-2.6,0.9-3.5c-0.3-0.6-1-1.3-2.6-1.3c-2.2,0-5.4,1.3-8.3,3.3c-4.9,3.4-8.6,10.5-11.3,15.6c-1.1,2-2.1,3.9-2.7,4.6
		c-0.3,0.1-1.1,0.1-2.3,0.1c-0.4,0-0.7,0-1,0c0.7-1.2,1.8-3,2.9-4.9c5.8-9.6,7.8-13.2,7.4-14.6c-0.1-0.3-0.3-0.6-0.6-0.8
		c-0.4-0.2-0.9-0.3-1.4-0.3c-3.1,0-8.7,3.7-9.4,4.2l-0.2,0.1l-0.1,0.2l-10.5,16c-0.5,0-1.4,0.1-2.2,0.1c-0.4,0-0.7,0-0.9,0
		c0.6-2.6,7.3-12.3,10.6-17c1.6-2.4,3-4.3,3.7-5.5c0.4,0.5,0.9,1.5,1.3,2.4l0.3,0.6h0.7c0.3,0,0.5,0,2.7-1.4
		c1.7-1.1,4.6-2.3,7.1-2.4c0.6,0,1.3,0.8,1.9,2.2c-0.1,0.3,0,0.6,0,0.8c0.2,0.5,0.7,0.8,1.1,0.8l1.5,0.2l-0.4-1.5
		c0.4-0.3,1.2-0.7,2.7-1.4C884.6,63,887.7,62.3,890.3,62.3 M898.3,79c-1.6,1.1-3.3,2.1-5,3.1C894.8,81.2,896.5,80.2,898.3,79
		 M890.3,61.3c-2.7,0-5.9,0.7-8.6,1.9c-2.2,1-3.1,1.6-3.4,1.9c0.1,0.3,0.2,0.6,0.2,0.6s-0.6-0.1-0.2-0.6c-0.4-1.1-1.4-3.2-3-3.2
		c0,0-0.1,0-0.1,0c-2.7,0.1-5.7,1.3-7.6,2.5c-1.9,1.2-2.1,1.3-2.2,1.3c0,0,0,0,0,0s-1.5-3.4-2.4-3.4c-0.1,0-0.2,0.1-0.3,0.2
		c-2.2,3.8-17.3,24-14.6,24.6c0.4,0.1,0.9,0.1,1.6,0.1c1.3,0,2.7-0.1,2.7-0.1l10.8-16.4c0,0,6-4,8.8-4c0.4,0,0.7,0.1,0.9,0.2
		c1.4,0.8-9.2,16.8-10.8,20.2c-0.1,0.2,1.2,0.3,2.6,0.3c1.3,0,2.6-0.1,2.8-0.3c2.1-2,7.1-15.3,14-20.2c3-2.1,6-3.2,7.8-3.2
		c1.8,0,2.5,1.1,0.9,3.2c-11.8,15.1-11.8,20-7.4,20c5.8,0,19.1-8.5,23.1-13c0.6-0.7,0.7-1,0.5-1c-1.5,0-16.8,11.1-20,11.1
		c-0.2,0-0.3,0-0.4-0.1c-1.7-1.4,3.3-8.1,8.7-15.7C898.1,63.3,894.9,61.3,890.3,61.3L890.3,61.3z"/>
</g>
<g>
	<path d="M591.8,177c-0.8,0-1.5,0-1.8-0.1c0.6-1.2,1.9-3.3,3.3-5.6c5.3-8.9,7.7-13,7.4-14.2c-0.1-0.3-0.2-0.4-0.3-0.5
		c-0.3-0.2-0.7-0.3-1.2-0.3c-3,0-8.8,3.9-9.1,4.1l-0.1,0.1l-10.7,16.3c-0.5,0-1.5,0.1-2.4,0.1c-0.9,0-1.3-0.1-1.5-0.1
		c-0.5-1.4,7.1-12.4,10.8-17.8c1.9-2.8,3.5-5,4.1-6.1c0.4,0.3,1.2,1.6,1.8,3.1l0.1,0.3l0.3,0c0.2,0,0.3,0,2.4-1.3
		c1.8-1.1,4.7-2.3,7.3-2.4h0c1.4,0,2.3,2.2,2.6,2.9l0.3,0.8l0.6-0.7c0.2-0.2,0.9-0.8,3.3-1.8c2.6-1.1,5.7-1.8,8.4-1.8
		c2.6,0,4.5,0.7,5.1,1.8c0.5,1,0.1,2.5-1.1,4.3c-0.6,0.9-1.2,1.7-1.8,2.5c-5.7,8.2-8.6,12.5-6.8,13.9c0.2,0.2,0.4,0.2,0.8,0.2
		c1.9,0,7-3.1,13.4-7.2c1.9-1.2,4-2.6,5.4-3.3c-4.3,4.6-16.9,12.4-22.3,12.4c-1,0-1.7-0.3-2-0.9c-0.6-1.3-0.2-5.4,9.8-18.3
		c1-1.2,1.2-2.2,0.9-3c-0.2-0.4-0.8-1-2.1-1c-2.1,0-5.2,1.2-8.1,3.2c-4.8,3.3-8.5,10.3-11.2,15.4c-1.2,2.3-2.3,4.2-2.9,4.8
		C594.2,176.9,593.3,177,591.8,177z"/>
	<path d="M617.3,152.3c2.4,0,4.1,0.6,4.6,1.6c0.6,1.1-0.3,2.6-1.1,3.8c-0.6,0.9-1.2,1.7-1.8,2.5c-6,8.6-8.8,12.9-6.7,14.6
		c0.3,0.2,0.6,0.3,1.1,0.3c0.2,0,0.4,0,0.6-0.1c-1.6,0.6-3,0.9-4.1,0.9c-1.2,0-1.5-0.5-1.5-0.6c-0.5-1-0.5-4.7,9.8-17.8
		c1.1-1.4,1.4-2.6,0.9-3.5c-0.3-0.6-1-1.3-2.6-1.3c-2.2,0-5.4,1.3-8.3,3.3c-4.9,3.4-8.6,10.5-11.3,15.6c-1.1,2-2.1,3.9-2.7,4.6
		c-0.3,0.1-1.1,0.1-2.3,0.1c-0.4,0-0.7,0-1,0c0.7-1.2,1.8-3,2.9-4.9c5.8-9.6,7.8-13.2,7.4-14.6c-0.1-0.3-0.3-0.6-0.6-0.8
		c-0.4-0.2-0.9-0.3-1.4-0.3c-3.1,0-8.7,3.7-9.4,4.2l-0.2,0.1l-0.1,0.2l-10.5,16c-0.5,0-1.4,0.1-2.2,0.1c-0.4,0-0.7,0-0.9,0
		c0.6-2.6,7.3-12.3,10.6-17c1.6-2.4,3-4.3,3.7-5.5c0.4,0.5,0.9,1.5,1.3,2.4l0.3,0.6h0.7c0.3,0,0.5,0,2.7-1.4
		c1.7-1.1,4.6-2.3,7.1-2.4c0.6,0,1.3,0.8,1.9,2.2c-0.1,0.3,0,0.6,0,0.8c0.2,0.5,0.7,0.8,1.1,0.8l1.5,0.2l-0.4-1.5
		c0.4-0.3,1.2-0.7,2.7-1.4C611.6,153,614.7,152.3,617.3,152.3 M625.3,169c-1.6,1.1-3.3,2.1-5,3.1C621.8,171.2,623.5,170.2,625.3,169
		 M617.3,151.3c-2.7,0-5.9,0.7-8.6,1.9c-2.2,1-3.1,1.6-3.4,1.9c0.1,0.3,0.2,0.6,0.2,0.6s-0.6-0.1-0.2-0.6c-0.4-1.1-1.4-3.2-3-3.2
		c0,0-0.1,0-0.1,0c-2.7,0.1-5.7,1.3-7.6,2.5c-1.9,1.2-2.1,1.3-2.2,1.3c0,0,0,0,0,0s-1.5-3.4-2.4-3.4c-0.1,0-0.2,0.1-0.3,0.2
		c-2.2,3.8-17.3,24-14.6,24.6c0.4,0.1,1,0.1,1.6,0.1c1.3,0,2.7-0.1,2.7-0.1l10.8-16.4c0,0,6-4,8.8-4c0.4,0,0.7,0.1,0.9,0.2
		c1.4,0.8-9.2,16.8-10.8,20.2c-0.1,0.2,1.2,0.3,2.6,0.3c1.3,0,2.6-0.1,2.8-0.3c2.1-2,7.1-15.3,14-20.2c3-2.1,6-3.2,7.8-3.2
		c1.8,0,2.5,1.1,0.9,3.2c-11.8,15.1-11.8,20-7.4,20c5.8,0,19.1-8.5,23.1-13c0.6-0.7,0.7-1,0.5-1c-1.5,0-16.8,11.1-20,11.1
		c-0.2,0-0.3,0-0.4-0.1c-1.7-1.4,3.3-8.1,8.7-15.7C625.1,153.3,621.9,151.3,617.3,151.3L617.3,151.3z"/>
</g>
<g>
	<path d="M664.8,177c-0.8,0-1.5,0-1.8-0.1c0.6-1.2,1.9-3.3,3.3-5.6c5.3-8.9,7.7-13,7.4-14.2c-0.1-0.3-0.2-0.4-0.3-0.5
		c-0.3-0.2-0.7-0.3-1.2-0.3c-3,0-8.8,3.9-9.1,4.1l-0.1,0.1l-10.7,16.3c-0.5,0-1.5,0.1-2.4,0.1c-0.9,0-1.3-0.1-1.5-0.1
		c-0.5-1.4,7.1-12.4,10.8-17.8c1.9-2.8,3.5-5,4.1-6.1c0.4,0.3,1.2,1.6,1.8,3.1l0.1,0.3l0.3,0c0.2,0,0.3,0,2.4-1.3
		c1.8-1.1,4.7-2.3,7.3-2.4h0c1.4,0,2.3,2.2,2.6,2.9l0.3,0.8l0.6-0.7c0.2-0.2,0.9-0.8,3.3-1.8c2.6-1.1,5.7-1.8,8.4-1.8
		c2.6,0,4.5,0.7,5.1,1.8c0.5,1,0.1,2.5-1.1,4.3c-0.6,0.9-1.2,1.7-1.8,2.5c-5.7,8.2-8.6,12.5-6.8,13.9c0.2,0.2,0.4,0.2,0.8,0.2
		c1.9,0,7-3.1,13.4-7.2c1.9-1.2,4-2.6,5.4-3.3c-4.3,4.6-16.9,12.4-22.3,12.4c-1,0-1.7-0.3-2-0.9c-0.6-1.3-0.2-5.4,9.8-18.3
		c1-1.2,1.2-2.2,0.9-3c-0.2-0.4-0.8-1-2.1-1c-2.1,0-5.2,1.2-8.1,3.2c-4.8,3.3-8.5,10.3-11.2,15.4c-1.2,2.3-2.3,4.2-2.9,4.8
		C667.2,176.9,666.3,177,664.8,177z"/>
	<path d="M690.3,152.3c2.4,0,4.1,0.6,4.6,1.6c0.6,1.1-0.3,2.6-1.1,3.8c-0.6,0.9-1.2,1.7-1.8,2.5c-6,8.6-8.8,12.9-6.7,14.6
		c0.3,0.2,0.6,0.3,1.1,0.3c0.2,0,0.4,0,0.6-0.1c-1.6,0.6-3,0.9-4.1,0.9c-1.2,0-1.5-0.5-1.5-0.6c-0.5-1-0.5-4.7,9.8-17.8
		c1.1-1.4,1.4-2.6,0.9-3.5c-0.3-0.6-1-1.3-2.6-1.3c-2.2,0-5.4,1.3-8.3,3.3c-4.9,3.4-8.6,10.5-11.3,15.6c-1.1,2-2.1,3.9-2.7,4.6
		c-0.3,0.1-1.1,0.1-2.3,0.1c-0.4,0-0.7,0-1,0c0.7-1.2,1.8-3,2.9-4.9c5.8-9.6,7.8-13.2,7.4-14.6c-0.1-0.3-0.3-0.6-0.6-0.8
		c-0.4-0.2-0.9-0.3-1.4-0.3c-3.1,0-8.7,3.7-9.4,4.2l-0.2,0.1l-0.1,0.2l-10.5,16c-0.5,0-1.4,0.1-2.2,0.1c-0.4,0-0.7,0-0.9,0
		c0.6-2.6,7.3-12.3,10.6-17c1.6-2.4,3-4.3,3.7-5.5c0.4,0.5,0.9,1.5,1.3,2.4l0.3,0.6h0.7c0.3,0,0.5,0,2.7-1.4
		c1.7-1.1,4.6-2.3,7.1-2.4c0.6,0,1.3,0.8,1.9,2.2c-0.1,0.3,0,0.6,0,0.8c0.2,0.5,0.7,0.8,1.1,0.8l1.5,0.2l-0.4-1.5
		c0.4-0.3,1.2-0.7,2.7-1.4C684.6,153,687.7,152.3,690.3,152.3 M698.3,169c-1.6,1.1-3.3,2.1-5,3.1C694.8,171.2,696.5,170.2,698.3,169
		 M690.3,151.3c-2.7,0-5.9,0.7-8.6,1.9c-2.2,1-3.1,1.6-3.4,1.9c0.1,0.3,0.2,0.6,0.2,0.6s-0.6-0.1-0.2-0.6c-0.4-1.1-1.4-3.2-3-3.2
		c0,0-0.1,0-0.1,0c-2.7,0.1-5.7,1.3-7.6,2.5c-1.9,1.2-2.1,1.3-2.2,1.3c0,0,0,0,0,0s-1.5-3.4-2.4-3.4c-0.1,0-0.2,0.1-0.3,0.2
		c-2.2,3.8-17.3,24-14.6,24.6c0.4,0.1,1,0.1,1.6,0.1c1.3,0,2.7-0.1,2.7-0.1l10.8-16.4c0,0,6-4,8.8-4c0.4,0,0.7,0.1,0.9,0.2
		c1.4,0.8-9.2,16.8-10.8,20.2c-0.1,0.2,1.2,0.3,2.6,0.3c1.3,0,2.6-0.1,2.8-0.3c2.1-2,7.1-15.3,14-20.2c3-2.1,6-3.2,7.8-3.2
		c1.8,0,2.5,1.1,0.9,3.2c-11.8,15.1-11.8,20-7.4,20c5.8,0,19.1-8.5,23.1-13c0.6-0.7,0.7-1,0.5-1c-1.5,0-16.8,11.1-20,11.1
		c-0.2,0-0.3,0-0.4-0.1c-1.7-1.4,3.3-8.1,8.7-15.7C698.1,153.3,694.9,151.3,690.3,151.3L690.3,151.3z"/>
</g>
<g>
	<path d="M374.8,87.3c-1.3,0-1.6-0.6-1.7-0.8c-0.6-1.3-0.1-5.5,10.6-19.3c1-1.2,1.2-2.2,0.9-3c-0.2-0.4-0.8-1-2.1-1
		c-2.1,0-5.2,1.2-8.1,3.2c-4.8,3.3-8.5,10.3-11.2,15.4c-1.2,2.3-2.3,4.2-2.9,4.8c-0.1,0-1,0.1-2.5,0.1c-0.8,0-1.5,0-1.8-0.1
		c0.6-1.2,1.9-3.3,3.3-5.6c5.3-8.9,7.7-13,7.3-14.2c-0.1-0.3-0.2-0.4-0.3-0.5c-0.3-0.2-0.7-0.3-1.2-0.3c-3,0-8.8,3.9-9.1,4.1
		l-0.1,0.1l-10.7,16.3c-0.5,0-1.5,0.1-2.4,0.1c-0.9,0-1.3-0.1-1.5-0.1c-0.5-1.4,7.1-12.4,10.8-17.8c1.9-2.8,3.5-5,4.1-6.1
		c0.4,0.3,1.2,1.6,1.8,3.1l0.1,0.3l0.3,0c0.2,0,0.3,0,2.4-1.3c1.8-1.1,4.7-2.3,7.3-2.4c0,0,0,0,0,0c1.4,0,2.3,2.2,2.6,2.9l0.3,0.8
		l0.6-0.7c0.2-0.2,0.9-0.8,3.3-1.8c2.6-1.1,5.7-1.8,8.4-1.8c2.6,0,4.5,0.7,5.1,1.8c0.5,1,0.1,2.5-1.1,4.3c-0.6,0.9-1.2,1.7-1.8,2.5
		c-5.7,8.2-8.6,12.5-6.8,13.9c0.2,0.2,0.5,0.2,0.8,0.2c1.9,0,6.1-2.7,11.5-6.3c1.1-0.7,2.2-1.5,3.1-2
		C389.9,80.6,379.5,87.3,374.8,87.3z"/>
	<path d="M383.3,62.3c2.4,0,4.1,0.6,4.6,1.6c0.6,1.1-0.3,2.6-1.1,3.8c-0.6,0.9-1.2,1.7-1.8,2.5c-6,8.6-8.8,12.9-6.7,14.6
		c0.3,0.2,0.7,0.4,1.1,0.4c0.4,0,0.9-0.1,1.5-0.3c-2.5,1.2-4.7,2-6.2,2c-1,0-1.2-0.4-1.2-0.5c-0.4-0.8-0.7-4.3,10.5-18.7
		c1.1-1.4,1.4-2.6,0.9-3.5c-0.3-0.6-1-1.3-2.6-1.3c-2.2,0-5.4,1.3-8.3,3.3c-4.9,3.4-8.6,10.5-11.3,15.6c-1.1,2-2.1,3.9-2.7,4.6
		c-0.3,0.1-1.1,0.1-2.3,0.1c-0.4,0-0.7,0-1,0c0.7-1.2,1.8-3,2.9-4.9c5.8-9.6,7.8-13.2,7.4-14.6c-0.1-0.3-0.3-0.6-0.6-0.8
		c-0.4-0.2-0.9-0.3-1.4-0.3c-3.1,0-8.7,3.7-9.4,4.2l-0.2,0.1l-0.1,0.2l-10.5,16c-0.5,0-1.4,0.1-2.2,0.1c-0.4,0-0.7,0-0.9,0
		c0.6-2.6,7.3-12.3,10.6-17c1.6-2.4,3-4.3,3.7-5.5c0.4,0.5,0.9,1.5,1.3,2.4l0.3,0.6h0.7c0.3,0,0.5,0,2.7-1.4
		c1.7-1.1,4.6-2.3,7.1-2.4c0.6,0,1.3,0.8,1.9,2.2c-0.1,0.3,0,0.6,0,0.8c0.2,0.5,0.7,0.8,1.1,0.8l1.5,0.2l-0.4-1.5
		c0.4-0.3,1.2-0.7,2.7-1.4C377.6,63,380.7,62.3,383.3,62.3 M383.3,61.3c-2.7,0-5.9,0.7-8.6,1.9c-2.2,1-3.1,1.6-3.4,1.9
		c0.1,0.3,0.2,0.6,0.2,0.6s-0.6-0.1-0.2-0.6c-0.4-1.1-1.4-3.2-3-3.2c0,0-0.1,0-0.1,0c-2.7,0.1-5.7,1.3-7.6,2.5
		c-1.9,1.2-2.1,1.3-2.2,1.3c0,0,0,0,0,0s-1.5-3.4-2.4-3.4c-0.1,0-0.2,0.1-0.3,0.2c-2.2,3.8-17.3,24-14.6,24.6c0.4,0.1,1,0.1,1.6,0.1
		c1.3,0,2.7-0.1,2.7-0.1l10.8-16.4c0,0,6-4,8.8-4c0.4,0,0.7,0.1,0.9,0.2c1.4,0.8-9.2,16.8-10.8,20.2c-0.1,0.2,1.2,0.3,2.6,0.3
		c1.3,0,2.6-0.1,2.8-0.3c2.1-2,7.1-15.3,14-20.2c3-2.1,6-3.2,7.8-3.2c1.8,0,2.5,1.1,0.9,3.2c-12.3,15.8-12.6,20.8-8.5,20.8
		c5,0,16.3-7.4,20.2-11.8c0.7-0.8,0.9-1.1,0.6-1.1c-1.2,0-13.1,9.3-16.1,9.3c-0.2,0-0.4,0-0.5-0.1c-1.7-1.4,3.3-8.1,8.7-15.7
		C391.1,63.3,387.9,61.3,383.3,61.3L383.3,61.3z"/>
</g>
<path class="st2" d="M804.5,64.6c-2.5-2.7-7.2-4.9-15,2.1c-7,6.3-12.6,15.5-8,18.9C789.9,91.9,813.3,74.3,804.5,64.6z"/>
<path class="st3" d="M797.5,64.6c-2.4,1.3-7,4.2-9,7.4s-3,4.2-5,10.5c-1.7,5.4,10.1,0.6,12-1.1c2.8-2.4,7-7.4,8-12.6s-1.6-5.5-3-5.3
	C799.7,63.7,798.2,64.2,797.5,64.6z"/>
<path class="st2" d="M813.5,62.5c-1.6,0.7-5,5-5,5c-4,4-53.2,83.3-60,72c-8.3-13.7,69.9-68.1,70-65c0,0-65,38.3-72,58
	c-6.3,17.7,10.3,16.5,22-2c5.4-8.4,20.1-30,27-40c4.8-7,20.1-27.7,20-28C815.4,62.3,813.7,62.4,813.5,62.5z"/>
<path class="st2" d="M260.5,62.5c0.7-0.7,6.7-0.7,6,0c-7,7.9-16,16.9-16,19.9c0,3,11.6-1.3,14-4c7.7-8.8,2.7,1.2-1,3
	c-5,4-20.9,11-18,1C247.9,74.3,256.5,66.5,260.5,62.5z"/>
<path class="st2" d="M279,62.5c0.7-0.7,6.7-0.7,6,0c-9,8-23.9,30.8-21,20.1C266.2,74.3,275,66.5,279,62.5z"/>
<g>
	<path d="M709.7,176.5c-0.5,0-1,0-1.5-0.1c-2.6-0.4-4.4-1.6-5.2-3.6c-1.7-4.1,0.7-11.4,6.7-20.1c4.7-6.9,9.9-14.3,14.5-20.7
		c3.5-5,6.9-9.8,9.5-13.5c4.4-6.5,16.5-21.7,19.1-24.4c2.1-2.1,4.1-3.4,5.4-3.4c0.5,0,0.9,0.2,1.3,0.6c0.7,0.7,1.3,2.6,0.8,7.3
		c-1.2,10.8-15.7,25.6-22.7,32.7c-2.8,2.8-6.8,6.2-10.7,9.5c-2.8,2.4-5.5,4.6-7.3,6.4c-4.9,4.7-9.8,10.5-12.1,21.1
		c-0.6,3-0.5,5,0.4,6.1c0.6,0.7,1.4,1,2.4,1c2.3,0,5-1.7,5.1-1.8c0.2-0.1,3.6-2.6,5-5.1c0.9-1.5,1.5-2.7,2-3.5
		c1.1-1.9,1.3-2.1,1-2.5c-0.1-0.2-0.3-0.3-0.6-0.3c-0.1,0-0.2,0-0.3,0c-0.1,0-0.3,0-0.5,0c-0.6,0-1.2-0.2-1.8-0.5
		c-2.4-1.5-3-2.8-3-3.6c0-0.9,0.4-1.5,0.7-1.7c0.1-0.1,0.5-0.4,1.3-0.4c0.5,0,1.1,0.2,1.8,0.5c2,1,3.2,4.1,3.3,4.5
		c0,0.3,0,2.2-1.2,5.9C722.1,170.2,716,176.5,709.7,176.5z"/>
	<path d="M758.2,91.2L758.2,91.2c0.4,0,0.7,0.1,0.9,0.4c0.5,0.5,1.2,2.1,0.7,6.9c-1.1,10.6-15.6,25.4-22.5,32.4
		c-2.7,2.8-6.7,6.2-10.6,9.5c-2.8,2.4-5.5,4.6-7.3,6.4c-5,4.8-10,10.6-12.3,21.3c-0.7,3.1-0.5,5.3,0.5,6.6c0.5,0.6,1.3,1.2,2.8,1.2
		c2.4,0,5.2-1.8,5.4-1.9l0,0l0,0c0.1-0.1,3.6-2.7,5.1-5.2c0.9-1.5,1.5-2.6,2-3.5c0.1-0.2,0.2-0.4,0.3-0.6c-0.2,0.6-0.3,1.3-0.6,2
		c-1,3.2-6.9,9.2-13,9.2c-0.5,0-1,0-1.5-0.1c-2.5-0.4-4.1-1.5-4.8-3.3c-1.6-3.9,0.8-11.1,6.7-19.6c4.7-6.9,9.9-14.2,14.5-20.7
		c3.5-5,6.9-9.8,9.5-13.5c4.4-6.4,16.5-21.7,19.1-24.3C755.1,92.4,757,91.2,758.2,91.2 M719.2,156.5c0.5,0,1,0.1,1.5,0.4
		c1.6,0.8,2.7,3.2,3.1,4.2c0,0.1,0,0.4-0.1,0.9c-0.2-0.2-0.5-0.3-0.9-0.3c-0.1,0-0.2,0-0.4,0c-0.1,0-0.3,0-0.5,0
		c-0.3,0-0.9,0-1.5-0.4c-1.7-1-2.7-2.2-2.8-3.2c0-0.7,0.3-1.1,0.5-1.2l0,0l0,0C718.3,156.8,718.6,156.5,719.2,156.5 M758.2,90.2
		c-1.8,0-4.1,1.7-5.8,3.5c-2.7,2.7-14.8,18.1-19.2,24.5c-5.9,8.6-15.6,22-24,34.3c-8.4,12.2-10.7,22.9-1.2,24.5
		c0.5,0.1,1.1,0.1,1.6,0.1c6.6,0,12.9-6.5,14-9.9c1.4-4.2,1.2-6.1,1.2-6.1s-1.2-3.7-3.6-4.9c-0.8-0.4-1.5-0.5-2-0.5
		c-1.1,0-1.6,0.5-1.6,0.5c-0.9,0.7-2.2,3.4,2.4,6.1c0.8,0.5,1.5,0.6,2,0.6c0.4,0,0.7,0,0.9,0c0.6,0,0,0.6-2.9,5.6
		c-1.4,2.4-4.8,4.9-4.8,4.9s-2.7,1.7-4.8,1.7c-2,0-3.5-1.4-2.4-6.6c2.4-11,7.7-16.7,12-20.8c4.4-4.1,13.2-11,18-15.9
		c7-7.2,21.6-22.1,22.8-33C761.5,92.2,760.2,90.2,758.2,90.2L758.2,90.2z"/>
</g>
<g>
	<path d="M412,233.5c1.2-1.3,2.5-2.9,3.2-4c1.3-2.5,8.8-14.8,8.9-14.9c0.4-0.6,35.9-59,38.9-62.1c0.3-0.3,0.7-0.5,1.1-0.5
		c0.6,0,1,0.3,1.2,0.7c0.1,0.3-0.5,1.9-1.4,3.4l-7.6,12.5c0,0-5.8,10.3-7.7,13.8c-4.1,7.4-9.7,15.8-16.8,26.3
		c-1.8,2.6-3.6,5.4-5.6,8.4C417.8,229.3,415.7,231.2,412,233.5z"/>
	<path d="M464.1,152.4c0.3,0,0.6,0.2,0.7,0.3c0,0.5-0.6,1.8-1.4,3l-7.6,12.5c-0.1,0.1-5.8,10.4-7.7,13.8
		c-4.1,7.4-9.7,15.7-16.8,26.3c-1.8,2.6-3.6,5.4-5.6,8.4c-5.5,8.3-8.3,11.9-10.6,14c0.2-0.3,0.4-0.7,0.6-1
		c1.3-2.5,8.8-14.8,8.9-14.9c10-16.4,36.4-59.5,38.8-62C463.6,152.5,463.8,152.4,464.1,152.4 M464.1,151.4c-0.5,0-1,0.2-1.4,0.6
		c-3.1,3.2-39,62.2-39,62.2s-7.6,12.5-8.9,15c-1.2,2.3-5.5,6.2-5.1,6.2c0,0,0.1,0,0.3-0.1c5.6-3.4,6.6-3.3,16.5-18.1
		c9.9-14.9,17.3-25.5,22.5-34.7c1.9-3.5,7.7-13.8,7.7-13.8l7.6-12.5c0,0,1.8-2.9,1.5-3.8C465.5,151.9,464.8,151.4,464.1,151.4
		L464.1,151.4z"/>
</g>
<g>
	<path d="M470,177c-0.1,0-0.2,0-0.2,0c-1.5-0.2-2.6-1-3.2-2.4c-0.9-2.1-0.3-4.8,1.6-7.2c1.3-1.6,2.7-2.9,4-4.1
		c1.8-1.6,3.5-3.1,4.3-5.3c0.4-1,0.4-1.8,0.1-2.3c-0.2-0.3-0.6-0.6-1.3-0.6c-1,0-2.3,0.6-2.4,0.6l-14.9,7.5l4.1-6.7l11.6-3.7
		c0,0,2.7-0.9,4.5-0.9c0.8,0,1.1,0.1,1.3,0.3c0.7,0.4,1,1,1.1,1.7c0.2,1.9-1.7,4.7-5.5,8.5c-6.2,6.1-6.5,9-6.4,9.8
		c-0.1,0.3,0,0.7,0.2,1.1c0.3,0.5,1,1.3,3,1.3c0.4,0,0.9,0,1.4-0.1c0.8-0.1,2.8-1.3,6-3.2c2.3-1.4,5.4-3.3,6.6-3.7c0,0,0,0,0,0
		C483.5,171.5,473.1,177,470,177z"/>
	<path d="M478.2,152.6c0.7,0,1,0.1,1,0.2c0.6,0.4,0.8,0.8,0.9,1.3c0.1,1.2-0.7,3.5-5.4,8.1c-6.1,5.9-6.6,9-6.5,10.1
		c-0.1,0.4,0,0.9,0.3,1.4c0.3,0.6,1.2,1.6,3.4,1.6c0.5,0,1,0,1.5-0.1c0.9-0.2,2.9-1.3,6.2-3.3c1.4-0.8,3.1-1.9,4.5-2.7
		c-3.6,3.5-11.5,7.4-14.1,7.4c-0.1,0-0.1,0-0.2,0c-1.3-0.1-2.3-0.9-2.8-2.1c-0.6-1.5-0.6-4,1.5-6.7c1.2-1.6,2.6-2.8,3.9-4
		c1.8-1.7,3.6-3.2,4.5-5.4c0.5-1.2,0.5-2.1,0-2.7c-0.3-0.4-0.8-0.8-1.7-0.8c-1.1,0-2.4,0.6-2.6,0.7l-13.3,6.7l3-5l11.5-3.7
		C473.8,153.5,476.4,152.6,478.2,152.6 M478.2,151.6c-2,0-4.7,0.9-4.7,0.9l-11.8,3.8l-5.1,8.3l16.5-8.3c0,0,1.2-0.6,2.2-0.6
		c0.8,0,1.4,0.5,0.8,2.2c-1.4,3.5-5.2,5.3-8.3,9.2c-3.6,4.7-2.1,9.9,2,10.4c0.1,0,0.2,0,0.3,0c3.4,0,13.9-5.5,16.3-9.6
		c0.4-0.6,0.3-0.9,0-0.9c-1.8,0-11.4,6.7-13.1,7c-0.5,0.1-0.9,0.1-1.3,0.1c-2.5,0-2.9-1.4-2.6-1.8c0,0-0.7-2.6,6.2-9.4
		s6.3-9.6,4.3-10.9C479.4,151.7,478.8,151.6,478.2,151.6L478.2,151.6z"/>
</g>
<g>
	<path d="M239.7,176.5c-0.5,0-1,0-1.5-0.1c-2.6-0.4-4.4-1.6-5.2-3.6c-1.7-4.1,0.7-11.4,6.7-20.1c4.7-6.9,9.9-14.2,14.5-20.7
		c3.5-5,6.9-9.8,9.5-13.5c4.4-6.5,16.5-21.7,19.1-24.4c2.1-2.1,4.1-3.4,5.4-3.4c0.5,0,0.9,0.2,1.3,0.6c0.7,0.7,1.3,2.6,0.8,7.3
		c-1.2,10.8-15.7,25.6-22.7,32.7c-2.8,2.8-6.8,6.2-10.7,9.5c-2.8,2.4-5.5,4.6-7.3,6.4c-4.9,4.7-9.8,10.5-12.1,21.1
		c-0.6,3-0.5,5,0.4,6.1c0.6,0.7,1.4,1,2.4,1c2.3,0,5-1.7,5.1-1.8c0.2-0.1,3.6-2.6,5-5.1c0.9-1.5,1.5-2.7,2-3.5
		c1.1-1.9,1.3-2.1,1-2.5c-0.1-0.2-0.3-0.3-0.6-0.3c-0.1,0-0.2,0-0.3,0c-0.1,0-0.3,0-0.5,0c-0.6,0-1.2-0.2-1.8-0.5
		c-2.4-1.5-3-2.8-3-3.6c0-0.9,0.4-1.5,0.7-1.7c0.1-0.1,0.5-0.4,1.3-0.4c0.5,0,1.1,0.2,1.8,0.5c2,1,3.2,4.1,3.3,4.5
		c0,0.3,0,2.2-1.2,5.9C252.1,170.2,246,176.5,239.7,176.5z"/>
	<path d="M288.2,91.2L288.2,91.2c0.4,0,0.7,0.1,0.9,0.4c0.5,0.5,1.2,2.1,0.7,6.9c-1.1,10.6-15.6,25.4-22.5,32.4
		c-2.7,2.8-6.7,6.2-10.6,9.5c-2.8,2.4-5.5,4.6-7.3,6.4c-5,4.8-10,10.6-12.3,21.3c-0.7,3.1-0.5,5.3,0.5,6.6c0.5,0.6,1.3,1.2,2.8,1.2
		c2.4,0,5.2-1.8,5.4-1.9l0,0l0,0c0.1-0.1,3.6-2.7,5.1-5.2c0.9-1.5,1.5-2.6,2-3.5c0.1-0.2,0.2-0.4,0.3-0.6c-0.2,0.6-0.3,1.3-0.6,2
		c-1,3.2-6.9,9.2-13,9.2c-0.5,0-1,0-1.5-0.1c-2.5-0.4-4.1-1.5-4.8-3.3c-1.6-3.9,0.8-11.1,6.7-19.6c4.7-6.9,9.9-14.2,14.5-20.7
		c3.5-5,6.9-9.8,9.5-13.5c4.4-6.4,16.5-21.7,19.1-24.3C285.1,92.4,287,91.2,288.2,91.2 M249.2,156.5c0.5,0,1,0.1,1.5,0.4
		c1.6,0.8,2.7,3.2,3.1,4.2c0,0.1,0,0.4-0.1,0.9c-0.2-0.2-0.5-0.3-0.9-0.3c-0.1,0-0.2,0-0.4,0c-0.1,0-0.3,0-0.5,0
		c-0.3,0-0.9,0-1.5-0.4c-1.7-1-2.7-2.2-2.8-3.2c0-0.7,0.3-1.1,0.5-1.2l0,0l0,0C248.3,156.8,248.6,156.5,249.2,156.5 M288.2,90.2
		c-1.8,0-4.1,1.7-5.8,3.5c-2.7,2.7-14.8,18.1-19.2,24.5c-5.9,8.6-15.6,22-24,34.3c-8.4,12.2-10.7,22.9-1.2,24.5
		c0.5,0.1,1.1,0.1,1.6,0.1c6.6,0,12.9-6.5,14-9.9c1.4-4.2,1.2-6.1,1.2-6.1s-1.2-3.7-3.6-4.9c-0.8-0.4-1.5-0.5-2-0.5
		c-1.1,0-1.6,0.5-1.6,0.5c-0.9,0.7-2.2,3.4,2.4,6.1c0.8,0.5,1.5,0.6,2,0.6c0.4,0,0.7,0,0.9,0c0.6,0,0,0.6-2.9,5.6
		c-1.4,2.4-4.8,4.9-4.8,4.9s-2.7,1.7-4.8,1.7c-2,0-3.5-1.4-2.4-6.6c2.4-11,7.7-16.7,12-20.8c4.4-4.1,13.2-11,18-15.9
		c7-7.2,21.6-22.1,22.8-33C291.5,92.2,290.2,90.2,288.2,90.2L288.2,90.2z"/>
</g>
<path class="st2" d="M572.5,156.5c-4,4-54.2,85.3-61,74c-8.3-13.7,72.9-71.1,73-68v-1c0,0-6,3-6.1,3c-2.1-0.3-63,39.3-68.9,59
	c-4.4,14.6,11.8,14.1,22-2c5.4-8.4,20.1-30,27-40C563.3,174.5,572.9,155.6,572.5,156.5z"/>
<path class="st2" d="M557.5,152.5c0.7-0.7,6.7-0.7,6,0c-7,7.9-16,16.9-16,19.9s11.6-1.3,14-4c7.7-8.8,2.7,1.2-1,3c-5,4-20.9,11-18,1
	C544.9,164.3,553.5,156.5,557.5,152.5z"/>
<path class="st2" d="M576,152.5c0.7-0.7,6.7-0.7,6,0c-9,8-23.9,30.8-21,20.1C563.2,164.3,572,156.5,576,152.5z"/>
<path class="st2" d="M498.5,151.5c0.7-0.7,6.7-0.7,6,0c-7,7.9-16,16.9-16,19.9s11.6-1.3,14-4c7.7-8.8,2.7,1.2-1,3c-5,4-20.9,11-18,1
	C485.9,163.3,494.5,155.5,498.5,151.5z"/>
<path class="st2" d="M517,151.5c0.7-0.7,6.7-0.7,6,0c-9,8-18.9,17.7-9.9,19.7c3.5,0.8,17.2-8.1,14.4-5.8
	c-5.9,4.9-28.4,16.8-25.5,6.1C504.2,163.3,513,155.5,517,151.5z"/>
<g>
	<path class="st4" d="M720.1,54.2c0.1-0.4,0.5-1.2,0.9-1.9c0.5-0.4,1.8-2.1,7.1-9.7c8.4-11.8,25.8-36.2,28.9-36.2
		c5,11.1-34.2,46.4-36.5,47.6C720.4,54.1,720.2,54.1,720.1,54.2z"/>
	<path d="M756.8,7c1.4,4.5-4,13.8-15.5,26.4c-8.2,9-16.8,16.8-19.9,19.3c0,0,0.1-0.1,0.1-0.1c0.7-0.7,2.3-2.8,7.1-9.7
		c4.7-6.6,11.1-15.6,16.8-23C753.2,9.8,755.9,7.5,756.8,7 M757.1,5.9c-4.7,0-35.5,46-36.3,46c0,0,0,0,0,0c0,0-1.9,2.8-0.8,2.8
		c0.2,0,0.4-0.1,0.8-0.3c2.5-1.3,41.9-36.8,36.8-48.2C757.5,6,757.3,5.9,757.1,5.9L757.1,5.9z"/>
</g>
<g>
	<path class="st4" d="M720.1,144.2c0.1-0.4,0.5-1.2,0.9-1.9c0.5-0.4,1.8-2.1,7.1-9.7c8.4-11.8,25.8-36.2,28.9-36.2
		c5,11.1-34.2,46.4-36.5,47.6C720.4,144.1,720.2,144.1,720.1,144.2z"/>
	<path d="M756.8,97c1.4,4.5-4,13.8-15.5,26.4c-8.2,9-16.8,16.8-19.9,19.3c0,0,0.1-0.1,0.1-0.1c0.7-0.7,2.3-2.8,7.1-9.7
		c4.7-6.6,11.1-15.6,16.8-23C753.2,99.8,755.9,97.5,756.8,97 M757.1,95.9c-4.7,0-35.5,46-36.3,46c0,0,0,0,0,0c0,0-1.9,2.8-0.8,2.8
		c0.2,0,0.4-0.1,0.8-0.3c2.5-1.3,41.9-36.8,36.8-48.2C757.5,96,757.3,95.9,757.1,95.9L757.1,95.9z"/>
</g>
<g>
	<path class="st4" d="M250.1,144.2c0.1-0.4,0.5-1.2,0.9-1.9c0.5-0.4,1.8-2.1,7.1-9.7c8.4-11.8,25.8-36.2,28.9-36.2
		c5,11.1-34.2,46.4-36.5,47.6C250.4,144.1,250.2,144.1,250.1,144.2z"/>
	<path d="M286.8,97c1.4,4.5-4,13.8-15.5,26.4c-8.2,9-16.8,16.8-19.9,19.3c0,0,0.1-0.1,0.1-0.1c0.7-0.7,2.3-2.8,7.1-9.7
		c4.7-6.6,11.1-15.6,16.8-23C283.2,99.8,285.9,97.5,286.8,97 M287.1,95.9c-4.7,0-35.5,46-36.3,46c0,0,0,0,0,0c0,0-1.9,2.8-0.8,2.8
		c0.2,0,0.4-0.1,0.8-0.3c2.5-1.3,41.9-36.8,36.8-48.2C287.5,96,287.3,95.9,287.1,95.9L287.1,95.9z"/>
</g>
</svg>
